<svg width="19" height="18" viewBox="0 0 19 18" fill="none" xmlns="http://www.w3.org/2000/svg">
<path d="M16.5 9.516C14.4242 9.64339 12.4666 10.5255 10.996 11.996C9.52545 13.4666 8.64339 15.4242 8.516 17.5H8.484C8.35682 15.4241 7.47483 13.4664 6.0042 11.9958C4.53358 10.5252 2.57588 9.64318 0.5 9.516L0.5 9.484C2.57588 9.35682 4.53358 8.47483 6.0042 7.0042C7.47483 5.53358 8.35682 3.57588 8.484 1.5L8.516 1.5C8.64339 3.57581 9.52545 5.53339 10.996 7.00397C12.4666 8.47455 14.4242 9.35661 16.5 9.484V9.516Z" fill="#3B3885"/>
<path d="M18.5 3.506C17.7216 3.55377 16.9875 3.88455 16.436 4.43601C15.8845 4.98748 15.5538 5.72157 15.506 6.5H15.494C15.4463 5.72154 15.1156 4.98741 14.5641 4.43592C14.0126 3.88444 13.2785 3.55369 12.5 3.506V3.494C13.2785 3.44631 14.0126 3.11556 14.5641 2.56408C15.1156 2.01259 15.4463 1.27846 15.494 0.5L15.506 0.5C15.5538 1.27843 15.8845 2.01252 16.436 2.56399C16.9875 3.11545 17.7216 3.44623 18.5 3.494V3.506Z" fill="#3B3885"/>
</svg>
