<svg width="26" height="27" viewBox="0 0 26 27" fill="none" xmlns="http://www.w3.org/2000/svg">
<path d="M13 0.867188C6.04464 0.867188 0.40625 6.50558 0.40625 13.4609C0.40625 20.4163 6.04464 26.0547 13 26.0547C19.9554 26.0547 25.5938 20.4163 25.5938 13.4609C25.5938 6.50558 19.9554 0.867188 13 0.867188ZM13 3.30469C18.613 3.30469 23.1562 7.84712 23.1562 13.4609C23.1562 19.0739 18.6138 23.6172 13 23.6172C7.38705 23.6172 2.84375 19.0748 2.84375 13.4609C2.84375 7.84798 7.38618 3.30469 13 3.30469ZM20.1197 9.91981L18.9753 8.76616C18.7383 8.52723 18.3525 8.52566 18.1136 8.76271L10.9355 15.883L7.89923 12.8221C7.66223 12.5832 7.27639 12.5816 7.03747 12.8186L5.88377 13.963C5.64484 14.2 5.64327 14.5858 5.88032 14.8248L10.4903 19.4721C10.7273 19.711 11.1131 19.7126 11.352 19.4756L20.1163 10.7816C20.3552 10.5446 20.3567 10.1587 20.1197 9.91981Z" fill="url(#paint0_linear_1602_20011)"/>
<defs>
<linearGradient id="paint0_linear_1602_20011" x1="0.40625" y1="13.4609" x2="25.5938" y2="13.4609" gradientUnits="userSpaceOnUse">
<stop stop-color="#6A67AF"/>
<stop offset="1" stop-color="#9996DE"/>
</linearGradient>
</defs>
</svg>
