<svg width="26" height="27" viewBox="0 0 26 27" fill="none" xmlns="http://www.w3.org/2000/svg">
<path fill-rule="evenodd" clip-rule="evenodd" d="M10.2141 10.3076H14.2376V12.3117C14.8172 11.1591 16.3035 10.1234 18.5363 10.1234C22.8165 10.1234 23.8327 12.4179 23.8327 16.6277V24.4245H19.4993V17.5865C19.4993 15.1891 18.9198 13.8371 17.4443 13.8371C15.3979 13.8371 14.5474 15.2941 14.5474 17.5854V24.4245H10.2141V10.3076ZM2.78352 24.2403H7.11685V10.1234H2.78352V24.2403ZM7.7376 5.52031C7.73776 5.88353 7.66573 6.24315 7.52569 6.57828C7.38564 6.91341 7.18039 7.21737 6.92185 7.47248C6.66254 7.73044 6.35495 7.93478 6.01664 8.07382C5.67833 8.21286 5.31595 8.28388 4.95018 8.28281C4.21308 8.28116 3.50601 7.99062 2.98068 7.47356C2.72317 7.21751 2.51868 6.91321 2.37889 6.57805C2.2391 6.24289 2.16676 5.88346 2.16602 5.52031C2.16602 4.7869 2.45852 4.0849 2.98177 3.56706C3.50578 3.04802 4.21371 2.75714 4.95127 2.75781C5.6901 2.75781 6.3986 3.04923 6.92185 3.56706C7.4451 4.0849 7.7376 4.7869 7.7376 5.52031Z" fill="url(#paint0_linear_1602_20459)"/>
<defs>
<linearGradient id="paint0_linear_1602_20459" x1="2.16602" y1="13.5911" x2="23.8327" y2="13.5911" gradientUnits="userSpaceOnUse">
<stop stop-color="#6A67AF"/>
<stop offset="1" stop-color="#9996DE"/>
</linearGradient>
</defs>
</svg>
