<svg width="40" height="40" viewBox="0 0 40 40" fill="none" xmlns="http://www.w3.org/2000/svg">
<path d="M4.16602 8.3335C4.16602 7.67045 4.42941 7.03457 4.89825 6.56573C5.36709 6.09689 6.00297 5.8335 6.66602 5.8335H33.3327C33.9957 5.8335 34.6316 6.09689 35.1004 6.56573C35.5693 7.03457 35.8327 7.67045 35.8327 8.3335C35.8327 8.99654 35.5693 9.63242 35.1004 10.1013C34.6316 10.5701 33.9957 10.8335 33.3327 10.8335H6.66602C6.00297 10.8335 5.36709 10.5701 4.89825 10.1013C4.42941 9.63242 4.16602 8.99654 4.16602 8.3335ZM6.66602 17.5002C6.00297 17.5002 5.36709 17.7636 4.89825 18.2324C4.42941 18.7012 4.16602 19.3371 4.16602 20.0002C4.16602 20.6632 4.42941 21.2991 4.89825 21.7679C5.36709 22.2368 6.00297 22.5002 6.66602 22.5002H16.666C17.3291 22.5002 17.9649 22.2368 18.4338 21.7679C18.9026 21.2991 19.166 20.6632 19.166 20.0002C19.166 19.3371 18.9026 18.7012 18.4338 18.2324C17.9649 17.7636 17.3291 17.5002 16.666 17.5002H6.66602ZM4.16602 31.6668C4.16602 31.0038 4.42941 30.3679 4.89825 29.8991C5.36709 29.4302 6.00297 29.1668 6.66602 29.1668H8.33268C8.99572 29.1668 9.63161 29.4302 10.1004 29.8991C10.5693 30.3679 10.8327 31.0038 10.8327 31.6668C10.8327 32.3299 10.5693 32.9658 10.1004 33.4346C9.63161 33.9034 8.99572 34.1668 8.33268 34.1668H6.66602C6.00297 34.1668 5.36709 33.9034 4.89825 33.4346C4.42941 32.9658 4.16602 32.3299 4.16602 31.6668ZM20.8327 31.6668C20.8327 31.0038 21.0961 30.3679 21.5649 29.8991C22.0338 29.4302 22.6696 29.1668 23.3327 29.1668H24.9993C25.6624 29.1668 26.2983 29.4302 26.7671 29.8991C27.236 30.3679 27.4993 31.0038 27.4993 31.6668C27.4993 32.3299 27.236 32.9658 26.7671 33.4346C26.2983 33.9034 25.6624 34.1668 24.9993 34.1668H23.3327C22.6696 34.1668 22.0338 33.9034 21.5649 33.4346C21.0961 32.9658 20.8327 32.3299 20.8327 31.6668ZM14.9993 29.1668C14.3363 29.1668 13.7004 29.4302 13.2316 29.8991C12.7627 30.3679 12.4993 31.0038 12.4993 31.6668C12.4993 32.3299 12.7627 32.9658 13.2316 33.4346C13.7004 33.9034 14.3363 34.1668 14.9993 34.1668H16.666C17.3291 34.1668 17.9649 33.9034 18.4338 33.4346C18.9026 32.9658 19.166 32.3299 19.166 31.6668C19.166 31.0038 18.9026 30.3679 18.4338 29.8991C17.9649 29.4302 17.3291 29.1668 16.666 29.1668H14.9993ZM29.166 31.6668C29.166 31.0038 29.4294 30.3679 29.8982 29.8991C30.3671 29.4302 31.003 29.1668 31.666 29.1668H33.3327C33.9957 29.1668 34.6316 29.4302 35.1004 29.8991C35.5693 30.3679 35.8327 31.0038 35.8327 31.6668C35.8327 32.3299 35.5693 32.9658 35.1004 33.4346C34.6316 33.9034 33.9957 34.1668 33.3327 34.1668H31.666C31.003 34.1668 30.3671 33.9034 29.8982 33.4346C29.4294 32.9658 29.166 32.3299 29.166 31.6668ZM29.9093 14.4618C29.7967 14.1332 29.5842 13.8479 29.3015 13.646C29.0188 13.444 28.6801 13.3354 28.3327 13.3354C27.9853 13.3354 27.6465 13.444 27.3638 13.646C27.0811 13.8479 26.8686 14.1332 26.756 14.4618L26.5393 15.0918C26.2927 15.8148 25.8837 16.4716 25.3437 17.0118C24.8037 17.5521 24.1471 17.9614 23.4243 18.2085L22.7943 18.4235C22.4657 18.5361 22.1804 18.7486 21.9785 19.0313C21.7765 19.314 21.668 19.6527 21.668 20.0002C21.668 20.3476 21.7765 20.6863 21.9785 20.969C22.1804 21.2517 22.4657 21.4642 22.7943 21.5768L23.4243 21.7935C24.1473 22.0402 24.8041 22.4492 25.3443 22.9891C25.8846 23.5291 26.294 24.1857 26.541 24.9085L26.756 25.5385C26.8686 25.8672 27.0811 26.1524 27.3638 26.3544C27.6465 26.5563 27.9853 26.6649 28.3327 26.6649C28.6801 26.6649 29.0188 26.5563 29.3015 26.3544C29.5842 26.1524 29.7967 25.8672 29.9093 25.5385L30.126 24.9085C30.3727 24.1856 30.7817 23.5288 31.3217 22.9885C31.8616 22.4482 32.5182 22.0389 33.241 21.7918L33.871 21.5768C34.1997 21.4642 34.4849 21.2517 34.6869 20.969C34.8888 20.6863 34.9974 20.3476 34.9974 20.0002C34.9974 19.6527 34.8888 19.314 34.6869 19.0313C34.4849 18.7486 34.1997 18.5361 33.871 18.4235L33.241 18.2068C32.5181 17.9602 31.8613 17.5512 31.321 17.0112C30.7808 16.4712 30.3714 15.8146 30.1243 15.0918L29.9093 14.4618Z" fill="url(#paint0_linear_1592_19952)"/>
<defs>
<linearGradient id="paint0_linear_1592_19952" x1="4.16602" y1="20.0002" x2="35.8327" y2="20.0002" gradientUnits="userSpaceOnUse">
<stop stop-color="#6C68C0"/>
<stop offset="1" stop-color="#8581E7"/>
</linearGradient>
</defs>
</svg>
