<svg width="40" height="40" viewBox="0 0 40 40" fill="none" xmlns="http://www.w3.org/2000/svg">
<path d="M20.0007 36.6668V10.0002C20.0007 6.85683 20.0006 5.28683 19.024 4.31016C18.0473 3.3335 16.4773 3.3335 13.334 3.3335H10.0007C6.85732 3.3335 5.28732 3.3335 4.31065 4.31016C3.33398 5.28683 3.33398 6.85683 3.33398 10.0002V30.0002C3.33398 33.1435 3.33398 34.7135 4.31065 35.6902C5.28732 36.6668 6.85732 36.6668 10.0007 36.6668H20.0007ZM20.0007 36.6668H30.0007C33.144 36.6668 34.714 36.6668 35.6906 35.6902C36.6673 34.7135 36.6673 33.1435 36.6673 30.0002V20.0002C36.6673 16.8568 36.6673 15.2868 35.6906 14.3102C34.714 13.3335 33.144 13.3335 30.0007 13.3335H20.0007M30.834 26.6668H25.834M30.834 20.0002H25.834M14.1673 23.3335H9.16732M14.1673 16.6668H9.16732M14.1673 10.0002H9.16732" stroke="url(#paint0_linear_1592_19959)" stroke-width="2.8" stroke-linecap="round" stroke-linejoin="round"/>
<defs>
<linearGradient id="paint0_linear_1592_19959" x1="3.33398" y1="20.0002" x2="36.6673" y2="20.0002" gradientUnits="userSpaceOnUse">
<stop stop-color="#6C68C0"/>
<stop offset="1" stop-color="#8581E7"/>
</linearGradient>
</defs>
</svg>
