<svg width="40" height="40" viewBox="0 0 40 40" fill="none" xmlns="http://www.w3.org/2000/svg">
<path d="M4.99935 36.6668C4.08268 36.6668 3.29824 36.3407 2.64602 35.6885C1.99379 35.0363 1.66713 34.2513 1.66602 33.3335V10.0002C1.66602 9.0835 1.99268 8.29905 2.64602 7.64683C3.29935 6.99461 4.08379 6.66794 4.99935 6.66683H16.666C17.1382 6.66683 17.5343 6.82683 17.8543 7.14683C18.1743 7.46683 18.3338 7.86238 18.3327 8.3335C18.3316 8.80461 18.1716 9.20072 17.8527 9.52183C17.5338 9.84294 17.1382 10.0024 16.666 10.0002H4.99935V33.3335H28.3327V25.0002C28.3327 24.5279 28.4927 24.1324 28.8127 23.8135C29.1327 23.4946 29.5282 23.3346 29.9993 23.3335C30.4705 23.3324 30.8666 23.4924 31.1877 23.8135C31.5088 24.1346 31.6682 24.5302 31.666 25.0002V33.3335C31.666 34.2502 31.3399 35.0352 30.6877 35.6885C30.0355 36.3418 29.2505 36.6679 28.3327 36.6668H4.99935ZM9.99935 18.3335C9.52713 18.3335 9.13157 18.4935 8.81268 18.8135C8.49379 19.1335 8.33379 19.5291 8.33268 20.0002V28.3335C8.33268 28.8057 8.49268 29.2018 8.81268 29.5218C9.13268 29.8418 9.52824 30.0013 9.99935 30.0002C10.4705 29.9991 10.8666 29.8391 11.1877 29.5202C11.5088 29.2013 11.6682 28.8057 11.666 28.3335V20.0002C11.666 19.5279 11.506 19.1324 11.186 18.8135C10.866 18.4946 10.4705 18.3346 9.99935 18.3335ZM16.666 13.3335C16.1938 13.3335 15.7982 13.4935 15.4793 13.8135C15.1605 14.1335 15.0005 14.5291 14.9993 15.0002V28.3335C14.9993 28.8057 15.1593 29.2018 15.4793 29.5218C15.7993 29.8418 16.1949 30.0013 16.666 30.0002C17.1371 29.9991 17.5332 29.8391 17.8543 29.5202C18.1755 29.2013 18.3349 28.8057 18.3327 28.3335V15.0002C18.3327 14.5279 18.1727 14.1324 17.8527 13.8135C17.5327 13.4946 17.1371 13.3346 16.666 13.3335ZM23.3327 23.3335C22.8605 23.3335 22.4649 23.4935 22.146 23.8135C21.8271 24.1335 21.6671 24.5291 21.666 25.0002V28.3335C21.666 28.8057 21.826 29.2018 22.146 29.5218C22.466 29.8418 22.8616 30.0013 23.3327 30.0002C23.8038 29.9991 24.1999 29.8391 24.521 29.5202C24.8421 29.2013 25.0016 28.8057 24.9993 28.3335V25.0002C24.9993 24.5279 24.8393 24.1324 24.5193 23.8135C24.1993 23.4946 23.8038 23.3346 23.3327 23.3335ZM29.9993 20.0002C29.166 20.0002 28.3466 19.8752 27.541 19.6252C26.7355 19.3752 25.9855 19.0141 25.291 18.5418L24.666 19.1252C24.3327 19.4307 23.9366 19.5835 23.4777 19.5835C23.0188 19.5835 22.6371 19.4307 22.3327 19.1252C22.0282 18.8196 21.8755 18.4307 21.8743 17.9585C21.8732 17.4863 22.026 17.0974 22.3327 16.7918L22.9993 16.1252C22.5549 15.4585 22.2216 14.7502 21.9993 14.0002C21.7771 13.2502 21.666 12.4724 21.666 11.6668C21.666 9.36127 22.4788 7.39627 24.1043 5.77183C25.7299 4.14739 27.6949 3.33461 29.9993 3.3335H36.666C37.1382 3.3335 37.5343 3.4935 37.8543 3.8135C38.1743 4.1335 38.3338 4.52905 38.3327 5.00016V11.6668C38.3327 13.9724 37.5199 15.9379 35.8943 17.5635C34.2688 19.1891 32.3038 20.0013 29.9993 20.0002ZM29.9993 16.6668C31.3882 16.6668 32.5688 16.1807 33.541 15.2085C34.5132 14.2363 34.9993 13.0557 34.9993 11.6668V6.66683H29.9993C28.6105 6.66683 27.4299 7.15294 26.4577 8.12516C25.4855 9.09738 24.9993 10.2779 24.9993 11.6668C24.9993 12.0279 25.0343 12.3752 25.1043 12.7085C25.1743 13.0418 25.2782 13.3752 25.416 13.7085L29.7493 9.37516C30.0549 9.06961 30.4438 8.91683 30.916 8.91683C31.3882 8.91683 31.7771 9.06961 32.0827 9.37516C32.416 9.7085 32.5827 10.1046 32.5827 10.5635C32.5827 11.0224 32.416 11.4179 32.0827 11.7502L27.7493 16.0835C28.1105 16.2502 28.4788 16.3891 28.8543 16.5002C29.2299 16.6113 29.6116 16.6668 29.9993 16.6668Z" fill="url(#paint0_linear_1592_19964)"/>
<defs>
<linearGradient id="paint0_linear_1592_19964" x1="1.66602" y1="20.0002" x2="38.3327" y2="20.0002" gradientUnits="userSpaceOnUse">
<stop stop-color="#6C68C0"/>
<stop offset="1" stop-color="#8581E7"/>
</linearGradient>
</defs>
</svg>
