<svg width="40" height="40" viewBox="0 0 40 40" fill="none" xmlns="http://www.w3.org/2000/svg">
<path d="M34.9993 13.3335C32.5827 13.3335 31.2327 15.7335 31.7827 17.5168L25.866 23.4502C25.366 23.3002 24.6327 23.3002 24.1327 23.4502L19.8827 19.2002C20.4493 17.4168 19.0993 15.0002 16.666 15.0002C14.2493 15.0002 12.8827 17.4002 13.4493 19.2002L5.84935 26.7835C4.06602 26.2335 1.66602 27.5835 1.66602 30.0002C1.66602 31.8335 3.16602 33.3335 4.99935 33.3335C7.41602 33.3335 8.76601 30.9335 8.21601 29.1502L15.7993 21.5502C16.2993 21.7002 17.0327 21.7002 17.5327 21.5502L21.7827 25.8002C21.216 27.5835 22.566 30.0002 24.9993 30.0002C27.416 30.0002 28.7827 27.6002 28.216 25.8002L34.1493 19.8835C35.9327 20.4335 38.3327 19.0835 38.3327 16.6668C38.3327 14.8335 36.8327 13.3335 34.9993 13.3335Z" fill="url(#paint0_linear_1592_19969)"/>
<path d="M24.9993 15L26.566 11.55L29.9993 10L26.566 8.45L24.9993 5L23.466 8.45L19.9993 10L23.466 11.55L24.9993 15ZM5.83268 18.3333L6.66602 15L9.99935 14.1667L6.66602 13.3333L5.83268 10L4.99935 13.3333L1.66602 14.1667L4.99935 15L5.83268 18.3333Z" fill="url(#paint1_linear_1592_19969)"/>
<defs>
<linearGradient id="paint0_linear_1592_19969" x1="1.66602" y1="23.3335" x2="38.3327" y2="23.3335" gradientUnits="userSpaceOnUse">
<stop stop-color="#6C68C0"/>
<stop offset="1" stop-color="#8581E7"/>
</linearGradient>
<linearGradient id="paint1_linear_1592_19969" x1="1.66602" y1="11.6667" x2="29.9993" y2="11.6667" gradientUnits="userSpaceOnUse">
<stop stop-color="#6C68C0"/>
<stop offset="1" stop-color="#8581E7"/>
</linearGradient>
</defs>
</svg>
