<svg width="61" height="61" viewBox="0 0 61 61" fill="none" xmlns="http://www.w3.org/2000/svg">
<rect width="60.5" height="60.5" rx="30.25" fill="url(#paint0_linear_1602_19217)"/>
<g clip-path="url(#clip0_1602_19217)">
<path fill-rule="evenodd" clip-rule="evenodd" d="M14.25 14.25H16.25V44.25H46.25V46.25H14.25V14.25ZM34.25 37.25C34.25 37.5152 34.3554 37.7696 34.5429 37.9571C34.7304 38.1446 34.9848 38.25 35.25 38.25H43.25C43.5152 38.25 43.7696 38.1446 43.9571 37.9571C44.1446 37.7696 44.25 37.5152 44.25 37.25V29.25C44.25 28.9848 44.1446 28.7304 43.9571 28.5429C43.7696 28.3554 43.5152 28.25 43.25 28.25C42.9848 28.25 42.7304 28.3554 42.5429 28.5429C42.3554 28.7304 42.25 28.9848 42.25 29.25V34.45L35.024 25.616C34.9355 25.508 34.8255 25.4198 34.7008 25.3569C34.5762 25.294 34.4398 25.258 34.3004 25.251C34.161 25.244 34.0217 25.2663 33.8914 25.3164C33.7611 25.3666 33.6428 25.4434 33.544 25.542L28.37 30.716L21.058 20.662C20.898 20.4586 20.6655 20.3251 20.4092 20.2896C20.1529 20.2541 19.8928 20.3193 19.6835 20.4716C19.4743 20.6239 19.3323 20.8513 19.2872 21.1061C19.2422 21.3609 19.2977 21.6232 19.442 21.838L27.442 32.838C27.5269 32.955 27.6362 33.0521 27.7623 33.1228C27.8883 33.1935 28.0282 33.236 28.1723 33.2474C28.3164 33.2588 28.4613 33.2389 28.5969 33.1889C28.7326 33.1389 28.8557 33.0602 28.958 32.958L34.176 27.738L41.14 36.25H35.25C34.9848 36.25 34.7304 36.3554 34.5429 36.5429C34.3554 36.7304 34.25 36.9848 34.25 37.25Z" fill="white"/>
<path fill-rule="evenodd" clip-rule="evenodd" d="M13.75 13.75H16.75V43.75H46.75V46.75H13.75V13.75ZM16.25 44.25V14.25H14.25V46.25H46.25V44.25H16.25ZM35.024 25.616L42.25 34.45V29.25C42.25 28.9848 42.3554 28.7304 42.5429 28.5429C42.7304 28.3554 42.9848 28.25 43.25 28.25C43.5152 28.25 43.7696 28.3554 43.9571 28.5429C44.1446 28.7304 44.25 28.9848 44.25 29.25V37.25C44.25 37.5152 44.1446 37.7696 43.9571 37.9571C43.7696 38.1446 43.5152 38.25 43.25 38.25H35.25C34.9848 38.25 34.7304 38.1446 34.5429 37.9571C34.3554 37.7696 34.25 37.5152 34.25 37.25C34.25 36.9848 34.3554 36.7304 34.5429 36.5429C34.7304 36.3554 34.9848 36.25 35.25 36.25H41.14L34.176 27.738L28.958 32.958C28.8557 33.0602 28.7326 33.1389 28.5969 33.1889C28.4613 33.2389 28.3164 33.2588 28.1723 33.2474C28.0282 33.236 27.8883 33.1935 27.7623 33.1228C27.6362 33.0521 27.5269 32.955 27.442 32.838L19.442 21.838C19.2977 21.6232 19.2422 21.3609 19.2872 21.1061C19.3323 20.8513 19.4743 20.6239 19.6835 20.4716C19.8928 20.3193 20.1529 20.2541 20.4092 20.2896C20.6655 20.3251 20.898 20.4586 21.058 20.662L28.37 30.716L33.544 25.542C33.6428 25.4434 33.7611 25.3666 33.8914 25.3164C34.0217 25.2663 34.161 25.244 34.3004 25.251C34.4398 25.258 34.5762 25.294 34.7008 25.3569C34.8255 25.4198 34.9355 25.508 35.024 25.616ZM28.4302 29.9487L33.1904 25.1884C33.3386 25.0405 33.5165 24.925 33.7119 24.8498C33.9073 24.7746 34.1163 24.7412 34.3254 24.7516C34.5345 24.7621 34.7391 24.8162 34.926 24.9105C35.113 25.0048 35.2781 25.1372 35.4108 25.2991L41.75 33.049V29.25C41.75 28.8522 41.908 28.4706 42.1893 28.1893C42.4706 27.908 42.8522 27.75 43.25 27.75C43.6478 27.75 44.0294 27.908 44.3107 28.1893C44.592 28.4706 44.75 28.8522 44.75 29.25V37.25C44.75 37.6478 44.592 38.0294 44.3107 38.3107C44.0294 38.592 43.6478 38.75 43.25 38.75H35.25C34.8522 38.75 34.4706 38.592 34.1893 38.3107C33.908 38.0294 33.75 37.6478 33.75 37.25C33.75 36.8522 33.908 36.4706 34.1893 36.1893C34.4706 35.908 34.8522 35.75 35.25 35.75H40.0849L34.1389 28.4823L29.3116 33.3115C29.1582 33.4647 28.9732 33.5831 28.7698 33.6581C28.5663 33.733 28.349 33.763 28.1329 33.7459C27.9168 33.7288 27.7069 33.665 27.5178 33.559C27.3288 33.453 27.165 33.3074 27.0376 33.1321M27.0376 33.1321L19.0322 22.1246L19.027 22.1169C18.8105 21.7948 18.7273 21.4013 18.7949 21.0191C18.8624 20.6368 19.0755 20.2957 19.3893 20.0673C19.7032 19.8389 20.0933 19.7411 20.4778 19.7944C20.8622 19.8476 21.2111 20.0478 21.451 20.3529L21.4568 20.3603L28.4302 29.9487" fill="white"/>
</g>
<defs>
<linearGradient id="paint0_linear_1602_19217" x1="0" y1="30.25" x2="60.5" y2="30.25" gradientUnits="userSpaceOnUse">
<stop stop-color="#6A67AF"/>
<stop offset="1" stop-color="#9996DE"/>
</linearGradient>
<clipPath id="clip0_1602_19217">
<rect width="32" height="32" fill="white" transform="translate(14.25 14.25)"/>
</clipPath>
</defs>
</svg>
