<svg width="61" height="61" viewBox="0 0 61 61" fill="none" xmlns="http://www.w3.org/2000/svg">
<rect width="60.5" height="60.5" rx="30.25" fill="url(#paint0_linear_1602_19224)"/>
<g clip-path="url(#clip0_1602_19224)">
<path d="M22 23.3333H32.6667V25.9999H22V23.3333ZM22 28.6666H38V31.3333H22V28.6666ZM22 33.9999H25.9867V36.6666H22V33.9999Z" fill="white"/>
<path d="M32.666 18L28.666 14V16.6667H19.3327C18.6254 16.6667 17.9472 16.9476 17.4471 17.4477C16.947 17.9478 16.666 18.6261 16.666 19.3333V40.6667C16.666 41.3739 16.947 42.0522 17.4471 42.5523C17.9472 43.0524 18.6254 43.3333 19.3327 43.3333H24.666V40.6667H19.3327V19.3333H28.666V22L32.666 18ZM27.3327 42L31.3327 46V43.3333H40.666C41.3733 43.3333 42.0515 43.0524 42.5516 42.5523C43.0517 42.0522 43.3327 41.3739 43.3327 40.6667V19.3333C43.3327 18.6261 43.0517 17.9478 42.5516 17.4477C42.0515 16.9476 41.3733 16.6667 40.666 16.6667H35.3327V19.3333H40.666V40.6667H31.3327V38L27.3327 42Z" fill="white"/>
</g>
<defs>
<linearGradient id="paint0_linear_1602_19224" x1="0" y1="30.25" x2="60.5" y2="30.25" gradientUnits="userSpaceOnUse">
<stop stop-color="#6A67AF"/>
<stop offset="1" stop-color="#9996DE"/>
</linearGradient>
<clipPath id="clip0_1602_19224">
<rect width="32" height="32" fill="white" transform="translate(14.25 14.25)"/>
</clipPath>
</defs>
</svg>
