<svg width="61" height="61" viewBox="0 0 61 61" fill="none" xmlns="http://www.w3.org/2000/svg">
<rect y="0.5" width="60.5" height="60.5" rx="30.25" fill="url(#paint0_linear_1602_20537)"/>
<path fill-rule="evenodd" clip-rule="evenodd" d="M18.25 22.75C18.25 21.6891 18.6714 20.6717 19.4216 19.9216C20.1717 19.1714 21.1891 18.75 22.25 18.75H38.25C39.3109 18.75 40.3283 19.1714 41.0784 19.9216C41.8286 20.6717 42.25 21.6891 42.25 22.75V38.75C42.25 39.8109 41.8286 40.8283 41.0784 41.5784C40.3283 42.3286 39.3109 42.75 38.25 42.75H22.25C21.1891 42.75 20.1717 42.3286 19.4216 41.5784C18.6714 40.8283 18.25 39.8109 18.25 38.75V22.75ZM39.25 34.164C39.2499 33.8993 39.1449 33.6454 38.958 33.458L36.958 31.458C36.8651 31.3649 36.7548 31.291 36.6333 31.2406C36.5118 31.1902 36.3815 31.1642 36.25 31.1642C36.1185 31.1642 35.9882 31.1902 35.8667 31.2406C35.7452 31.291 35.6349 31.3649 35.542 31.458L32.958 34.042C32.8651 34.1351 32.7548 34.209 32.6333 34.2594C32.5118 34.3098 32.3815 34.3358 32.25 34.3358C32.1185 34.3358 31.9882 34.3098 31.8667 34.2594C31.7452 34.209 31.6349 34.1351 31.542 34.042L26.958 29.458C26.8651 29.3649 26.7548 29.291 26.6333 29.2406C26.5118 29.1902 26.3815 29.1642 26.25 29.1642C26.1185 29.1642 25.9882 29.1902 25.8667 29.2406C25.7452 29.291 25.6349 29.3649 25.542 29.458L21.542 33.458C21.3551 33.6454 21.2501 33.8993 21.25 34.164V38.75C21.25 39.0152 21.3554 39.2696 21.5429 39.4571C21.7304 39.6446 21.9848 39.75 22.25 39.75H38.25C38.5152 39.75 38.7696 39.6446 38.9571 39.4571C39.1446 39.2696 39.25 39.0152 39.25 38.75V34.164ZM38.25 24.75C38.25 25.2804 38.0393 25.7891 37.6642 26.1642C37.2891 26.5393 36.7804 26.75 36.25 26.75C35.7196 26.75 35.2109 26.5393 34.8358 26.1642C34.4607 25.7891 34.25 25.2804 34.25 24.75C34.25 24.2196 34.4607 23.7109 34.8358 23.3358C35.2109 22.9607 35.7196 22.75 36.25 22.75C36.7804 22.75 37.2891 22.9607 37.6642 23.3358C38.0393 23.7109 38.25 24.2196 38.25 24.75Z" fill="white"/>
<defs>
<linearGradient id="paint0_linear_1602_20537" x1="0" y1="30.75" x2="60.5" y2="30.75" gradientUnits="userSpaceOnUse">
<stop stop-color="#6A67AF"/>
<stop offset="1" stop-color="#9996DE"/>
</linearGradient>
</defs>
</svg>
