<svg width="61" height="61" viewBox="0 0 61 61" fill="none" xmlns="http://www.w3.org/2000/svg">
<rect y="0.5" width="60.5" height="60.5" rx="30.25" fill="url(#paint0_linear_1602_20544)"/>
<path d="M30.2493 28.0834C31.6638 28.0834 33.0204 27.5215 34.0206 26.5213C35.0208 25.5211 35.5827 24.1646 35.5827 22.7501C35.5827 21.3356 35.0208 19.979 34.0206 18.9788C33.0204 17.9787 31.6638 17.4167 30.2493 17.4167C28.8349 17.4167 27.4783 17.9787 26.4781 18.9788C25.4779 19.979 24.916 21.3356 24.916 22.7501C24.916 24.1646 25.4779 25.5211 26.4781 26.5213C27.4783 27.5215 28.8349 28.0834 30.2493 28.0834ZM21.5827 32.0834C22.4667 32.0834 23.3146 31.7322 23.9397 31.1071C24.5648 30.482 24.916 29.6341 24.916 28.7501C24.916 27.866 24.5648 27.0182 23.9397 26.3931C23.3146 25.7679 22.4667 25.4167 21.5827 25.4167C20.6986 25.4167 19.8508 25.7679 19.2257 26.3931C18.6005 27.0182 18.2493 27.866 18.2493 28.7501C18.2493 29.6341 18.6005 30.482 19.2257 31.1071C19.8508 31.7322 20.6986 32.0834 21.5827 32.0834ZM42.2493 28.7501C42.2493 29.6341 41.8982 30.482 41.273 31.1071C40.6479 31.7322 39.8001 32.0834 38.916 32.0834C38.032 32.0834 37.1841 31.7322 36.559 31.1071C35.9339 30.482 35.5827 29.6341 35.5827 28.7501C35.5827 27.866 35.9339 27.0182 36.559 26.3931C37.1841 25.7679 38.032 25.4167 38.916 25.4167C39.8001 25.4167 40.6479 25.7679 41.273 26.3931C41.8982 27.0182 42.2493 27.866 42.2493 28.7501ZM30.2493 29.4167C32.0175 29.4167 33.7132 30.1191 34.9634 31.3694C36.2136 32.6196 36.916 34.3153 36.916 36.0834V44.0834H23.5827V36.0834C23.5827 34.3153 24.2851 32.6196 25.5353 31.3694C26.7855 30.1191 28.4812 29.4167 30.2493 29.4167ZM20.916 36.0834C20.916 35.1594 21.0493 34.2674 21.3 33.4247L21.0733 33.4434C19.9305 33.5689 18.8742 34.1118 18.107 34.9681C17.3398 35.8244 16.9157 36.9337 16.916 38.0834V44.0834H20.916V36.0834ZM43.5827 44.0834V38.0834C43.5828 36.8946 43.1292 35.7505 42.3145 34.8847C41.4998 34.0189 40.3853 33.4968 39.1987 33.4247C39.448 34.2674 39.5827 35.1594 39.5827 36.0834V44.0834H43.5827Z" fill="white"/>
<defs>
<linearGradient id="paint0_linear_1602_20544" x1="0" y1="30.75" x2="60.5" y2="30.75" gradientUnits="userSpaceOnUse">
<stop stop-color="#6A67AF"/>
<stop offset="1" stop-color="#9996DE"/>
</linearGradient>
</defs>
</svg>
