<svg width="97" height="33" viewBox="0 0 97 33" fill="none" xmlns="http://www.w3.org/2000/svg">
<mask id="path-1-outside-1_1603_20758" maskUnits="userSpaceOnUse" x="0.488281" y="-0.000366211" width="97" height="34" fill="black">
<rect fill="white" x="0.488281" y="-0.000366211" width="97" height="34"/>
<path d="M13.5757 32.2943C11.9552 32.2943 10.4082 31.9833 8.93498 31.3612C7.47809 30.7392 6.20126 29.8798 5.1045 28.783C3.99137 27.6863 3.12378 26.4094 2.50174 24.9525C1.87969 23.4793 1.56867 21.9324 1.56867 20.3118C1.56867 18.6912 1.87969 17.1524 2.50174 15.6955C3.12378 14.2223 3.99137 12.9291 5.1045 11.816C6.20126 10.7192 7.47809 9.8598 8.93498 9.23776C10.4082 8.61571 11.9552 8.30469 13.5757 8.30469C15.18 8.30469 16.7105 8.61571 18.1674 9.23776C19.6407 9.8598 20.9339 10.7192 22.047 11.816C23.1438 12.9127 24.0032 14.1895 24.6252 15.6464C25.2636 17.1033 25.591 18.6339 25.6074 20.2381C25.6074 20.6801 25.4601 21.0566 25.1654 21.3676C24.8707 21.6623 24.4861 21.8096 24.0113 21.8096H5.20272C5.33367 22.8245 5.63651 23.7821 6.11123 24.6824C6.60231 25.5664 7.22436 26.3439 7.97736 27.0151C8.74673 27.6863 9.60613 28.2101 10.5556 28.5866C11.5214 28.9631 12.5281 29.1513 13.5757 29.1513C14.5579 29.1513 15.36 29.0613 15.9821 28.8812C16.5386 28.7339 17.1934 28.4474 17.9464 28.0218C18.2738 27.8254 18.6094 27.7272 18.9531 27.7272C19.3951 27.7272 19.7716 27.9072 20.0826 28.2674C20.3937 28.6111 20.5492 29.004 20.5492 29.446C20.5492 30.0353 20.2873 30.4773 19.7634 30.7719C18.814 31.3121 17.9219 31.6886 17.087 31.9014C16.0394 32.1633 14.8689 32.2943 13.5757 32.2943ZM22.268 19.0595C22.137 17.9791 21.826 16.9806 21.3349 16.0639C20.8602 15.1308 20.23 14.3205 19.4442 13.633C18.6585 12.9455 17.7664 12.4135 16.7678 12.037C15.7693 11.6441 14.7216 11.4476 13.6249 11.4476C12.5117 11.4476 11.4559 11.6441 10.4573 12.037C9.47517 12.4298 8.5994 12.9782 7.83003 13.6821C7.07703 14.3696 6.46317 15.1799 5.98845 16.113C5.51374 17.046 5.21909 18.0282 5.1045 19.0595H22.268ZM37.7146 32.2943C36.094 32.2943 34.5635 31.9914 33.123 31.3858C31.6824 30.7637 30.4138 29.8961 29.317 28.783C28.2203 27.6863 27.3691 26.4094 26.7634 24.9525C26.1577 23.4956 25.8549 21.9569 25.8549 20.3363C25.8549 18.6994 26.1577 17.1524 26.7634 15.6955C27.3691 14.2223 28.2203 12.9291 29.317 11.816C30.4138 10.7028 31.6824 9.84343 33.123 9.23776C34.5635 8.61571 36.094 8.30469 37.7146 8.30469C39.3516 8.30469 40.8903 8.61571 42.3309 9.23776C43.7714 9.84343 45.04 10.7028 46.1368 11.816C47.2172 12.9127 48.0602 14.1977 48.6659 15.671C49.2715 17.1443 49.5744 18.6994 49.5744 20.3363V30.4282C49.5744 30.9029 49.4107 31.3039 49.0833 31.6313C48.7559 31.9587 48.3549 32.1224 47.8801 32.1224C47.4054 32.1224 47.0207 31.9669 46.7261 31.6559C46.4314 31.3285 46.2841 30.9192 46.2841 30.4282L46.2595 28.6602C45.1464 29.8225 43.8614 30.7228 42.4045 31.3612C40.964 31.9833 39.4007 32.2943 37.7146 32.2943ZM37.7146 29.0286C38.926 29.0286 40.0555 28.8076 41.1031 28.3656C42.1672 27.9072 43.0839 27.2688 43.8532 26.4504C44.6226 25.6482 45.2201 24.7234 45.6457 23.6757C46.0713 22.6117 46.2841 21.4986 46.2841 20.3363C46.2841 19.1577 46.0713 18.0364 45.6457 16.9724C45.2201 15.892 44.6226 14.9589 43.8532 14.1732C43.0675 13.3711 42.1508 12.749 41.1031 12.307C40.0555 11.8487 38.926 11.6195 37.7146 11.6195C36.5197 11.6195 35.3983 11.8487 34.3507 12.307C33.3194 12.749 32.4109 13.3711 31.6252 14.1732C30.8394 14.9753 30.2256 15.9084 29.7836 16.9724C29.358 18.0364 29.1452 19.1577 29.1452 20.3363C29.1452 21.4986 29.358 22.6117 29.7836 23.6757C30.2256 24.7234 30.8394 25.6482 31.6252 26.4504C32.4109 27.2688 33.3194 27.9072 34.3507 28.3656C35.3983 28.8076 36.5197 29.0286 37.7146 29.0286ZM64.1371 32.3188C62.4837 32.3188 60.9205 32.0242 59.4472 31.4349C57.9903 30.8292 56.7135 29.9944 55.6167 28.9303C54.5036 27.8499 53.636 26.5977 53.014 25.1735C52.3919 23.733 52.0809 22.1943 52.0809 20.5573V2.90273C52.0809 2.44439 52.2446 2.05152 52.572 1.72413C52.8994 1.39673 53.2841 1.23304 53.726 1.23304C54.1844 1.23304 54.5772 1.39673 54.9046 1.72413C55.2484 2.03515 55.4203 2.42802 55.4203 2.90273V8.52568H66.2487C66.7071 8.52568 67.1 8.68937 67.4274 9.01677C67.7547 9.34416 67.9184 9.73703 67.9184 10.1954C67.9184 10.6374 67.7547 11.0139 67.4274 11.3249C67.1163 11.6195 66.7235 11.7669 66.2487 11.7669H55.4203V20.5819C55.4203 21.7605 55.6413 22.8654 56.0832 23.8967C56.5252 24.928 57.1473 25.8283 57.9494 26.5977C58.7515 27.367 59.6764 27.9727 60.724 28.4147C61.788 28.8403 62.9257 29.0531 64.1371 29.0531C65.2338 29.0531 66.2487 28.8894 67.1818 28.562C68.1149 28.2183 68.9906 27.6863 69.8091 26.966C70.0383 26.7859 70.2429 26.655 70.423 26.5731C70.6031 26.4749 70.824 26.4258 71.086 26.4258C71.4788 26.4258 71.8144 26.5813 72.0927 26.8923C72.3873 27.187 72.5347 27.5471 72.5347 27.9727C72.5347 28.2183 72.4774 28.4638 72.3628 28.7094C72.2646 28.9549 72.1172 29.1677 71.9208 29.3478C70.8895 30.3299 69.7109 31.0748 68.385 31.5822C67.0754 32.0733 65.6594 32.3188 64.1371 32.3188ZM83.8316 32.2943C82.211 32.2943 80.6723 31.9914 79.2154 31.3858C77.7749 30.7637 76.4981 29.8961 75.3849 28.783C74.2718 27.6863 73.4042 26.4094 72.7822 24.9525C72.1601 23.4956 71.8491 21.9569 71.8491 20.3363C71.8491 18.6994 72.1601 17.1443 72.7822 15.671C73.4042 14.1977 74.2718 12.9127 75.3849 11.816C76.4981 10.7028 77.7749 9.84343 79.2154 9.23776C80.6723 8.61571 82.211 8.30469 83.8316 8.30469C85.4686 8.30469 87.0155 8.61571 88.4724 9.23776C89.9457 9.8598 91.2307 10.7192 92.3274 11.816C93.4242 12.9291 94.2754 14.2223 94.8811 15.6955C95.5031 17.1524 95.8141 18.6994 95.8141 20.3363C95.8141 21.9569 95.5031 23.4956 94.8811 24.9525C94.2754 26.4094 93.4242 27.6863 92.3274 28.783C91.2307 29.8798 89.9457 30.7392 88.4724 31.3612C87.0155 31.9833 85.4686 32.2943 83.8316 32.2943ZM83.8316 29.0286C85.043 29.0286 86.1807 28.8076 87.2447 28.3656C88.3087 27.9072 89.2418 27.2688 90.0439 26.4504C90.8296 25.6482 91.4435 24.7234 91.8855 23.6757C92.3274 22.6117 92.5484 21.4986 92.5484 20.3363C92.5484 19.1577 92.3274 18.0364 91.8855 16.9724C91.4435 15.9084 90.8296 14.9753 90.0439 14.1732C89.2418 13.3711 88.3005 12.749 87.2201 12.307C86.1561 11.8487 85.0266 11.6195 83.8316 11.6195C82.6366 11.6195 81.5071 11.8487 80.4431 12.307C79.3955 12.749 78.4706 13.3711 77.6685 14.1732C76.8664 14.9753 76.2361 15.9084 75.7778 16.9724C75.3358 18.0364 75.1148 19.1577 75.1148 20.3363C75.1148 21.4986 75.3358 22.6117 75.7778 23.6757C76.2361 24.7234 76.8664 25.6482 77.6685 26.4504C78.4706 27.2688 79.3955 27.9072 80.4431 28.3656C81.5071 28.8076 82.6366 29.0286 83.8316 29.0286Z"/>
</mask>
<path d="M13.5757 32.2943C11.9552 32.2943 10.4082 31.9833 8.93498 31.3612C7.47809 30.7392 6.20126 29.8798 5.1045 28.783C3.99137 27.6863 3.12378 26.4094 2.50174 24.9525C1.87969 23.4793 1.56867 21.9324 1.56867 20.3118C1.56867 18.6912 1.87969 17.1524 2.50174 15.6955C3.12378 14.2223 3.99137 12.9291 5.1045 11.816C6.20126 10.7192 7.47809 9.8598 8.93498 9.23776C10.4082 8.61571 11.9552 8.30469 13.5757 8.30469C15.18 8.30469 16.7105 8.61571 18.1674 9.23776C19.6407 9.8598 20.9339 10.7192 22.047 11.816C23.1438 12.9127 24.0032 14.1895 24.6252 15.6464C25.2636 17.1033 25.591 18.6339 25.6074 20.2381C25.6074 20.6801 25.4601 21.0566 25.1654 21.3676C24.8707 21.6623 24.4861 21.8096 24.0113 21.8096H5.20272C5.33367 22.8245 5.63651 23.7821 6.11123 24.6824C6.60231 25.5664 7.22436 26.3439 7.97736 27.0151C8.74673 27.6863 9.60613 28.2101 10.5556 28.5866C11.5214 28.9631 12.5281 29.1513 13.5757 29.1513C14.5579 29.1513 15.36 29.0613 15.9821 28.8812C16.5386 28.7339 17.1934 28.4474 17.9464 28.0218C18.2738 27.8254 18.6094 27.7272 18.9531 27.7272C19.3951 27.7272 19.7716 27.9072 20.0826 28.2674C20.3937 28.6111 20.5492 29.004 20.5492 29.446C20.5492 30.0353 20.2873 30.4773 19.7634 30.7719C18.814 31.3121 17.9219 31.6886 17.087 31.9014C16.0394 32.1633 14.8689 32.2943 13.5757 32.2943ZM22.268 19.0595C22.137 17.9791 21.826 16.9806 21.3349 16.0639C20.8602 15.1308 20.23 14.3205 19.4442 13.633C18.6585 12.9455 17.7664 12.4135 16.7678 12.037C15.7693 11.6441 14.7216 11.4476 13.6249 11.4476C12.5117 11.4476 11.4559 11.6441 10.4573 12.037C9.47517 12.4298 8.5994 12.9782 7.83003 13.6821C7.07703 14.3696 6.46317 15.1799 5.98845 16.113C5.51374 17.046 5.21909 18.0282 5.1045 19.0595H22.268ZM37.7146 32.2943C36.094 32.2943 34.5635 31.9914 33.123 31.3858C31.6824 30.7637 30.4138 29.8961 29.317 28.783C28.2203 27.6863 27.3691 26.4094 26.7634 24.9525C26.1577 23.4956 25.8549 21.9569 25.8549 20.3363C25.8549 18.6994 26.1577 17.1524 26.7634 15.6955C27.3691 14.2223 28.2203 12.9291 29.317 11.816C30.4138 10.7028 31.6824 9.84343 33.123 9.23776C34.5635 8.61571 36.094 8.30469 37.7146 8.30469C39.3516 8.30469 40.8903 8.61571 42.3309 9.23776C43.7714 9.84343 45.04 10.7028 46.1368 11.816C47.2172 12.9127 48.0602 14.1977 48.6659 15.671C49.2715 17.1443 49.5744 18.6994 49.5744 20.3363V30.4282C49.5744 30.9029 49.4107 31.3039 49.0833 31.6313C48.7559 31.9587 48.3549 32.1224 47.8801 32.1224C47.4054 32.1224 47.0207 31.9669 46.7261 31.6559C46.4314 31.3285 46.2841 30.9192 46.2841 30.4282L46.2595 28.6602C45.1464 29.8225 43.8614 30.7228 42.4045 31.3612C40.964 31.9833 39.4007 32.2943 37.7146 32.2943ZM37.7146 29.0286C38.926 29.0286 40.0555 28.8076 41.1031 28.3656C42.1672 27.9072 43.0839 27.2688 43.8532 26.4504C44.6226 25.6482 45.2201 24.7234 45.6457 23.6757C46.0713 22.6117 46.2841 21.4986 46.2841 20.3363C46.2841 19.1577 46.0713 18.0364 45.6457 16.9724C45.2201 15.892 44.6226 14.9589 43.8532 14.1732C43.0675 13.3711 42.1508 12.749 41.1031 12.307C40.0555 11.8487 38.926 11.6195 37.7146 11.6195C36.5197 11.6195 35.3983 11.8487 34.3507 12.307C33.3194 12.749 32.4109 13.3711 31.6252 14.1732C30.8394 14.9753 30.2256 15.9084 29.7836 16.9724C29.358 18.0364 29.1452 19.1577 29.1452 20.3363C29.1452 21.4986 29.358 22.6117 29.7836 23.6757C30.2256 24.7234 30.8394 25.6482 31.6252 26.4504C32.4109 27.2688 33.3194 27.9072 34.3507 28.3656C35.3983 28.8076 36.5197 29.0286 37.7146 29.0286ZM64.1371 32.3188C62.4837 32.3188 60.9205 32.0242 59.4472 31.4349C57.9903 30.8292 56.7135 29.9944 55.6167 28.9303C54.5036 27.8499 53.636 26.5977 53.014 25.1735C52.3919 23.733 52.0809 22.1943 52.0809 20.5573V2.90273C52.0809 2.44439 52.2446 2.05152 52.572 1.72413C52.8994 1.39673 53.2841 1.23304 53.726 1.23304C54.1844 1.23304 54.5772 1.39673 54.9046 1.72413C55.2484 2.03515 55.4203 2.42802 55.4203 2.90273V8.52568H66.2487C66.7071 8.52568 67.1 8.68937 67.4274 9.01677C67.7547 9.34416 67.9184 9.73703 67.9184 10.1954C67.9184 10.6374 67.7547 11.0139 67.4274 11.3249C67.1163 11.6195 66.7235 11.7669 66.2487 11.7669H55.4203V20.5819C55.4203 21.7605 55.6413 22.8654 56.0832 23.8967C56.5252 24.928 57.1473 25.8283 57.9494 26.5977C58.7515 27.367 59.6764 27.9727 60.724 28.4147C61.788 28.8403 62.9257 29.0531 64.1371 29.0531C65.2338 29.0531 66.2487 28.8894 67.1818 28.562C68.1149 28.2183 68.9906 27.6863 69.8091 26.966C70.0383 26.7859 70.2429 26.655 70.423 26.5731C70.6031 26.4749 70.824 26.4258 71.086 26.4258C71.4788 26.4258 71.8144 26.5813 72.0927 26.8923C72.3873 27.187 72.5347 27.5471 72.5347 27.9727C72.5347 28.2183 72.4774 28.4638 72.3628 28.7094C72.2646 28.9549 72.1172 29.1677 71.9208 29.3478C70.8895 30.3299 69.7109 31.0748 68.385 31.5822C67.0754 32.0733 65.6594 32.3188 64.1371 32.3188ZM83.8316 32.2943C82.211 32.2943 80.6723 31.9914 79.2154 31.3858C77.7749 30.7637 76.4981 29.8961 75.3849 28.783C74.2718 27.6863 73.4042 26.4094 72.7822 24.9525C72.1601 23.4956 71.8491 21.9569 71.8491 20.3363C71.8491 18.6994 72.1601 17.1443 72.7822 15.671C73.4042 14.1977 74.2718 12.9127 75.3849 11.816C76.4981 10.7028 77.7749 9.84343 79.2154 9.23776C80.6723 8.61571 82.211 8.30469 83.8316 8.30469C85.4686 8.30469 87.0155 8.61571 88.4724 9.23776C89.9457 9.8598 91.2307 10.7192 92.3274 11.816C93.4242 12.9291 94.2754 14.2223 94.8811 15.6955C95.5031 17.1524 95.8141 18.6994 95.8141 20.3363C95.8141 21.9569 95.5031 23.4956 94.8811 24.9525C94.2754 26.4094 93.4242 27.6863 92.3274 28.783C91.2307 29.8798 89.9457 30.7392 88.4724 31.3612C87.0155 31.9833 85.4686 32.2943 83.8316 32.2943ZM83.8316 29.0286C85.043 29.0286 86.1807 28.8076 87.2447 28.3656C88.3087 27.9072 89.2418 27.2688 90.0439 26.4504C90.8296 25.6482 91.4435 24.7234 91.8855 23.6757C92.3274 22.6117 92.5484 21.4986 92.5484 20.3363C92.5484 19.1577 92.3274 18.0364 91.8855 16.9724C91.4435 15.9084 90.8296 14.9753 90.0439 14.1732C89.2418 13.3711 88.3005 12.749 87.2201 12.307C86.1561 11.8487 85.0266 11.6195 83.8316 11.6195C82.6366 11.6195 81.5071 11.8487 80.4431 12.307C79.3955 12.749 78.4706 13.3711 77.6685 14.1732C76.8664 14.9753 76.2361 15.9084 75.7778 16.9724C75.3358 18.0364 75.1148 19.1577 75.1148 20.3363C75.1148 21.4986 75.3358 22.6117 75.7778 23.6757C76.2361 24.7234 76.8664 25.6482 77.6685 26.4504C78.4706 27.2688 79.3955 27.9072 80.4431 28.3656C81.5071 28.8076 82.6366 29.0286 83.8316 29.0286Z" fill="url(#paint0_linear_1603_20758)"/>
<path d="M8.93498 31.3612L8.66387 31.9962L8.66642 31.9973L8.93498 31.3612ZM5.1045 28.783L5.59271 28.2948L5.58907 28.2912L5.1045 28.783ZM2.50174 24.9525L1.86568 25.2211L1.86677 25.2236L2.50174 24.9525ZM2.50174 15.6955L3.13671 15.9667L3.13779 15.9641L2.50174 15.6955ZM5.1045 11.816L4.6163 11.3278L5.1045 11.816ZM8.93498 9.23775L8.66642 8.6017L8.66387 8.60279L8.93498 9.23775ZM18.1674 9.23775L17.8963 9.87272L17.8989 9.8738L18.1674 9.23775ZM22.047 11.816L22.5352 11.3277L22.5316 11.3242L22.047 11.816ZM24.6252 15.6464L23.9902 15.9176L23.9928 15.9235L24.6252 15.6464ZM25.6074 20.2381H26.2978L26.2978 20.2311L25.6074 20.2381ZM25.1654 21.3676L25.6536 21.8558L25.6602 21.8492L25.6666 21.8424L25.1654 21.3676ZM5.20272 21.8096V21.1192H4.41749L4.51797 21.8979L5.20272 21.8096ZM6.11123 24.6824L5.5005 25.0045L5.50402 25.0111L5.50769 25.0177L6.11123 24.6824ZM7.97736 27.0151L7.51795 27.5305L7.5235 27.5354L7.97736 27.0151ZM10.5556 28.5866L10.3011 29.2284L10.3048 29.2299L10.5556 28.5866ZM15.9821 28.8812L15.8054 28.2138L15.7977 28.2158L15.7901 28.218L15.9821 28.8812ZM17.9464 28.0218L18.2861 28.6229L18.294 28.6185L18.3016 28.6139L17.9464 28.0218ZM20.0826 28.2674L19.5601 28.7186L19.5653 28.7247L19.5707 28.7306L20.0826 28.2674ZM19.7634 30.7719L19.425 30.1702L19.422 30.1718L19.7634 30.7719ZM17.087 31.9014L17.2545 32.5712L17.2576 32.5704L17.087 31.9014ZM22.268 19.0595V19.7499H23.0471L22.9534 18.9764L22.268 19.0595ZM21.3349 16.0639L20.7196 16.3769L20.7229 16.3835L20.7263 16.3899L21.3349 16.0639ZM16.7678 12.037L16.515 12.6795L16.5242 12.683L16.7678 12.037ZM10.4573 12.037L10.2046 11.3945L10.2009 11.3959L10.4573 12.037ZM7.83003 13.6821L8.29556 14.192L8.29607 14.1915L7.83003 13.6821ZM5.1045 19.0595L4.4183 18.9832L4.33312 19.7499H5.1045V19.0595ZM13.5757 31.6039C12.0461 31.6039 10.5906 31.3108 9.20353 30.7252L8.66642 31.9973C10.2258 32.6557 11.8642 32.9847 13.5757 32.9847V31.6039ZM9.20608 30.7263C7.8285 30.1381 6.62578 29.3279 5.5927 28.2948L4.6163 29.2712C5.77673 30.4317 7.12767 31.3403 8.66387 31.9962L9.20608 30.7263ZM5.58907 28.2912C4.54085 27.2584 3.72395 26.0568 3.1367 24.6814L1.86677 25.2236C2.52361 26.762 3.44188 28.1141 4.61993 29.2748L5.58907 28.2912ZM3.13779 24.684C2.55212 23.2969 2.25909 21.8414 2.25909 20.3118H0.878253C0.878253 22.0233 1.20727 23.6617 1.86569 25.2211L3.13779 24.684ZM2.25909 20.3118C2.25909 18.7822 2.5521 17.3358 3.1367 15.9667L1.86677 15.4244C1.20728 16.969 0.878253 18.6002 0.878253 20.3118H2.25909ZM3.13779 15.9641C3.72574 14.5716 4.54358 13.3533 5.5927 12.3042L4.6163 11.3278C3.43916 12.5049 2.52182 13.873 1.86569 15.427L3.13779 15.9641ZM5.5927 12.3042C6.62578 11.2711 7.8285 10.4609 9.20608 9.87272L8.66387 8.60279C7.12767 9.25869 5.77673 10.1673 4.6163 11.3278L5.5927 12.3042ZM9.20353 9.8738C10.5906 9.28813 12.0461 8.99511 13.5757 8.99511V7.61427C11.8642 7.61427 10.2258 7.94329 8.66642 8.60171L9.20353 9.8738ZM13.5757 8.99511C15.088 8.99511 16.5262 9.28774 17.8963 9.87272L18.4385 8.60279C16.8948 7.94368 15.2719 7.61427 13.5757 7.61427V8.99511ZM17.8989 9.8738C19.2936 10.4627 20.513 11.2738 21.5624 12.3078L22.5316 11.3242C21.3547 10.1646 19.9878 9.25692 18.436 8.60171L17.8989 9.8738ZM21.5588 12.3042C22.5919 13.3372 23.4021 14.54 23.9902 15.9175L25.2602 15.3753C24.6043 13.8391 23.6956 12.4882 22.5352 11.3278L21.5588 12.3042ZM23.9928 15.9235C24.5936 17.2945 24.9016 18.7331 24.917 20.2451L26.2978 20.2311C26.2805 18.5347 25.9336 16.9122 25.2576 15.3693L23.9928 15.9235ZM24.917 20.2381C24.917 20.5096 24.8332 20.7144 24.6642 20.8928L25.6666 21.8424C26.087 21.3987 26.2978 20.8505 26.2978 20.2381H24.917ZM24.6772 20.8794C24.5304 21.0262 24.3307 21.1192 24.0113 21.1192V22.5C24.6414 22.5 25.2111 22.2983 25.6536 21.8558L24.6772 20.8794ZM24.0113 21.1192H5.20272V22.5H24.0113V21.1192ZM4.51797 21.8979C4.65941 22.9941 4.98716 24.0309 5.5005 25.0045L6.72195 24.3604C6.28586 23.5333 6.00793 22.6549 5.88746 21.7212L4.51797 21.8979ZM5.50769 25.0177C6.03629 25.9692 6.70701 26.8077 7.51797 27.5305L8.43674 26.4997C7.7417 25.8802 7.16834 25.1636 6.71476 24.3471L5.50769 25.0177ZM7.5235 27.5354C8.35196 28.2581 9.27878 28.823 10.3011 29.2284L10.8101 27.9448C9.93347 27.5972 9.14149 27.1144 8.43122 26.4948L7.5235 27.5354ZM10.3048 29.2299C11.3514 29.6378 12.4432 29.8418 13.5757 29.8418V28.4609C12.613 28.4609 11.6913 28.2883 10.8063 27.9433L10.3048 29.2299ZM13.5757 29.8418C14.593 29.8418 15.4663 29.7493 16.1741 29.5444L15.7901 28.218C15.2538 28.3733 14.5228 28.4609 13.5757 28.4609V29.8418ZM16.1587 29.5487C16.7931 29.3807 17.5048 29.0645 18.2861 28.6229L17.6067 27.4208C16.8821 27.8304 16.2842 28.0871 15.8054 28.2138L16.1587 29.5487ZM18.3016 28.6139C18.5339 28.4745 18.748 28.4176 18.9531 28.4176V27.0368C18.4707 27.0368 18.0137 27.1763 17.5912 27.4298L18.3016 28.6139ZM18.9531 28.4176C19.1777 28.4176 19.3689 28.4972 19.5601 28.7186L20.6052 27.8161C20.1744 27.3173 19.6126 27.0368 18.9531 27.0368V28.4176ZM19.5707 28.7306C19.773 28.9542 19.8588 29.1841 19.8588 29.446H21.2396C21.2396 28.8239 21.0143 28.2681 20.5946 27.8042L19.5707 28.7306ZM19.8588 29.446C19.8588 29.7798 19.7368 29.9948 19.425 30.1702L20.1019 31.3737C20.8378 30.9598 21.2396 30.2908 21.2396 29.446H19.8588ZM19.422 30.1718C18.5126 30.6892 17.6781 31.0383 16.9165 31.2324L17.2576 32.5704C18.1657 32.339 19.1154 31.935 20.1049 31.372L19.422 30.1718ZM16.9196 31.2316C15.9362 31.4775 14.8232 31.6039 13.5757 31.6039V32.9847C14.9147 32.9847 16.1425 32.8492 17.2545 32.5712L16.9196 31.2316ZM22.9534 18.9764C22.8126 17.815 22.4769 16.7335 21.9435 15.7378L20.7263 16.3899C21.1751 17.2276 21.4614 18.1432 21.5826 19.1426L22.9534 18.9764ZM21.9503 15.7508C21.4358 14.7395 20.751 13.859 19.8989 13.1134L18.9896 14.1526C19.7089 14.782 20.2847 15.5221 20.7196 16.3769L21.9503 15.7508ZM19.8989 13.1134C19.0495 12.3702 18.0856 11.7959 17.0114 11.3909L16.5242 12.683C17.4472 13.031 18.2675 13.5207 18.9896 14.1526L19.8989 13.1134ZM17.0206 11.3945C15.9397 10.9692 14.8062 10.7572 13.6249 10.7572V12.1381C14.6371 12.1381 15.5988 12.3189 16.515 12.6794L17.0206 11.3945ZM13.6249 10.7572C12.4285 10.7572 11.2866 10.9687 10.2046 11.3945L10.7101 12.6794C11.6252 12.3194 12.595 12.1381 13.6249 12.1381V10.7572ZM10.2009 11.3959C9.14266 11.8192 8.19563 12.4118 7.36399 13.1727L8.29607 14.1915C9.00317 13.5446 9.80768 13.0404 10.7138 12.678L10.2009 11.3959ZM7.3645 13.1722C6.54847 13.9173 5.88448 14.7948 5.3731 15.7999L6.60381 16.426C7.04186 15.5651 7.60559 14.8219 8.29556 14.192L7.3645 13.1722ZM5.3731 15.7999C4.86106 16.8063 4.54215 17.8687 4.4183 18.9832L5.7907 19.1357C5.89603 18.1878 6.16642 17.2857 6.60381 16.426L5.3731 15.7999ZM5.1045 19.7499H22.268V18.3691H5.1045V19.7499ZM33.123 31.3858L32.8493 32.0197L32.8554 32.0222L33.123 31.3858ZM29.317 28.783L29.8089 28.2984L29.8052 28.2948L29.317 28.783ZM26.7634 15.6955L27.4009 15.9606L27.402 15.9581L26.7634 15.6955ZM33.123 9.23775L33.3906 9.87424L33.3967 9.8716L33.123 9.23775ZM42.3309 9.23775L42.0571 9.87163L42.0633 9.87421L42.3309 9.23775ZM46.1368 11.816L46.6286 11.3314L46.6286 11.3314L46.1368 11.816ZM46.7261 31.6559L46.2129 32.1177L46.2188 32.1243L46.2249 32.1307L46.7261 31.6559ZM46.2841 30.4282H46.9746L46.9745 30.4186L46.2841 30.4282ZM46.2595 28.6602L46.9499 28.6507L46.9265 26.9657L45.7609 28.1827L46.2595 28.6602ZM42.4045 31.3612L42.6782 31.9951L42.6816 31.9936L42.4045 31.3612ZM41.1031 28.3656L41.3715 29.0017L41.3763 28.9997L41.1031 28.3656ZM43.8532 26.4504L43.3549 25.9724L43.3502 25.9775L43.8532 26.4504ZM45.6457 23.6757L46.2853 23.9356L46.2867 23.9321L45.6457 23.6757ZM45.6457 16.9724L45.0033 17.2254L45.0047 17.2288L45.6457 16.9724ZM43.8532 14.1732L44.3465 13.6901L44.3464 13.69L43.8532 14.1732ZM41.1031 12.307L40.8264 12.9396L40.8348 12.9432L41.1031 12.307ZM34.3507 12.307L34.6227 12.9417L34.6274 12.9396L34.3507 12.307ZM29.7836 16.9724L29.1459 16.7075L29.1425 16.716L29.7836 16.9724ZM29.7836 23.6757L29.1424 23.9322L29.1475 23.9441L29.7836 23.6757ZM31.6252 26.4504L32.1232 25.9722L32.1184 25.9672L31.6252 26.4504ZM34.3507 28.3656L34.0702 28.9966L34.0823 29.0017L34.3507 28.3656ZM37.7146 31.6039C36.1825 31.6039 34.7432 31.3181 33.3906 30.7493L32.8554 32.0222C34.3838 32.6648 36.0056 32.9847 37.7146 32.9847V31.6039ZM33.3967 30.7519C32.0374 30.165 30.8429 29.348 29.8089 28.2984L28.8252 29.2676C29.9847 30.4443 31.3275 31.3625 32.8493 32.0196L33.3967 30.7519ZM29.8052 28.2948C28.7735 27.2631 27.9725 26.0624 27.4009 24.6875L26.1259 25.2176C26.7656 26.7564 27.6671 28.1094 28.8288 29.2712L29.8052 28.2948ZM27.4009 24.6875C26.8311 23.3169 26.5453 21.8685 26.5453 20.3363H25.1645C25.1645 22.0453 25.4843 23.6744 26.1259 25.2176L27.4009 24.6875ZM26.5453 20.3363C26.5453 18.7868 26.8315 17.3303 27.4009 15.9606L26.1259 15.4305C25.484 16.9746 25.1645 18.6119 25.1645 20.3363H26.5453ZM27.402 15.9581C27.9743 14.566 28.7762 13.3486 29.8089 12.3005L28.8252 11.3314C27.6644 12.5096 26.7639 13.8786 26.1248 15.433L27.402 15.9581ZM29.8089 12.3005C30.8416 11.2523 32.0341 10.4446 33.3906 9.87421L32.8554 8.6013C31.3308 9.24231 29.986 10.1533 28.8252 11.3314L29.8089 12.3005ZM33.3967 9.8716C34.7479 9.28811 36.185 8.99511 37.7146 8.99511V7.61427C36.0031 7.61427 34.3791 7.94331 32.8493 8.60391L33.3967 9.8716ZM37.7146 8.99511C39.2616 8.99511 40.7068 9.28849 42.0571 9.8716L42.6046 8.60391C41.0739 7.94293 39.4416 7.61427 37.7146 7.61427V8.99511ZM42.0633 9.87421C43.4197 10.4446 44.6122 11.2523 45.645 12.3005L46.6286 11.3314C45.4678 10.1533 44.123 9.24231 42.5984 8.6013L42.0633 9.87421ZM45.6449 12.3005C46.6603 13.3312 47.4545 14.5401 48.0273 15.9335L49.3044 15.4085C48.6659 13.8553 47.774 12.4942 46.6286 11.3314L45.6449 12.3005ZM48.0273 15.9335C48.5978 17.3212 48.884 18.7869 48.884 20.3363H50.2648C50.2648 18.6119 49.9453 16.9673 49.3044 15.4085L48.0273 15.9335ZM48.884 20.3363V30.4282H50.2648V20.3363H48.884ZM48.884 30.4282C48.884 30.725 48.7894 30.9488 48.5951 31.1431L49.5715 32.1195C50.032 31.659 50.2648 31.0808 50.2648 30.4282H48.884ZM48.5951 31.1431C48.4008 31.3374 48.1769 31.432 47.8801 31.432V32.8128C48.5328 32.8128 49.111 32.58 49.5715 32.1195L48.5951 31.1431ZM47.8801 31.432C47.5723 31.432 47.3768 31.3388 47.2273 31.181L46.2249 32.1307C46.6647 32.595 47.2385 32.8128 47.8801 32.8128V31.432ZM47.2393 31.194C47.0721 31.0083 46.9745 30.7698 46.9745 30.4282H45.5937C45.5937 31.0687 45.7908 31.6487 46.2129 32.1177L47.2393 31.194ZM46.9745 30.4186L46.9499 28.6507L45.5692 28.6698L45.5937 30.4377L46.9745 30.4186ZM45.7609 28.1827C44.71 29.28 43.5 30.1274 42.1274 30.7289L42.6816 31.9936C44.2228 31.3182 45.5829 30.3649 46.7582 29.1378L45.7609 28.1827ZM42.1308 30.7274C40.783 31.3094 39.3137 31.6039 37.7146 31.6039V32.9847C39.4877 32.9847 41.145 32.6572 42.6782 31.9951L42.1308 30.7274ZM37.7146 29.719C39.0121 29.719 40.2335 29.4818 41.3715 29.0017L40.8348 27.7295C39.8775 28.1333 38.8399 28.3381 37.7146 28.3381V29.719ZM41.3763 28.9997C42.5244 28.5051 43.5201 27.8128 44.3563 26.9232L43.3502 25.9775C42.6476 26.7249 41.8099 27.3094 40.83 27.7315L41.3763 28.9997ZM44.3515 26.9283C45.1824 26.062 45.8274 25.0628 46.2853 23.9356L45.006 23.4159C44.6127 24.384 44.0627 25.2345 43.355 25.9724L44.3515 26.9283ZM46.2867 23.9321C46.7454 22.7854 46.9745 21.5851 46.9745 20.3363H45.5937C45.5937 21.412 45.3972 22.438 45.0047 23.4193L46.2867 23.9321ZM46.9745 20.3363C46.9745 19.0724 46.7459 17.8639 46.2867 16.716L45.0047 17.2288C45.3967 18.2089 45.5937 19.243 45.5937 20.3363H46.9745ZM46.2881 16.7193C45.8306 15.558 45.184 14.5455 44.3465 13.6901L43.3599 14.6562C44.0611 15.3724 44.6096 16.226 45.0033 17.2254L46.2881 16.7193ZM44.3464 13.69C43.4958 12.8217 42.5024 12.148 41.3715 11.6709L40.8348 12.9432C41.7992 13.35 42.6392 13.9205 43.36 14.6563L44.3464 13.69ZM41.3799 11.6745C40.2398 11.1758 39.0155 10.9291 37.7146 10.9291V12.3099C38.8365 12.3099 39.8711 12.5217 40.8264 12.9396L41.3799 11.6745ZM37.7146 10.9291C36.4288 10.9291 35.2128 11.1763 34.074 11.6745L34.6274 12.9396C35.5839 12.5211 36.6105 12.3099 37.7146 12.3099V10.9291ZM34.0787 11.6725C32.9644 12.15 31.9808 12.8235 31.1319 13.69L32.1184 14.6563C32.841 13.9186 33.6744 13.3481 34.6227 12.9416L34.0787 11.6725ZM31.1319 13.69C30.283 14.5567 29.6208 15.5644 29.146 16.7075L30.4212 17.2372C30.8303 16.2523 31.3959 15.3939 32.1184 14.6563L31.1319 13.69ZM29.1425 16.716C28.6834 17.8639 28.4547 19.0724 28.4547 20.3363H29.8356C29.8356 19.243 30.0326 18.2089 30.4246 17.2288L29.1425 16.716ZM28.4547 20.3363C28.4547 21.5851 28.6838 22.7854 29.1425 23.9321L30.4246 23.4193C30.0321 22.438 29.8356 21.412 29.8356 20.3363H28.4547ZM29.1475 23.9441C29.6227 25.0706 30.2847 26.0686 31.1319 26.9335L32.1184 25.9672C31.3941 25.2279 30.8284 24.3761 30.4197 23.4073L29.1475 23.9441ZM31.1271 26.9285C31.9745 27.8112 32.9568 28.5016 34.0703 28.9965L34.6311 27.7347C33.682 27.3129 32.8473 26.7265 32.1232 25.9722L31.1271 26.9285ZM34.0823 29.0017C35.2192 29.4813 36.4323 29.719 37.7146 29.719V28.3381C36.6071 28.3381 35.5775 28.1338 34.6191 27.7295L34.0823 29.0017ZM59.4472 31.4349L59.1821 32.0725L59.1908 32.0759L59.4472 31.4349ZM55.6167 28.9303L55.1359 29.4258L55.136 29.4259L55.6167 28.9303ZM53.014 25.1735L52.3801 25.4472L52.3813 25.4499L53.014 25.1735ZM54.9046 1.72413L54.4164 2.21233L54.4286 2.22452L54.4414 2.2361L54.9046 1.72413ZM55.4203 8.52568H54.7299V9.2161H55.4203V8.52568ZM67.4274 11.3249L67.9022 11.8261L67.9029 11.8254L67.4274 11.3249ZM55.4203 11.7669V11.0764H54.7299V11.7669H55.4203ZM60.724 28.4147L60.4556 29.0509L60.4676 29.0557L60.724 28.4147ZM67.1818 28.562L67.4104 29.2136L67.4205 29.2099L67.1818 28.562ZM69.8091 26.966L69.3826 26.4231L69.3675 26.435L69.353 26.4477L69.8091 26.966ZM70.423 26.5731L70.7087 27.2017L70.7315 27.1913L70.7536 27.1792L70.423 26.5731ZM72.0927 26.8923L71.5782 27.3527L71.5909 27.367L71.6045 27.3805L72.0927 26.8923ZM72.3628 28.7094L71.7371 28.4174L71.7289 28.4349L71.7217 28.4529L72.3628 28.7094ZM71.9208 29.3478L71.4542 28.8387L71.4446 28.8478L71.9208 29.3478ZM68.385 31.5822L68.6274 32.2287L68.6318 32.227L68.385 31.5822ZM64.1371 31.6284C62.5678 31.6284 61.0919 31.3492 59.7036 30.7938L59.1908 32.0759C60.749 32.6992 62.3997 33.0093 64.1371 33.0093V31.6284ZM59.7122 30.7974C58.3329 30.2239 57.1299 29.4364 56.0975 28.4348L55.136 29.4259C56.2971 30.5523 57.6477 31.4345 59.1822 32.0724L59.7122 30.7974ZM56.0976 28.4349C55.0489 27.4171 54.2329 26.2393 53.6467 24.8972L52.3813 25.4499C53.0391 26.9561 53.9582 28.2828 55.1359 29.4258L56.0976 28.4349ZM53.6478 24.8998C53.0647 23.5495 52.7713 22.1043 52.7713 20.5573H51.3905C51.3905 22.2842 51.7191 23.9166 52.3801 25.4472L53.6478 24.8998ZM52.7713 20.5573V2.90273H51.3905V20.5573H52.7713ZM52.7713 2.90273C52.7713 2.62958 52.8608 2.41172 53.0602 2.21233L52.0838 1.23592C51.6284 1.69132 51.3905 2.2592 51.3905 2.90273H52.7713ZM53.0602 2.21233C53.2649 2.00756 53.4766 1.92346 53.726 1.92346V0.542619C53.0915 0.542619 52.5338 0.785913 52.0838 1.23592L53.0602 2.21233ZM53.726 1.92346C53.9992 1.92346 54.217 2.01294 54.4164 2.21233L55.3928 1.23592C54.9374 0.780533 54.3696 0.542619 53.726 0.542619V1.92346ZM54.4414 2.2361C54.6366 2.41269 54.7299 2.61777 54.7299 2.90273H56.1107C56.1107 2.23826 55.8602 1.65761 55.3679 1.21215L54.4414 2.2361ZM54.7299 2.90273V8.52568H56.1107V2.90273H54.7299ZM55.4203 9.2161H66.2487V7.83526H55.4203V9.2161ZM66.2487 9.2161C66.5219 9.2161 66.7398 9.30558 66.9392 9.50497L67.9156 8.52857C67.4602 8.07317 66.8923 7.83526 66.2487 7.83526V9.2161ZM66.9392 9.50497C67.1385 9.70436 67.228 9.92222 67.228 10.1954H68.6089C68.6089 9.55184 68.3709 8.98396 67.9156 8.52857L66.9392 9.50497ZM67.228 10.1954C67.228 10.4435 67.1454 10.6404 66.9518 10.8243L67.9029 11.8254C68.3641 11.3873 68.6089 10.8312 68.6089 10.1954H67.228ZM66.9525 10.8237C66.7841 10.9833 66.5676 11.0764 66.2487 11.0764V12.4573C66.8794 12.4573 67.4486 12.2558 67.9022 11.8261L66.9525 10.8237ZM66.2487 11.0764H55.4203V12.4573H66.2487V11.0764ZM54.7299 11.7669V20.5819H56.1107V11.7669H54.7299ZM54.7299 20.5819C54.7299 21.8492 54.968 23.0471 55.4487 24.1687L56.7178 23.6247C56.3145 22.6837 56.1107 21.6718 56.1107 20.5819H54.7299ZM55.4487 24.1687C55.9268 25.2843 56.6018 26.2618 57.4715 27.0959L58.4273 26.0994C57.6927 25.3948 57.1237 24.5717 56.7178 23.6247L55.4487 24.1687ZM57.4715 27.0959C58.3358 27.925 59.3321 28.5768 60.4557 29.0508L60.9924 27.7786C60.0206 27.3686 59.1672 26.8091 58.4273 26.0994L57.4715 27.0959ZM60.4676 29.0557C61.6178 29.5158 62.843 29.7435 64.1371 29.7435V28.3627C63.0085 28.3627 61.9583 28.1648 60.9804 27.7737L60.4676 29.0557ZM64.1371 29.7435C65.3032 29.7435 66.3963 29.5693 67.4104 29.2135L66.9532 27.9105C66.1012 28.2095 65.1644 28.3627 64.1371 28.3627V29.7435ZM67.4205 29.2099C68.4408 28.834 69.3891 28.2553 70.2652 27.4843L69.353 26.4477C68.5922 27.1172 67.789 27.6025 66.9431 27.9142L67.4205 29.2099ZM70.2357 27.5089C70.4399 27.3484 70.5964 27.2527 70.7087 27.2017L70.1373 25.9446C69.8895 26.0572 69.6367 26.2234 69.3826 26.4231L70.2357 27.5089ZM70.7536 27.1792C70.808 27.1496 70.9083 27.1162 71.086 27.1162V25.7354C70.7398 25.7354 70.3981 25.8002 70.0924 25.967L70.7536 27.1792ZM71.086 27.1162C71.269 27.1162 71.4216 27.1778 71.5782 27.3527L72.6072 26.432C72.2072 25.9849 71.6887 25.7354 71.086 25.7354V27.1162ZM71.6045 27.3805C71.7666 27.5426 71.8442 27.7258 71.8442 27.9727H73.2251C73.2251 27.3684 73.0081 26.8313 72.5809 26.4041L71.6045 27.3805ZM71.8442 27.9727C71.8442 28.1073 71.8135 28.2537 71.7371 28.4174L72.9884 29.0013C73.1412 28.6739 73.2251 28.3292 73.2251 27.9727H71.8442ZM71.7217 28.4529C71.6623 28.6015 71.5749 28.7282 71.4543 28.8388L72.3873 29.8567C72.6595 29.6072 72.8668 29.3083 73.0038 28.9658L71.7217 28.4529ZM71.4446 28.8478C70.4793 29.7672 69.3786 30.4627 68.1382 30.9374L68.6318 32.227C70.0433 31.6868 71.2998 30.8927 72.3969 29.8477L71.4446 28.8478ZM68.1426 30.9357C66.9171 31.3953 65.584 31.6284 64.1371 31.6284V33.0093C65.7349 33.0093 67.2337 32.7513 68.6274 32.2287L68.1426 30.9357ZM79.2154 31.3858L78.9417 32.0197L78.9504 32.0233L79.2154 31.3858ZM75.3849 28.783L75.8731 28.2948L75.8695 28.2912L75.3849 28.783ZM75.3849 11.816L75.8695 12.3078L75.8731 12.3042L75.3849 11.816ZM79.2154 9.23775L79.483 9.87422L79.4865 9.87272L79.2154 9.23775ZM88.4724 9.23775L88.2013 9.87272L88.2038 9.8738L88.4724 9.23775ZM92.3274 11.816L92.8192 11.3314L92.8156 11.3278L92.3274 11.816ZM94.8811 15.6955L94.2425 15.9581L94.2461 15.9667L94.8811 15.6955ZM94.8811 24.9525L94.2461 24.6814L94.2436 24.6875L94.8811 24.9525ZM88.4724 31.3612L88.2038 30.7252L88.2013 30.7263L88.4724 31.3612ZM87.2447 28.3656L87.5096 29.0032L87.5178 28.9997L87.2447 28.3656ZM90.0439 26.4504L90.537 26.9336L90.5371 26.9335L90.0439 26.4504ZM91.8855 23.6757L92.5216 23.9441L92.5231 23.9406L91.8855 23.6757ZM90.0439 14.1732L90.5371 13.69L90.5321 13.685L90.0439 14.1732ZM87.2201 12.307L86.9469 12.9412L86.9587 12.9461L87.2201 12.307ZM80.4431 12.307L80.7115 12.9432L80.7163 12.9411L80.4431 12.307ZM77.6685 14.1732L77.1803 13.685L77.6685 14.1732ZM75.7778 16.9724L75.1437 16.6992L75.1402 16.7075L75.7778 16.9724ZM75.7778 23.6757L75.1401 23.9406L75.1453 23.9524L75.7778 23.6757ZM77.6685 26.4504L78.1616 25.9671L78.1567 25.9622L77.6685 26.4504ZM80.4431 28.3656L80.1663 28.9982L80.1783 29.0032L80.4431 28.3656ZM83.8316 31.6039C82.2995 31.6039 80.851 31.3181 79.4804 30.7483L78.9504 32.0233C80.4936 32.6648 82.1226 32.9847 83.8316 32.9847V31.6039ZM79.4891 30.7519C78.1289 30.1646 76.9248 29.3465 75.8731 28.2948L74.8967 29.2712C76.0713 30.4458 77.4209 31.3629 78.9417 32.0196L79.4891 30.7519ZM75.8695 28.2912C74.8213 27.2584 74.0044 26.0568 73.4171 24.6814L72.1472 25.2236C72.804 26.762 73.7223 28.1141 74.9004 29.2748L75.8695 28.2912ZM73.4171 24.6814C72.8325 23.3122 72.5395 21.8659 72.5395 20.3363H71.1587C71.1587 22.0479 71.4877 23.6791 72.1472 25.2236L73.4171 24.6814ZM72.5395 20.3363C72.5395 18.7894 72.8329 17.3258 73.4182 15.9395L72.1461 15.4024C71.4873 16.9627 71.1587 18.6093 71.1587 20.3363H72.5395ZM73.4182 15.9395C74.0058 14.5479 74.8226 13.3393 75.8695 12.3078L74.9004 11.3242C73.721 12.4862 72.8026 13.8475 72.1461 15.4024L73.4182 15.9395ZM75.8731 12.3042C76.9235 11.2538 78.1255 10.445 79.483 9.87421L78.9478 8.6013C77.4242 9.2419 76.0726 10.1519 74.8967 11.3278L75.8731 12.3042ZM79.4865 9.87272C80.8557 9.28812 82.302 8.99511 83.8316 8.99511V7.61427C82.1201 7.61427 80.4889 7.9433 78.9443 8.60279L79.4865 9.87272ZM83.8316 8.99511C85.3786 8.99511 86.833 9.2885 88.2013 9.87272L88.7435 8.60279C87.198 7.94293 85.5586 7.61427 83.8316 7.61427V8.99511ZM88.2038 9.8738C89.5976 10.4623 90.8074 11.2724 91.8392 12.3042L92.8156 11.3278C91.6539 10.166 90.2937 9.2573 88.741 8.60171L88.2038 9.8738ZM91.8356 12.3005C92.8683 13.3486 93.6702 14.566 94.2425 15.9581L95.5196 15.433C94.8806 13.8786 93.9801 12.5096 92.8192 11.3314L91.8356 12.3005ZM94.2461 15.9667C94.8303 17.335 95.1237 18.7894 95.1237 20.3363H96.5046C96.5046 18.6094 96.1759 16.9699 95.516 15.4244L94.2461 15.9667ZM95.1237 20.3363C95.1237 21.8659 94.8307 23.3122 94.2461 24.6814L95.516 25.2236C96.1755 23.6791 96.5046 22.0479 96.5046 20.3363H95.1237ZM94.2436 24.6875C93.672 26.0624 92.871 27.2631 91.8392 28.2948L92.8156 29.2712C93.9774 28.1094 94.8789 26.7564 95.5186 25.2176L94.2436 24.6875ZM91.8392 28.2948C90.8074 29.3266 89.5976 30.1367 88.2038 30.7252L88.741 31.9973C90.2937 31.3417 91.6539 30.4329 92.8156 29.2712L91.8392 28.2948ZM88.2013 30.7263C86.833 31.3105 85.3786 31.6039 83.8316 31.6039V32.9847C85.5586 32.9847 87.198 32.656 88.7435 31.9962L88.2013 30.7263ZM83.8316 29.719C85.1291 29.719 86.3573 29.4818 87.5095 29.0032L86.9798 27.728C86.004 28.1333 84.9568 28.3381 83.8316 28.3381V29.719ZM87.5178 28.9997C88.6634 28.5062 89.6714 27.8169 90.537 26.9336L89.5508 25.9671C88.8122 26.7208 87.9541 27.3083 86.9715 27.7315L87.5178 28.9997ZM90.5371 26.9335C91.3843 26.0686 92.0463 25.0706 92.5216 23.9441L91.2493 23.4073C90.8406 24.3761 90.2749 25.2279 89.5507 25.9672L90.5371 26.9335ZM92.5231 23.9406C93.0002 22.7918 93.2388 21.5886 93.2388 20.3363H91.858C91.858 21.4085 91.6546 22.4315 91.2478 23.4109L92.5231 23.9406ZM93.2388 20.3363C93.2388 19.0689 93.0007 17.8574 92.5231 16.7075L91.2478 17.2372C91.6542 18.2153 91.858 19.2465 91.858 20.3363H93.2388ZM92.5231 16.7075C92.0482 15.5644 91.3861 14.5567 90.5371 13.69L89.5507 14.6563C90.2732 15.3939 90.8387 16.2523 91.2478 17.2372L92.5231 16.7075ZM90.5321 13.685C89.6632 12.8161 88.6443 12.1437 87.4815 11.668L86.9587 12.9461C87.9568 13.3544 88.8203 13.926 89.5557 14.6614L90.5321 13.685ZM87.4933 11.673C86.3402 11.1763 85.1175 10.9291 83.8316 10.9291V12.3099C84.9357 12.3099 85.972 12.5211 86.947 12.9411L87.4933 11.673ZM83.8316 10.9291C82.5457 10.9291 81.323 11.1763 80.17 11.673L80.7163 12.9411C81.6913 12.5211 82.7276 12.3099 83.8316 12.3099V10.9291ZM80.1748 11.6709C79.0452 12.1475 78.0456 12.8197 77.1803 13.685L78.1567 14.6614C78.8956 13.9225 79.7458 13.3506 80.7115 12.9432L80.1748 11.6709ZM77.1803 13.685C76.315 14.5502 75.6359 15.5567 75.1437 16.6992L76.4119 17.2455C76.8364 16.26 77.4177 15.4004 78.1567 14.6614L77.1803 13.685ZM75.1402 16.7075C74.6625 17.8574 74.4244 19.0689 74.4244 20.3363H75.8053C75.8053 19.2465 76.0091 18.2153 76.4154 17.2372L75.1402 16.7075ZM74.4244 20.3363C74.4244 21.5886 74.663 22.7918 75.1402 23.9406L76.4154 23.4109C76.0086 22.4315 75.8053 21.4085 75.8053 20.3363H74.4244ZM75.1453 23.9524C75.6378 25.0783 76.3168 26.0751 77.1803 26.9386L78.1567 25.9622C77.416 25.2214 76.8345 24.3684 76.4103 23.399L75.1453 23.9524ZM77.1754 26.9336C78.0392 27.8151 79.0375 28.5043 80.1664 28.9981L80.7199 27.7331C79.7534 27.3102 78.9019 26.7226 78.1616 25.9671L77.1754 26.9336ZM80.1783 29.0032C81.3294 29.4813 82.5492 29.719 83.8316 29.719V28.3381C82.7241 28.3381 81.6849 28.1338 80.708 27.728L80.1783 29.0032Z" fill="url(#paint1_linear_1603_20758)" mask="url(#path-1-outside-1_1603_20758)"/>
<defs>
<linearGradient id="paint0_linear_1603_20758" x1="0.488281" y1="16.4996" x2="95.4883" y2="16.4996" gradientUnits="userSpaceOnUse">
<stop stop-color="#6A67AF"/>
<stop offset="1" stop-color="#9996DE"/>
</linearGradient>
<linearGradient id="paint1_linear_1603_20758" x1="0.488281" y1="16.4996" x2="95.4883" y2="16.4996" gradientUnits="userSpaceOnUse">
<stop stop-color="#6A67AF"/>
<stop offset="1" stop-color="#9996DE"/>
</linearGradient>
</defs>
</svg>
