<svg width="26" height="26" viewBox="0 0 26 26" fill="none" xmlns="http://www.w3.org/2000/svg">
<g clip-path="url(#clip0_1603_20761)">
<path d="M10.4587 4.38422C9.89657 2.49699 10.6592 0.295227 13.0819 0.295227C15.5045 0.295227 16.2672 2.49699 15.7051 4.38422C15.3092 5.71337 14.2627 8.75872 13.6784 10.4436C13.5708 10.754 13.7882 11.0806 14.0871 11.245C14.3858 11.4094 14.7843 11.4164 15.015 11.1734C16.2685 9.85351 18.54 7.47448 19.5617 6.48604C21.0121 5.08291 23.4135 4.60551 24.6248 6.58596C25.8361 8.56641 24.1975 10.2908 22.185 10.7749C20.7675 11.1158 17.45 11.7831 15.6121 12.1479C15.2736 12.2151 15.0812 12.5502 15.0812 12.8767C15.0812 13.2033 15.2736 13.5384 15.6121 13.6056C17.45 13.9703 20.7675 14.6376 22.185 14.9786C24.1975 15.4627 25.8361 17.187 24.6248 19.1675C23.4135 21.1479 21.0121 20.6706 19.5618 19.2674C18.5401 18.2789 16.2685 15.8999 15.0151 14.58C14.7843 14.3371 14.3858 14.3441 14.0871 14.5084C13.7882 14.6729 13.5708 14.9995 13.6784 15.3099C14.2627 16.9947 15.3092 20.0401 15.7051 21.3692C16.2672 23.2565 15.5045 25.4582 13.0819 25.4582C10.6593 25.4582 9.89655 23.2565 10.4587 21.3692C10.8546 20.0401 11.9011 16.9947 12.4854 15.3099C12.593 14.9995 12.3756 14.6729 12.0767 14.5084C11.778 14.3441 11.3795 14.3371 11.1488 14.5801C9.8953 15.8999 7.62376 18.279 6.60204 19.2674C5.15165 20.6705 2.7503 21.148 1.53899 19.1675C0.32768 17.1871 1.96632 15.4626 3.97883 14.9786C5.3963 14.6376 8.7138 13.9704 10.5517 13.6056C10.8902 13.5384 11.0826 13.2033 11.0826 12.8767C11.0826 12.5502 10.8902 12.2151 10.5517 12.1479C8.7138 11.7831 5.39628 11.1159 3.97882 10.7749C1.96632 10.2908 0.327651 8.56645 1.53896 6.586C2.75028 4.60554 5.15166 5.0829 6.60202 6.48606C7.62374 7.47451 9.89529 9.85353 11.1487 11.1734C11.3795 11.4164 11.778 11.4094 12.0767 11.245C12.3756 11.0806 12.593 10.754 12.4853 10.4436C11.9011 8.75872 10.8546 5.71337 10.4587 4.38422Z" fill="url(#paint0_linear_1603_20761)"/>
</g>
<defs>
<linearGradient id="paint0_linear_1603_20761" x1="1.125" y1="12.8767" x2="25.0388" y2="12.8767" gradientUnits="userSpaceOnUse">
<stop stop-color="#6A67AF"/>
<stop offset="1" stop-color="#9996DE"/>
</linearGradient>
<clipPath id="clip0_1603_20761">
<rect width="24.965" height="25.5455" fill="white" transform="translate(0.5 0.294922)"/>
</clipPath>
</defs>
</svg>
