<svg width="35" height="35" viewBox="0 0 35 35" fill="none" xmlns="http://www.w3.org/2000/svg">
<mask id="path-1-outside-1_1603_20760" maskUnits="userSpaceOnUse" x="0" y="-0.000366211" width="35" height="35" fill="black">
<rect fill="white" y="-0.000366211" width="35" height="35"/>
<path d="M2.39266 33.9996C1.95068 33.9996 1.566 33.8441 1.23861 33.5331C0.927586 33.2221 0.772076 32.8374 0.772076 32.379V3.28215C0.772076 2.8238 0.927586 2.43911 1.23861 2.12809C1.566 1.81707 1.95068 1.66156 2.39266 1.66156C2.85101 1.66156 3.24388 1.81707 3.57127 2.12809C3.89866 2.43911 4.06236 2.8238 4.06236 3.28215V14.8227L18.2793 2.12809C18.6395 1.81707 19.0078 1.66156 19.3843 1.66156C19.8099 1.66156 20.2027 1.82526 20.5629 2.15265C20.9066 2.52915 21.0785 2.9302 21.0785 3.35581C21.0458 3.86327 20.8657 4.25614 20.5383 4.53442L6.34591 17.1062L21.7415 31.2004C22.0689 31.4787 22.2326 31.8716 22.2326 32.379C22.2326 32.8047 22.0689 33.1812 21.7415 33.5085C21.4141 33.8359 21.0294 33.9996 20.5874 33.9996C20.1946 34.016 19.8099 33.8523 19.4334 33.5085L4.06236 19.4635V32.379C4.06236 32.8374 3.89866 33.2221 3.57127 33.5331C3.24388 33.8441 2.85101 33.9996 2.39266 33.9996ZM20.8389 33.9996C20.3805 33.9996 19.9795 33.8441 19.6357 33.5331C19.3083 33.2221 19.1446 32.8292 19.1446 32.3545V22.8274C19.1446 21.1413 19.4638 19.5371 20.1022 18.0148C20.757 16.4924 21.6573 15.1501 22.8032 13.9878C23.9655 12.8256 25.2996 11.9253 26.8056 11.2869C28.3116 10.6321 29.8994 10.3047 31.5691 10.3047H31.7656C32.2894 10.3047 32.6986 10.4602 32.9933 10.7712C33.3043 11.0659 33.4598 11.4587 33.4598 11.9498C33.4598 12.4245 33.2961 12.8174 32.9687 13.1284C32.6577 13.4231 32.2566 13.5704 31.7656 13.5704H31.5691C30.3578 13.5704 29.1955 13.8078 28.0824 14.2825C26.9693 14.7572 25.9871 15.4202 25.1359 16.2714C24.2847 17.1226 23.6135 18.1212 23.1224 19.267C22.6477 20.3965 22.4103 21.5833 22.4103 22.8274V32.3545C22.4103 32.8292 22.2548 33.2221 21.9438 33.5331C21.6492 33.8441 21.2808 33.9996 20.8389 33.9996Z"/>
</mask>
<path d="M2.39266 33.9996C1.95068 33.9996 1.566 33.8441 1.23861 33.5331C0.927586 33.2221 0.772076 32.8374 0.772076 32.379V3.28215C0.772076 2.8238 0.927586 2.43911 1.23861 2.12809C1.566 1.81707 1.95068 1.66156 2.39266 1.66156C2.85101 1.66156 3.24388 1.81707 3.57127 2.12809C3.89866 2.43911 4.06236 2.8238 4.06236 3.28215V14.8227L18.2793 2.12809C18.6395 1.81707 19.0078 1.66156 19.3843 1.66156C19.8099 1.66156 20.2027 1.82526 20.5629 2.15265C20.9066 2.52915 21.0785 2.9302 21.0785 3.35581C21.0458 3.86327 20.8657 4.25614 20.5383 4.53442L6.34591 17.1062L21.7415 31.2004C22.0689 31.4787 22.2326 31.8716 22.2326 32.379C22.2326 32.8047 22.0689 33.1812 21.7415 33.5085C21.4141 33.8359 21.0294 33.9996 20.5874 33.9996C20.1946 34.016 19.8099 33.8523 19.4334 33.5085L4.06236 19.4635V32.379C4.06236 32.8374 3.89866 33.2221 3.57127 33.5331C3.24388 33.8441 2.85101 33.9996 2.39266 33.9996ZM20.8389 33.9996C20.3805 33.9996 19.9795 33.8441 19.6357 33.5331C19.3083 33.2221 19.1446 32.8292 19.1446 32.3545V22.8274C19.1446 21.1413 19.4638 19.5371 20.1022 18.0148C20.757 16.4924 21.6573 15.1501 22.8032 13.9878C23.9655 12.8256 25.2996 11.9253 26.8056 11.2869C28.3116 10.6321 29.8994 10.3047 31.5691 10.3047H31.7656C32.2894 10.3047 32.6986 10.4602 32.9933 10.7712C33.3043 11.0659 33.4598 11.4587 33.4598 11.9498C33.4598 12.4245 33.2961 12.8174 32.9687 13.1284C32.6577 13.4231 32.2566 13.5704 31.7656 13.5704H31.5691C30.3578 13.5704 29.1955 13.8078 28.0824 14.2825C26.9693 14.7572 25.9871 15.4202 25.1359 16.2714C24.2847 17.1226 23.6135 18.1212 23.1224 19.267C22.6477 20.3965 22.4103 21.5833 22.4103 22.8274V32.3545C22.4103 32.8292 22.2548 33.2221 21.9438 33.5331C21.6492 33.8441 21.2808 33.9996 20.8389 33.9996Z" fill="url(#paint0_linear_1603_20760)"/>
<path d="M1.23861 33.5331L0.750408 34.0213L0.756665 34.0276L0.763082 34.0337L1.23861 33.5331ZM1.23861 2.12809L0.763082 1.62754L0.756665 1.63363L0.750408 1.63989L1.23861 2.12809ZM3.57127 2.12809L4.0468 1.62754L3.57127 2.12809ZM4.06236 14.8227H3.37194V16.3648L4.52221 15.3377L4.06236 14.8227ZM18.2793 2.12809L17.828 1.6055L17.8195 1.6131L18.2793 2.12809ZM20.5629 2.15265L21.0727 1.68712L21.0511 1.66339L21.0273 1.64178L20.5629 2.15265ZM21.0785 3.35581L21.7675 3.40026L21.7689 3.37806V3.35581H21.0785ZM20.5383 4.53442L20.0911 4.00825L20.0805 4.0176L20.5383 4.53442ZM6.34591 17.1062L5.88811 16.5894L5.31421 17.0978L5.87971 17.6155L6.34591 17.1062ZM21.7415 31.2004L21.2753 31.7097L21.2847 31.7183L21.2943 31.7265L21.7415 31.2004ZM20.5874 33.9996V33.3092H20.5731L20.5587 33.3098L20.5874 33.9996ZM19.4334 33.5085L18.9677 34.0182L18.9678 34.0184L19.4334 33.5085ZM4.06236 19.4635L4.52808 18.9538L3.37194 17.8974V19.4635H4.06236ZM3.57127 33.5331L4.0468 34.0337L3.57127 33.5331ZM2.39266 33.3092C2.1319 33.3092 1.91631 33.2246 1.71413 33.0325L0.763082 34.0337C1.21569 34.4636 1.76947 34.6901 2.39266 34.6901V33.3092ZM1.72681 33.0449C1.55121 32.8693 1.4625 32.6629 1.4625 32.379H0.0816557C0.0816557 33.0119 0.303959 33.5749 0.750408 34.0213L1.72681 33.0449ZM1.4625 32.379V3.28215H0.0816557V32.379H1.4625ZM1.4625 3.28215C1.4625 2.99832 1.55121 2.79189 1.72681 2.61629L0.750408 1.63989C0.303959 2.08634 0.0816557 2.64927 0.0816557 3.28215H1.4625ZM1.71413 2.62865C1.91631 2.43658 2.1319 2.35198 2.39266 2.35198V0.97114C1.76947 0.97114 1.21569 1.19756 0.763082 1.62754L1.71413 2.62865ZM2.39266 2.35198C2.67698 2.35198 2.8988 2.44155 3.09574 2.62865L4.0468 1.62754C3.58896 1.1926 3.02504 0.97114 2.39266 0.97114V2.35198ZM3.09574 2.62865C3.28362 2.80713 3.37194 3.00984 3.37194 3.28215H4.75278C4.75278 2.63776 4.51371 2.07111 4.0468 1.62754L3.09574 2.62865ZM3.37194 3.28215V14.8227H4.75278V3.28215H3.37194ZM4.52221 15.3377L18.7392 2.64309L17.8195 1.6131L3.60251 14.3077L4.52221 15.3377ZM18.7306 2.65062C18.9994 2.41847 19.2135 2.35198 19.3843 2.35198V0.97114C18.802 0.97114 18.2795 1.21568 17.8281 1.60557L18.7306 2.65062ZM19.3843 2.35198C19.6134 2.35198 19.8459 2.4339 20.0985 2.66352L21.0273 1.64178C20.5596 1.21661 20.0063 0.97114 19.3843 0.97114V2.35198ZM20.053 2.61818C20.3049 2.89405 20.3881 3.13538 20.3881 3.35581H21.7689C21.7689 2.72503 21.5084 2.16424 21.0727 1.68712L20.053 2.61818ZM20.3895 3.31136C20.3664 3.66916 20.2501 3.87331 20.0912 4.00836L20.9855 5.06048C21.4814 4.63897 21.7251 4.05738 21.7675 3.40026L20.3895 3.31136ZM20.0805 4.0176L5.88811 16.5894L6.80371 17.6231L20.9961 5.05123L20.0805 4.0176ZM5.87971 17.6155L21.2753 31.7097L22.2077 30.6912L6.81211 16.597L5.87971 17.6155ZM21.2943 31.7265C21.439 31.8495 21.5422 32.0336 21.5422 32.379H22.923C22.923 31.7096 22.6988 31.108 22.1886 30.6744L21.2943 31.7265ZM21.5422 32.379C21.5422 32.6045 21.4637 32.8099 21.2533 33.0203L22.2297 33.9967C22.674 33.5524 22.923 33.0048 22.923 32.379H21.5422ZM21.2533 33.0203C21.0485 33.2251 20.8368 33.3092 20.5874 33.3092V34.6901C21.222 34.6901 21.7797 34.4468 22.2297 33.9967L21.2533 33.0203ZM20.5587 33.3098C20.3973 33.3165 20.1824 33.2576 19.8989 32.9987L18.9678 34.0184C19.4373 34.4471 19.9918 34.7155 20.6162 34.6895L20.5587 33.3098ZM19.8991 32.9989L4.52808 18.9538L3.59664 19.9732L18.9677 34.0182L19.8991 32.9989ZM3.37194 19.4635V32.379H4.75278V19.4635H3.37194ZM3.37194 32.379C3.37194 32.6514 3.28362 32.8541 3.09574 33.0325L4.0468 34.0337C4.51371 33.5901 4.75278 33.0234 4.75278 32.379H3.37194ZM3.09574 33.0325C2.8988 33.2197 2.67698 33.3092 2.39266 33.3092V34.6901C3.02504 34.6901 3.58896 34.4686 4.0468 34.0337L3.09574 33.0325ZM19.6357 33.5331L19.1602 34.0337L19.1663 34.0394L19.1725 34.0451L19.6357 33.5331ZM20.1022 18.0148L19.468 17.742L19.4655 17.7478L20.1022 18.0148ZM22.8032 13.9878L22.315 13.4996L22.3116 13.5031L22.8032 13.9878ZM26.8056 11.2869L27.0751 11.9226L27.0809 11.92L26.8056 11.2869ZM32.9933 10.7712L32.4921 11.2461L32.5049 11.2596L32.5184 11.2724L32.9933 10.7712ZM32.9687 13.1284L33.4436 13.6297L33.4442 13.629L32.9687 13.1284ZM23.1224 19.267L22.4878 18.9951L22.4859 18.9995L23.1224 19.267ZM21.9438 33.5331L21.4556 33.0449L21.449 33.0515L21.4426 33.0583L21.9438 33.5331ZM20.8389 33.3092C20.5539 33.3092 20.3173 33.2188 20.0989 33.0211L19.1725 34.0451C19.6416 34.4695 20.2072 34.6901 20.8389 34.6901V33.3092ZM20.1112 33.0325C19.9287 32.8592 19.835 32.6508 19.835 32.3545H18.4542C18.4542 33.0076 18.6879 33.585 19.1602 34.0337L20.1112 33.0325ZM19.835 32.3545V22.8274H18.4542V32.3545H19.835ZM19.835 22.8274C19.835 21.231 20.1368 19.7177 20.7389 18.2818L19.4655 17.7478C18.7909 19.3565 18.4542 21.0517 18.4542 22.8274H19.835ZM20.7365 18.2875C21.3579 16.8428 22.2102 15.5727 23.2949 14.4726L22.3116 13.5031C21.1045 14.7275 20.1562 16.1419 19.468 17.742L20.7365 18.2875ZM23.2914 14.476C24.3912 13.3762 25.6512 12.5261 27.075 11.9225L26.5361 10.6512C24.948 11.3244 23.5397 12.275 22.315 13.4996L23.2914 14.476ZM27.0809 11.92C28.4985 11.3037 29.9925 10.9951 31.5691 10.9951V9.61427C29.8063 9.61427 28.1246 9.96051 26.5303 10.6537L27.0809 11.92ZM31.5691 10.9951H31.7656V9.61427H31.5691V10.9951ZM31.7656 10.9951C32.1451 10.9951 32.356 11.1024 32.4921 11.2461L33.4945 10.2964C33.0413 9.81799 32.4337 9.61427 31.7656 9.61427V10.9951ZM32.5184 11.2724C32.6712 11.4172 32.7694 11.618 32.7694 11.9498H34.1502C34.1502 11.2995 33.9373 10.7146 33.4681 10.27L32.5184 11.2724ZM32.7694 11.9498C32.7694 12.2462 32.6757 12.4545 32.4932 12.6279L33.4442 13.629C33.9165 13.1803 34.1502 12.6029 34.1502 11.9498H32.7694ZM32.4939 12.6272C32.33 12.7825 32.1078 12.88 31.7656 12.88V14.2608C32.4055 14.2608 32.9854 14.0637 33.4436 13.6297L32.4939 12.6272ZM31.7656 12.88H31.5691V14.2608H31.7656V12.88ZM31.5691 12.88C30.2648 12.88 29.0104 13.1361 27.8116 13.6474L28.3532 14.9176C29.3807 14.4794 30.4508 14.2608 31.5691 14.2608V12.88ZM27.8116 13.6474C26.6177 14.1566 25.5616 14.8692 24.6477 15.7832L25.6241 16.7596C26.4126 15.9711 27.3209 15.3579 28.3532 14.9176L27.8116 13.6474ZM24.6477 15.7832C23.7321 16.6987 23.0123 17.7714 22.4878 18.9951L23.757 19.539C24.2148 18.4709 24.8372 17.5465 25.6241 16.7596L24.6477 15.7832ZM22.4859 18.9995C21.9751 20.215 21.7199 21.4929 21.7199 22.8274H23.1008C23.1008 21.6737 23.3204 20.578 23.7589 19.5345L22.4859 18.9995ZM21.7199 22.8274V32.3545H23.1008V22.8274H21.7199ZM21.7199 32.3545C21.7199 32.6621 21.6262 32.8743 21.4556 33.0449L22.432 34.0213C22.8834 33.5699 23.1008 32.9963 23.1008 32.3545H21.7199ZM21.4426 33.0583C21.2829 33.2268 21.098 33.3092 20.8389 33.3092V34.6901C21.4637 34.6901 22.0154 34.4614 22.445 34.0079L21.4426 33.0583Z" fill="url(#paint1_linear_1603_20760)" mask="url(#path-1-outside-1_1603_20760)"/>
<defs>
<linearGradient id="paint0_linear_1603_20760" x1="-3" y1="18.4996" x2="34" y2="18.4996" gradientUnits="userSpaceOnUse">
<stop stop-color="#6A67AF"/>
<stop offset="1" stop-color="#9996DE"/>
</linearGradient>
<linearGradient id="paint1_linear_1603_20760" x1="-3" y1="18.4996" x2="34" y2="18.4996" gradientUnits="userSpaceOnUse">
<stop stop-color="#6A67AF"/>
<stop offset="1" stop-color="#9996DE"/>
</linearGradient>
</defs>
</svg>
