<svg width="35" height="26" viewBox="0 0 35 26" fill="none" xmlns="http://www.w3.org/2000/svg">
<mask id="path-1-outside-1_1603_20759" maskUnits="userSpaceOnUse" x="-0.310547" y="-0.000366211" width="36" height="26" fill="black">
<rect fill="white" x="-0.310547" y="-0.000366211" width="36" height="26"/>
<path d="M2.56904 24.9996C2.11069 24.9996 1.70964 24.8441 1.36588 24.5331C1.03849 24.2221 0.87479 23.8292 0.87479 23.3545V13.8274C0.87479 12.1413 1.194 10.5371 1.83241 9.01475C2.48719 7.49239 3.38752 6.15008 4.53339 4.98784C5.69563 3.8256 7.02975 2.92528 8.53575 2.28686C10.0417 1.63208 11.6296 1.30469 13.2993 1.30469H13.4957C14.0195 1.30469 14.4288 1.4602 14.7234 1.77122C15.0345 2.06587 15.19 2.45874 15.19 2.94983C15.19 3.42455 15.0263 3.81742 14.6989 4.12844C14.3879 4.42309 13.9868 4.57042 13.4957 4.57042H13.2993C12.0879 4.57042 10.9257 4.80778 9.81257 5.28249C8.69944 5.75721 7.71727 6.42018 6.86605 7.2714C6.01483 8.12261 5.34368 9.12116 4.85259 10.267C4.37788 11.3965 4.14052 12.5833 4.14052 13.8274V23.3545C4.14052 23.8292 3.98501 24.2221 3.67399 24.5331C3.37933 24.8441 3.01102 24.9996 2.56904 24.9996ZM16.6161 24.9996C16.1741 24.9996 15.8058 24.8441 15.5111 24.5331C15.2329 24.2221 15.0937 23.821 15.0937 23.3299C15.0937 22.8552 15.2329 22.4705 15.5111 22.1759C15.8058 21.8812 16.1741 21.7339 16.6161 21.7339H27.0026C27.4609 21.7339 27.9193 21.6521 28.3776 21.4884C28.836 21.3083 29.237 21.0546 29.5808 20.7272C30.3829 19.9742 30.7839 19.0739 30.7839 18.0262C30.7839 16.9785 30.3993 16.1273 29.6299 15.4725C29.2861 15.1779 28.8769 14.9569 28.4022 14.8096C27.9438 14.6459 27.4691 14.5559 26.978 14.5395H22.1408C21.2241 14.5395 20.3565 14.3594 19.5381 13.9993C18.7359 13.6392 18.0321 13.1481 17.4264 12.526C16.8207 11.904 16.3542 11.1919 16.0268 10.3898C15.6994 9.57132 15.5357 8.71192 15.5357 7.81159C15.5357 6.92764 15.7076 6.09279 16.0513 5.30705C16.3951 4.52131 16.8698 3.8256 17.4755 3.21993C18.0812 2.61426 18.7851 2.14772 19.5872 1.82033C20.3893 1.47657 21.2405 1.30469 22.1408 1.30469H31.1032C31.5779 1.30469 31.9707 1.45202 32.2818 1.74667C32.5928 2.02495 32.7483 2.40964 32.7483 2.90072C32.7483 3.40818 32.5928 3.81742 32.2818 4.12844C31.9707 4.43946 31.5779 4.59497 31.1032 4.59497H22.1163C21.2159 4.59497 20.4302 4.93055 19.759 5.6017C19.4644 5.91272 19.227 6.27285 19.047 6.68209C18.8833 7.07496 18.8014 7.4842 18.8014 7.90981C18.8014 8.35179 18.8833 8.7774 19.047 9.18664C19.227 9.59587 19.4726 9.94782 19.7836 10.2425C20.0783 10.5535 20.4302 10.799 20.8394 10.9791C21.2487 11.1592 21.6743 11.2492 22.1163 11.2492H27.2481C28.1976 11.2492 29.0897 11.4293 29.9245 11.7894C30.7594 12.1332 31.4878 12.6242 32.1099 13.2627C32.7319 13.9011 33.2066 14.6377 33.534 15.4725C33.8778 16.3074 34.0497 17.1832 34.0497 18.0999C34.0497 19.0166 33.8778 19.8923 33.534 20.7272C33.2066 21.562 32.7401 22.2987 32.1344 22.9371C31.5124 23.5919 30.7839 24.0993 29.9491 24.4594C29.1306 24.8196 28.2467 24.9996 27.2972 24.9996H16.6161Z"/>
</mask>
<path d="M2.56904 24.9996C2.11069 24.9996 1.70964 24.8441 1.36588 24.5331C1.03849 24.2221 0.87479 23.8292 0.87479 23.3545V13.8274C0.87479 12.1413 1.194 10.5371 1.83241 9.01475C2.48719 7.49239 3.38752 6.15008 4.53339 4.98784C5.69563 3.8256 7.02975 2.92528 8.53575 2.28686C10.0417 1.63208 11.6296 1.30469 13.2993 1.30469H13.4957C14.0195 1.30469 14.4288 1.4602 14.7234 1.77122C15.0345 2.06587 15.19 2.45874 15.19 2.94983C15.19 3.42455 15.0263 3.81742 14.6989 4.12844C14.3879 4.42309 13.9868 4.57042 13.4957 4.57042H13.2993C12.0879 4.57042 10.9257 4.80778 9.81257 5.28249C8.69944 5.75721 7.71727 6.42018 6.86605 7.2714C6.01483 8.12261 5.34368 9.12116 4.85259 10.267C4.37788 11.3965 4.14052 12.5833 4.14052 13.8274V23.3545C4.14052 23.8292 3.98501 24.2221 3.67399 24.5331C3.37933 24.8441 3.01102 24.9996 2.56904 24.9996ZM16.6161 24.9996C16.1741 24.9996 15.8058 24.8441 15.5111 24.5331C15.2329 24.2221 15.0937 23.821 15.0937 23.3299C15.0937 22.8552 15.2329 22.4705 15.5111 22.1759C15.8058 21.8812 16.1741 21.7339 16.6161 21.7339H27.0026C27.4609 21.7339 27.9193 21.6521 28.3776 21.4884C28.836 21.3083 29.237 21.0546 29.5808 20.7272C30.3829 19.9742 30.7839 19.0739 30.7839 18.0262C30.7839 16.9785 30.3993 16.1273 29.6299 15.4725C29.2861 15.1779 28.8769 14.9569 28.4022 14.8096C27.9438 14.6459 27.4691 14.5559 26.978 14.5395H22.1408C21.2241 14.5395 20.3565 14.3594 19.5381 13.9993C18.7359 13.6392 18.0321 13.1481 17.4264 12.526C16.8207 11.904 16.3542 11.1919 16.0268 10.3898C15.6994 9.57132 15.5357 8.71192 15.5357 7.81159C15.5357 6.92764 15.7076 6.09279 16.0513 5.30705C16.3951 4.52131 16.8698 3.8256 17.4755 3.21993C18.0812 2.61426 18.7851 2.14772 19.5872 1.82033C20.3893 1.47657 21.2405 1.30469 22.1408 1.30469H31.1032C31.5779 1.30469 31.9707 1.45202 32.2818 1.74667C32.5928 2.02495 32.7483 2.40964 32.7483 2.90072C32.7483 3.40818 32.5928 3.81742 32.2818 4.12844C31.9707 4.43946 31.5779 4.59497 31.1032 4.59497H22.1163C21.2159 4.59497 20.4302 4.93055 19.759 5.6017C19.4644 5.91272 19.227 6.27285 19.047 6.68209C18.8833 7.07496 18.8014 7.4842 18.8014 7.90981C18.8014 8.35179 18.8833 8.7774 19.047 9.18664C19.227 9.59587 19.4726 9.94782 19.7836 10.2425C20.0783 10.5535 20.4302 10.799 20.8394 10.9791C21.2487 11.1592 21.6743 11.2492 22.1163 11.2492H27.2481C28.1976 11.2492 29.0897 11.4293 29.9245 11.7894C30.7594 12.1332 31.4878 12.6242 32.1099 13.2627C32.7319 13.9011 33.2066 14.6377 33.534 15.4725C33.8778 16.3074 34.0497 17.1832 34.0497 18.0999C34.0497 19.0166 33.8778 19.8923 33.534 20.7272C33.2066 21.562 32.7401 22.2987 32.1344 22.9371C31.5124 23.5919 30.7839 24.0993 29.9491 24.4594C29.1306 24.8196 28.2467 24.9996 27.2972 24.9996H16.6161Z" fill="url(#paint0_linear_1603_20759)"/>
<path d="M1.36588 24.5331L0.890351 25.0337L0.896438 25.0394L0.902665 25.0451L1.36588 24.5331ZM1.83241 9.01476L1.19814 8.74195L1.19571 8.74775L1.83241 9.01476ZM4.53339 4.98784L4.04517 4.49963L4.04174 4.50312L4.53339 4.98784ZM8.53575 2.28686L8.80522 2.92255L8.81103 2.92003L8.53575 2.28686ZM14.7234 1.77122L14.2222 2.24606L14.2351 2.2596L14.2486 2.27243L14.7234 1.77122ZM14.6989 4.12844L15.1737 4.62965L15.1744 4.62899L14.6989 4.12844ZM4.85259 10.267L4.21798 9.99505L4.2161 9.99952L4.85259 10.267ZM3.67399 24.5331L3.18578 24.0449L3.17919 24.0515L3.17277 24.0583L3.67399 24.5331ZM2.56904 24.3092C2.28403 24.3092 2.04751 24.2188 1.82909 24.0211L0.902665 25.0451C1.37176 25.4695 1.93735 25.6901 2.56904 25.6901V24.3092ZM1.8414 24.0325C1.65891 23.8592 1.56521 23.6508 1.56521 23.3545H0.18437C0.18437 24.0076 0.418059 24.585 0.890351 25.0337L1.8414 24.0325ZM1.56521 23.3545V13.8274H0.18437V23.3545H1.56521ZM1.56521 13.8274C1.56521 12.231 1.86692 10.7177 2.46911 9.28176L1.19571 8.74775C0.52107 10.3565 0.18437 12.0517 0.18437 13.8274H1.56521ZM2.46665 9.28755C3.08803 7.84284 3.94041 6.57269 5.02504 5.47257L4.04174 4.50312C2.83463 5.72747 1.88635 7.14193 1.19817 8.74196L2.46665 9.28755ZM5.02159 5.47604C6.12138 4.37625 7.38133 3.52613 8.80521 2.92253L8.26628 1.6512C6.67816 2.32442 5.26987 3.27496 4.04519 4.49964L5.02159 5.47604ZM8.81103 2.92003C10.2287 2.30366 11.7227 1.99511 13.2993 1.99511V0.61427C11.5365 0.61427 9.8548 0.960506 8.26046 1.6537L8.81103 2.92003ZM13.2993 1.99511H13.4957V0.61427H13.2993V1.99511ZM13.4957 1.99511C13.8753 1.99511 14.0861 2.10241 14.2222 2.24606L15.2247 1.29639C14.7714 0.81799 14.1638 0.61427 13.4957 0.61427V1.99511ZM14.2486 2.27243C14.4014 2.4172 14.4996 2.61797 14.4996 2.94983H15.8804C15.8804 2.29952 15.6675 1.71455 15.1983 1.27001L14.2486 2.27243ZM14.4996 2.94983C14.4996 3.24618 14.4059 3.45452 14.2234 3.62789L15.1744 4.62899C15.6467 4.18032 15.8804 3.60292 15.8804 2.94983H14.4996ZM14.2241 3.62723C14.0601 3.78252 13.838 3.88 13.4957 3.88V5.26084C14.1357 5.26084 14.7156 5.06367 15.1737 4.62965L14.2241 3.62723ZM13.4957 3.88H13.2993V5.26084H13.4957V3.88ZM13.2993 3.88C11.9949 3.88 10.7406 4.13614 9.54173 4.64742L10.0834 5.91757C11.1108 5.47941 12.1809 5.26084 13.2993 5.26084V3.88ZM9.54173 4.64742C8.34786 5.15656 7.2918 5.86924 6.37785 6.7832L7.35425 7.7596C8.14273 6.97112 9.05102 6.35786 10.0834 5.91757L9.54173 4.64742ZM6.37785 6.7832C5.46231 7.69873 4.74243 8.77138 4.218 9.99506L5.48719 10.539C5.94493 9.47093 6.56736 8.54649 7.35425 7.7596L6.37785 6.7832ZM4.2161 9.99952C3.70523 11.215 3.4501 12.4929 3.4501 13.8274H4.83094C4.83094 12.6737 5.05052 11.578 5.48908 10.5345L4.2161 9.99952ZM3.4501 13.8274V23.3545H4.83094V13.8274H3.4501ZM3.4501 23.3545C3.4501 23.6621 3.35642 23.8743 3.18578 24.0449L4.16219 25.0213C4.6136 24.5699 4.83094 23.9963 4.83094 23.3545H3.4501ZM3.17277 24.0583C3.01308 24.2268 2.82819 24.3092 2.56904 24.3092V25.6901C3.19384 25.6901 3.74558 25.4614 4.1752 25.0079L3.17277 24.0583ZM15.5111 24.5331L14.9966 24.9935L15.0032 25.0008L15.0099 25.0079L15.5111 24.5331ZM15.5111 22.1759L15.0229 21.6877L15.016 21.6947L15.0092 21.7018L15.5111 22.1759ZM28.3776 21.4884L28.6098 22.1386L28.62 22.1349L28.6301 22.131L28.3776 21.4884ZM29.5808 20.7272L29.1082 20.2238L29.1046 20.2272L29.5808 20.7272ZM29.6299 15.4725L29.1806 15.9968L29.1824 15.9983L29.6299 15.4725ZM28.4022 14.8096L28.17 15.4598L28.1837 15.4647L28.1975 15.469L28.4022 14.8096ZM26.978 14.5395L27.001 13.8494L26.9895 13.8491H26.978V14.5395ZM19.5381 13.9993L19.2553 14.6292L19.26 14.6312L19.5381 13.9993ZM17.4264 12.526L16.9317 13.0077L17.4264 12.526ZM16.0268 10.3898L15.3857 10.6462L15.3876 10.6507L16.0268 10.3898ZM19.5872 1.82033L19.8481 2.45965L19.8591 2.45493L19.5872 1.82033ZM32.2818 1.74667L31.8069 2.24788L31.8141 2.25464L31.8214 2.2612L32.2818 1.74667ZM19.759 5.6017L19.2708 5.1135L19.2642 5.1201L19.2578 5.12687L19.759 5.6017ZM19.047 6.68209L18.4149 6.40398L18.4097 6.41655L19.047 6.68209ZM19.047 9.18664L18.4059 9.44305L18.4103 9.45395L18.415 9.46469L19.047 9.18664ZM19.7836 10.2425L20.2848 9.76764L20.272 9.75409L20.2584 9.74126L19.7836 10.2425ZM29.9245 11.7894L29.651 12.4234L29.6617 12.4278L29.9245 11.7894ZM33.534 15.4725L32.8912 15.7246L32.8956 15.7354L33.534 15.4725ZM33.534 20.7272L32.8955 20.4643L32.8913 20.4751L33.534 20.7272ZM32.1344 22.9371L32.635 23.4126L32.6353 23.4123L32.1344 22.9371ZM29.9491 24.4594L29.6756 23.8255L29.671 23.8275L29.9491 24.4594ZM16.6161 24.3092C16.3569 24.3092 16.172 24.2268 16.0124 24.0583L15.0099 25.0079C15.4395 25.4614 15.9913 25.6901 16.6161 25.6901V24.3092ZM16.0257 24.0727C15.8802 23.9101 15.7841 23.6829 15.7841 23.3299H14.4033C14.4033 23.9591 14.5855 24.534 14.9966 24.9935L16.0257 24.0727ZM15.7841 23.3299C15.7841 22.9992 15.8763 22.7947 16.0131 22.6499L15.0092 21.7018C14.5894 22.1463 14.4033 22.7112 14.4033 23.3299H15.7841ZM15.9993 22.6641C16.1561 22.5074 16.3449 22.4243 16.6161 22.4243V21.0435C16.0033 21.0435 15.4555 21.2551 15.0229 21.6877L15.9993 22.6641ZM16.6161 22.4243H27.0026V21.0435H16.6161V22.4243ZM27.0026 22.4243C27.5448 22.4243 28.0816 22.3272 28.6098 22.1386L28.1454 20.8382C27.7569 20.9769 27.377 21.0435 27.0026 21.0435V22.4243ZM28.6301 22.131C29.1683 21.9195 29.6461 21.6184 30.0569 21.2271L29.1046 20.2272C28.8279 20.4907 28.5036 20.6971 28.1252 20.8458L28.6301 22.131ZM30.0533 21.2305C30.9866 20.3544 31.4744 19.275 31.4744 18.0262H30.0935C30.0935 18.8727 29.7792 19.594 29.1082 20.2238L30.0533 21.2305ZM31.4744 18.0262C31.4744 16.7847 31.0073 15.7382 30.0774 14.9468L29.1824 15.9983C29.7912 16.5165 30.0935 17.1724 30.0935 18.0262H31.4744ZM30.0792 14.9483C29.6572 14.5867 29.1626 14.3227 28.6068 14.1502L28.1975 15.469C28.5912 15.5911 28.915 15.7691 29.1806 15.9968L30.0792 14.9483ZM28.6344 14.1594C28.1081 13.9714 27.5628 13.8682 27.001 13.8494L26.955 15.2295C27.3754 15.2435 27.7795 15.3203 28.17 15.4598L28.6344 14.1594ZM26.978 13.8491H22.1408V15.2299H26.978V13.8491ZM22.1408 13.8491C21.3174 13.8491 20.5447 13.6879 19.8161 13.3673L19.26 14.6312C20.1683 15.0309 21.1309 15.2299 22.1408 15.2299V13.8491ZM19.8208 13.3694C19.097 13.0445 18.4653 12.6033 17.921 12.0444L16.9317 13.0077C17.5988 13.6928 18.3749 14.2339 19.2553 14.6291L19.8208 13.3694ZM17.921 12.0444C17.3772 11.4858 16.9598 10.8486 16.666 10.1289L15.3876 10.6507C15.7486 11.5352 16.2643 12.3222 16.9317 13.0077L17.921 12.0444ZM16.6678 10.1334C16.3738 9.39822 16.2261 8.626 16.2261 7.81159H14.8453C14.8453 8.79784 15.025 9.74442 15.3857 10.6462L16.6678 10.1334ZM16.2261 7.81159C16.2261 7.01989 16.3795 6.27955 16.6839 5.58378L15.4188 5.03032C15.0357 5.90602 14.8453 6.83538 14.8453 7.81159H16.2261ZM16.6839 5.58378C16.9932 4.87681 17.419 4.25285 17.9637 3.70813L16.9873 2.73173C16.3207 3.39836 15.797 4.16581 15.4188 5.03032L16.6839 5.58378ZM17.9637 3.70813C18.5036 3.16818 19.13 2.75264 19.8481 2.45955L19.3263 1.18111C18.4401 1.54281 17.6587 2.06033 16.9873 2.73173L17.9637 3.70813ZM19.8591 2.45493C20.5726 2.14917 21.331 1.99511 22.1408 1.99511V0.61427C21.15 0.61427 20.206 0.803967 19.3152 1.18574L19.8591 2.45493ZM22.1408 1.99511H31.1032V0.61427H22.1408V1.99511ZM31.1032 1.99511C31.422 1.99511 31.6385 2.08828 31.8069 2.24788L32.7566 1.24546C32.303 0.815753 31.7338 0.61427 31.1032 0.61427V1.99511ZM31.8214 2.2612C31.9599 2.38511 32.0579 2.568 32.0579 2.90072H33.4387C33.4387 2.25127 33.2257 1.6648 32.7421 1.23214L31.8214 2.2612ZM32.0579 2.90072C32.0579 3.25556 31.955 3.47877 31.7936 3.64024L32.77 4.61664C33.2305 4.15606 33.4387 3.5608 33.4387 2.90072H32.0579ZM31.7936 3.64024C31.6229 3.81087 31.4108 3.90455 31.1032 3.90455V5.28539C31.7449 5.28539 32.3186 5.06805 32.77 4.61664L31.7936 3.64024ZM31.1032 3.90455H22.1163V5.28539H31.1032V3.90455ZM22.1163 3.90455C21.0221 3.90455 20.0637 4.32067 19.2708 5.1135L20.2472 6.0899C20.7967 5.54042 21.4098 5.28539 22.1163 5.28539V3.90455ZM19.2578 5.12687C18.9063 5.49797 18.6256 5.92538 18.415 6.40403L19.6789 6.96015C19.8284 6.62033 20.0225 6.32748 20.2603 6.07653L19.2578 5.12687ZM18.4097 6.41655C18.2109 6.89356 18.111 7.39305 18.111 7.90981H19.4918C19.4918 7.57535 19.5556 7.25637 19.6843 6.94764L18.4097 6.41655ZM18.111 7.90981C18.111 8.43937 18.2095 8.95203 18.4059 9.44305L19.688 8.93022C19.557 8.60276 19.4918 8.2642 19.4918 7.90981H18.111ZM18.415 9.46469C18.6304 9.9543 18.9281 10.3831 19.3088 10.7437L20.2584 9.74126C20.017 9.51254 19.8236 9.23745 19.6789 8.90858L18.415 9.46469ZM19.2824 10.7173C19.643 11.0979 20.0718 11.3956 20.5614 11.6111L21.1175 10.3472C20.7886 10.2024 20.5135 10.0091 20.2848 9.76764L19.2824 10.7173ZM20.5614 11.6111C21.0572 11.8292 21.5774 11.9396 22.1163 11.9396V10.5588C21.7712 10.5588 21.4402 10.4891 21.1175 10.3472L20.5614 11.6111ZM22.1163 11.9396H27.2481V10.5588H22.1163V11.9396ZM27.2481 11.9396C28.1078 11.9396 28.9064 12.1021 29.6511 12.4233L30.198 11.1554C29.273 10.7564 28.2874 10.5588 27.2481 10.5588V11.9396ZM29.6617 12.4278C30.4106 12.7362 31.0599 13.1744 31.6154 13.7445L32.6044 12.7808C31.9158 12.0741 31.1082 11.5301 30.1874 11.151L29.6617 12.4278ZM31.6154 13.7445C32.1728 14.3165 32.5973 14.9749 32.8913 15.7246L34.1768 15.2205C33.816 14.3005 33.2911 13.4856 32.6044 12.7808L31.6154 13.7445ZM32.8956 15.7354C33.2045 16.4856 33.3593 17.2719 33.3593 18.0999H34.7401C34.7401 17.0944 34.5511 16.1292 34.1725 15.2097L32.8956 15.7354ZM33.3593 18.0999C33.3593 18.9278 33.2045 19.7141 32.8956 20.4643L34.1725 20.9901C34.5511 20.0705 34.7401 19.1053 34.7401 18.0999H33.3593ZM32.8913 20.4751C32.5957 21.2288 32.1768 21.8893 31.6336 22.4619L32.6353 23.4123C33.3034 22.7081 33.8176 21.8953 34.1768 20.9792L32.8913 20.4751ZM31.6339 22.4615C31.0765 23.0483 30.4255 23.502 29.6756 23.8255L30.2226 25.0934C31.1424 24.6966 31.9483 24.1354 32.635 23.4126L31.6339 22.4615ZM29.671 23.8275C28.9455 24.1467 28.1569 24.3092 27.2972 24.3092V25.6901C28.3364 25.6901 29.3157 25.4924 30.2272 25.0914L29.671 23.8275ZM27.2972 24.3092H16.6161V25.6901H27.2972V24.3092Z" fill="url(#paint1_linear_1603_20759)" mask="url(#path-1-outside-1_1603_20759)"/>
<defs>
<linearGradient id="paint0_linear_1603_20759" x1="-1.31055" y1="9.49963" x2="35.6895" y2="9.49963" gradientUnits="userSpaceOnUse">
<stop stop-color="#6A67AF"/>
<stop offset="1" stop-color="#9996DE"/>
</linearGradient>
<linearGradient id="paint1_linear_1603_20759" x1="-1.31055" y1="9.49963" x2="35.6895" y2="9.49963" gradientUnits="userSpaceOnUse">
<stop stop-color="#6A67AF"/>
<stop offset="1" stop-color="#9996DE"/>
</linearGradient>
</defs>
</svg>
