<svg width="55" height="56" viewBox="0 0 55 56" fill="none" xmlns="http://www.w3.org/2000/svg">
<rect y="0.223633" width="55" height="55" rx="27.5" fill="#6A67AF"/>
<g clip-path="url(#clip0_2318_1877)">
<path d="M40.0895 31.7377C39.8439 30.9127 40.1771 29.9502 41.2355 29.9502C42.2939 29.9502 42.6272 30.9127 42.3816 31.7377C42.2086 32.3187 41.7514 33.65 41.4962 34.3865C41.4491 34.5222 41.5441 34.665 41.6747 34.7369C41.8052 34.8087 41.9793 34.8118 42.0801 34.7056C42.6277 34.1286 43.6201 33.0886 44.0665 32.6565C44.7002 32.0431 45.7493 31.8344 46.2785 32.7002C46.8077 33.5659 46.0918 34.3198 45.2125 34.5314C44.5933 34.6804 43.1439 34.9721 42.341 35.1316C42.1931 35.1609 42.109 35.3075 42.109 35.4502C42.109 35.5929 42.1931 35.7394 42.341 35.7688C43.1439 35.9283 44.5933 36.22 45.2126 36.369C46.0918 36.5806 46.8077 37.3344 46.2785 38.2002C45.7493 39.0659 44.7002 38.8573 44.0665 38.2439C43.6201 37.8118 42.6277 36.7718 42.0801 36.1948C41.9793 36.0886 41.8052 36.0917 41.6747 36.1635C41.5441 36.2354 41.4491 36.3781 41.4962 36.5138C41.7514 37.2504 42.2086 38.5817 42.3816 39.1627C42.6272 39.9877 42.294 40.9502 41.2355 40.9502C40.1771 40.9502 39.8439 39.9877 40.0895 39.1627C40.2625 38.5817 40.7196 37.2504 40.9749 36.5138C41.0219 36.3781 40.927 36.2354 40.7964 36.1635C40.6659 36.0917 40.4918 36.0886 40.391 36.1948C39.8434 36.7718 38.8509 37.8118 38.4046 38.2439C37.7709 38.8573 36.7218 39.066 36.1926 38.2002C35.6634 37.3345 36.3793 36.5806 37.2585 36.369C37.8778 36.22 39.3272 35.9283 40.1301 35.7688C40.278 35.7394 40.3621 35.5929 40.3621 35.4502C40.3621 35.3075 40.278 35.161 40.1301 35.1316C39.3272 34.9721 37.8778 34.6804 37.2585 34.5314C36.3793 34.3198 35.6634 33.566 36.1926 32.7002C36.7218 31.8344 37.7709 32.0431 38.4046 32.6565C38.8509 33.0886 39.8433 34.1286 40.391 34.7056C40.4918 34.8118 40.6659 34.8087 40.7964 34.7369C40.927 34.665 41.0219 34.5222 40.9749 34.3865C40.7196 33.65 40.2624 32.3187 40.0895 31.7377Z" fill="white"/>
</g>
<path d="M12.2327 40.0078L12.2326 40.0078L12.2369 40.012C12.5358 40.2961 12.8945 40.4421 13.3022 40.4421C13.7203 40.4421 14.0861 40.2978 14.3867 40.012C14.6905 39.7232 14.8442 39.3601 14.8442 38.9378V29.3303L26.5096 39.9958L26.5096 39.9958C26.8348 40.2929 27.1921 40.4566 27.5763 40.442C27.9859 40.4408 28.3442 40.2856 28.6411 39.9885C28.9372 39.6922 29.0943 39.3391 29.0943 38.9378C29.0943 38.4867 28.9466 38.1092 28.6307 37.8387L16.7499 26.9557L27.6856 17.2629C27.9978 16.9964 28.1599 16.6252 28.1888 16.1775L28.1892 16.17V16.1625C28.1892 15.7595 28.0246 15.391 27.7241 15.0616L27.7168 15.0536L27.7088 15.0464C27.3901 14.7565 27.028 14.6005 26.628 14.6005C26.2634 14.6005 25.9226 14.7525 25.6094 15.0232L25.6094 15.0231L25.6065 15.0257L14.8442 24.6413V16.1047C14.8442 15.6824 14.6905 15.3193 14.3867 15.0306C14.0861 14.7447 13.7203 14.6005 13.3022 14.6005C12.8945 14.6005 12.5358 14.7464 12.2369 15.0306L12.2369 15.0305L12.2327 15.0347C11.9431 15.3244 11.7987 15.6863 11.7987 16.1047V38.9378C11.7987 39.3562 11.9431 39.7181 12.2327 40.0078Z" fill="white" stroke="white" stroke-width="0.465065"/>
<path d="M26.7718 40.0883L26.7718 40.0883L26.776 40.0921C27.0878 40.3744 27.4577 40.5184 27.8756 40.5184C28.2828 40.5184 28.6326 40.3725 28.9088 40.0819C29.1985 39.7909 29.3406 39.4226 29.3406 38.9949V31.5187C29.3406 30.5732 29.5206 29.6728 29.8806 28.8156C30.2544 27.9429 30.7643 27.1846 31.41 26.5384C32.0565 25.8916 32.8019 25.3881 33.6477 25.0272C34.4918 24.667 35.3722 24.4871 36.2909 24.4871H36.4449C36.8802 24.4871 37.255 24.3546 37.5485 24.0765L37.5487 24.0762C37.8543 23.7858 38.0062 23.4154 38.0062 22.9828C38.0062 22.5461 37.8664 22.1747 37.5723 21.8935C37.2882 21.5962 36.902 21.4593 36.4449 21.4593H36.2909C34.9504 21.4593 33.6738 21.7224 32.4632 22.2489C31.2549 22.7616 30.1839 23.4849 29.2517 24.4177L29.2517 24.4177L29.2505 24.4189C28.3312 25.3519 27.609 26.4295 27.0843 27.6503L27.0843 27.6503L27.0834 27.6522C26.5706 28.876 26.3143 30.1654 26.3143 31.5187V38.9949C26.3143 39.4274 26.4663 39.7979 26.7718 40.0883Z" fill="white" stroke="white" stroke-width="0.465065"/>
<defs>
<clipPath id="clip0_2318_1877">
<rect width="11.0388" height="11.2955" fill="white" transform="translate(35.7344 29.9502)"/>
</clipPath>
</defs>
</svg>
