<svg width="332" height="261" viewBox="0 0 332 261" fill="none" xmlns="http://www.w3.org/2000/svg">
<g filter="url(#filter0_d_1515_10184)">
<rect x="50.0234" y="15" width="262" height="82.4046" rx="12.1156" transform="rotate(8.79156 50.0234 15)" fill="white" shape-rendering="crispEdges"/>
<path d="M68.4027 36.7892L68.2304 37.9027L66.0154 37.5601L64.9006 44.768L63.5357 44.5569L64.6504 37.349L62.4234 37.0046L62.5956 35.8911L68.4027 36.7892ZM71.343 45.8747C70.7204 45.7784 70.1792 45.5517 69.7196 45.1945C69.2611 44.8294 68.9277 44.3692 68.7194 43.8139C68.5123 43.2506 68.4612 42.6297 68.5661 41.9512C68.6698 41.2807 68.9094 40.7089 69.285 40.2357C69.6606 39.7626 70.1254 39.4258 70.6795 39.2254C71.2336 39.0251 71.8259 38.9736 72.4565 39.0712C73.0871 39.1687 73.6362 39.3967 74.1039 39.755C74.5715 40.1134 74.9129 40.5749 75.128 41.1394C75.3431 41.7039 75.3988 42.3214 75.2951 42.9919C75.1914 43.6624 74.9478 44.2336 74.5642 44.7056C74.1806 45.1775 73.7032 45.5164 73.1319 45.7223C72.5699 45.9214 71.9736 45.9722 71.343 45.8747ZM71.5263 44.6893C71.8775 44.7437 72.2178 44.7105 72.547 44.5898C72.8842 44.4703 73.1746 44.2577 73.418 43.9521C73.6614 43.6465 73.8201 43.2542 73.8942 42.7753C73.9683 42.2963 73.9388 41.879 73.8059 41.5234C73.6741 41.1597 73.4695 40.8706 73.1921 40.6561C72.9147 40.4416 72.6004 40.3071 72.2492 40.2528C71.898 40.1985 71.5578 40.2317 71.2285 40.3524C70.9073 40.4744 70.6329 40.6894 70.4054 40.9975C70.1792 41.2976 70.0291 41.6871 69.955 42.166C69.8451 42.8765 69.9396 43.455 70.2383 43.9017C70.5462 44.3416 70.9755 44.6042 71.5263 44.6893ZM78.5739 41.2678L78.0091 44.9196C77.9708 45.167 77.9989 45.3553 78.0934 45.4843C78.1971 45.6066 78.3886 45.6894 78.668 45.7326L79.5061 45.8622L79.3302 46.9996L78.2526 46.833C77.638 46.7379 77.1892 46.5214 76.9064 46.1834C76.6236 45.8455 76.5322 45.3532 76.6322 44.7066L77.197 41.0548L76.4187 40.9344L76.5909 39.8209L77.3692 39.9413L77.6229 38.301L78.9998 38.5139L78.7461 40.1542L80.3505 40.4024L80.1783 41.5159L78.5739 41.2678ZM80.648 43.7953C80.7505 43.1328 80.9769 42.5671 81.3273 42.0982C81.6857 41.6305 82.122 41.2934 82.6361 41.0869C83.1595 40.8736 83.7086 40.8114 84.2833 40.9003C84.8021 40.9805 85.2371 41.154 85.5881 41.4208C85.9484 41.6809 86.2208 41.9805 86.4054 42.3196L86.5535 41.3617L87.9304 41.5747L86.9101 48.1719L85.5332 47.959L85.685 46.9772C85.4054 47.2527 85.05 47.4633 84.6188 47.6091C84.1876 47.755 83.7165 47.7884 83.2057 47.7094C82.6389 47.6217 82.1423 47.3978 81.7158 47.0376C81.2905 46.6694 80.9783 46.2043 80.7792 45.6423C80.5893 45.0735 80.5456 44.4578 80.648 43.7953ZM86.0443 44.6544C86.1146 44.1994 86.08 43.7894 85.9402 43.4246C85.8085 43.0609 85.6045 42.7678 85.3284 42.5453C85.0522 42.3228 84.7385 42.1844 84.3873 42.1301C84.0361 42.0757 83.6952 42.1129 83.3648 42.2416C83.0355 42.3623 82.7492 42.5755 82.5058 42.8811C82.2716 43.18 82.1193 43.5569 82.0489 44.0119C81.9785 44.4669 82.0086 44.8802 82.1391 45.2518C82.2776 45.6247 82.4843 45.9264 82.7592 46.1569C83.0434 46.3806 83.3571 46.5191 83.7003 46.5721C84.0515 46.6265 84.3924 46.5893 84.7229 46.4606C85.0533 46.3319 85.3363 46.1141 85.5717 45.8072C85.8164 45.4936 85.9739 45.1093 86.0443 44.6544ZM91.4382 39.8001L90.0679 48.6603L88.7029 48.4492L90.0732 39.589L91.4382 39.8001ZM97.4517 42.4097L97.074 44.8523L99.9476 45.2967L99.7753 46.4102L96.9018 45.9658L96.5073 48.5161L99.7401 49.016L99.5679 50.1296L94.9702 49.4185L96.259 41.0851L100.857 41.7962L100.685 42.9097L97.4517 42.4097ZM105.615 44.1993C106.134 44.2796 106.58 44.4589 106.954 44.7374C107.335 45.0171 107.609 45.3864 107.775 45.8453C107.941 46.3041 107.978 46.8329 107.885 47.4315L107.284 51.3229L105.931 51.1136L106.501 47.4258C106.592 46.8352 106.514 46.3613 106.267 46.0043C106.021 45.6394 105.643 45.4174 105.132 45.3384C104.621 45.2594 104.189 45.3561 103.837 45.6284C103.493 45.8941 103.276 46.3222 103.184 46.9129L102.614 50.6007L101.249 50.3896L102.269 43.7923L103.634 44.0034L103.518 44.7577C103.783 44.5209 104.099 44.3532 104.466 44.2546C104.841 44.1573 105.224 44.1388 105.615 44.1993ZM112.72 45.2982C113.231 45.3772 113.666 45.5507 114.025 45.8187C114.393 46.08 114.665 46.3796 114.842 46.7175L114.99 45.7596L116.367 45.9726L115.33 52.6776C115.236 53.2843 115.025 53.8033 114.697 54.2347C114.367 54.6742 113.938 54.9919 113.409 55.188C112.888 55.3853 112.293 55.4322 111.622 55.3285C110.728 55.1902 110.018 54.8639 109.493 54.3494C108.967 53.843 108.719 53.2244 108.75 52.4937L110.103 52.7029C110.154 53.0622 110.331 53.3716 110.634 53.6309C110.944 53.8995 111.334 54.0703 111.805 54.1431C112.356 54.2283 112.825 54.1292 113.212 53.8458C113.607 53.5636 113.854 53.1032 113.953 52.4647L114.123 51.3631C113.844 51.6386 113.488 51.8533 113.055 52.0071C112.632 52.1541 112.169 52.1887 111.666 52.111C111.091 52.0221 110.587 51.7969 110.152 51.4355C109.727 51.0673 109.415 50.6022 109.216 50.0402C109.026 49.4714 108.982 48.8557 109.085 48.1932C109.187 47.5307 109.413 46.965 109.764 46.4961C110.122 46.0284 110.558 45.6913 111.073 45.4848C111.596 45.2715 112.145 45.2093 112.72 45.2982ZM114.481 49.0523C114.551 48.5973 114.516 48.1874 114.377 47.8225C114.245 47.4588 114.041 47.1658 113.765 46.9432C113.489 46.7207 113.175 46.5823 112.824 46.528C112.473 46.4737 112.132 46.5109 111.801 46.6395C111.472 46.7603 111.186 46.9734 110.942 47.2791C110.708 47.5779 110.556 47.9549 110.485 48.4098C110.415 48.8648 110.445 49.2781 110.576 49.6498C110.714 50.0226 110.921 50.3243 111.196 50.5548C111.48 50.7786 111.794 50.917 112.137 50.9701C112.488 51.0244 112.829 50.9872 113.159 50.8585C113.49 50.7298 113.773 50.512 114.008 50.2052C114.253 49.8916 114.41 49.5073 114.481 49.0523ZM117.199 49.4482C117.302 48.7857 117.528 48.22 117.879 47.7511C118.237 47.2834 118.673 46.9463 119.187 46.7398C119.711 46.5265 120.26 46.4643 120.834 46.5532C121.353 46.6334 121.788 46.8069 122.139 47.0737C122.5 47.3338 122.772 47.6334 122.957 47.9725L123.105 47.0146L124.482 47.2276L123.461 53.8248L122.084 53.6119L122.236 52.6301C121.957 52.9056 121.601 53.1162 121.17 53.2621C120.739 53.4079 120.268 53.4413 119.757 53.3623C119.19 53.2746 118.694 53.0507 118.267 52.6905C117.842 52.3223 117.53 51.8572 117.33 51.2952C117.14 50.7264 117.097 50.1107 117.199 49.4482ZM122.595 50.3073C122.666 49.8523 122.631 49.4424 122.491 49.0775C122.36 48.7138 122.156 48.4208 121.88 48.1982C121.603 47.9757 121.29 47.8373 120.938 47.783C120.587 47.7287 120.246 47.7658 119.916 47.8945C119.587 48.0153 119.3 48.2284 119.057 48.5341C118.823 48.8329 118.67 49.2099 118.6 49.6648C118.53 50.1198 118.56 50.5331 118.69 50.9048C118.829 51.2776 119.035 51.5793 119.31 51.8098C119.595 52.0336 119.908 52.172 120.251 52.2251C120.603 52.2794 120.944 52.2422 121.274 52.1135C121.605 51.9848 121.887 51.767 122.123 51.4602C122.368 51.1466 122.525 50.7623 122.595 50.3073ZM128.949 47.8082C129.46 47.8872 129.895 48.0607 130.254 48.3287C130.622 48.59 130.895 48.8896 131.071 49.2275L131.219 48.2696L132.596 48.4826L131.559 55.1876C131.465 55.7942 131.254 56.3133 130.926 56.7447C130.597 57.1842 130.167 57.5019 129.639 57.698C129.118 57.8953 128.522 57.9421 127.851 57.8384C126.957 57.7002 126.248 57.3738 125.723 56.8594C125.196 56.353 124.949 55.7344 124.98 55.0037L126.333 55.2129C126.383 55.5722 126.56 55.8816 126.864 56.1409C127.173 56.4095 127.564 56.5803 128.035 56.6531C128.586 56.7383 129.055 56.6392 129.442 56.3558C129.837 56.0736 130.084 55.6132 130.182 54.9747L130.353 53.8731C130.073 54.1486 129.717 54.3633 129.285 54.5171C128.861 54.6641 128.398 54.6987 127.895 54.621C127.321 54.5321 126.816 54.3069 126.382 53.9455C125.956 53.5773 125.644 53.1122 125.445 52.5502C125.255 51.9814 125.211 51.3657 125.314 50.7032C125.416 50.0407 125.643 49.475 125.993 49.0061C126.352 48.5384 126.788 48.2013 127.302 47.9948C127.825 47.7815 128.374 47.7193 128.949 47.8082ZM130.71 51.5623C130.781 51.1073 130.746 50.6974 130.606 50.3325C130.474 49.9688 130.27 49.6757 129.994 49.4532C129.718 49.2307 129.404 49.0923 129.053 49.038C128.702 48.9837 128.361 49.0208 128.031 49.1495C127.701 49.2703 127.415 49.4834 127.172 49.789C126.937 50.0879 126.785 50.4649 126.715 50.9198C126.644 51.3748 126.674 51.7881 126.805 52.1598C126.943 52.5326 127.15 52.8343 127.425 53.0648C127.709 53.2886 128.023 53.427 128.366 53.4801C128.717 53.5344 129.058 53.4972 129.389 53.3685C129.719 53.2398 130.002 53.022 130.238 52.7152C130.482 52.4015 130.64 52.0173 130.71 51.5623ZM139.95 52.832C139.912 53.0794 139.862 53.3005 139.799 53.4951L134.758 52.7155C134.717 53.2485 134.847 53.7018 135.149 54.0754C135.45 54.449 135.857 54.6753 136.368 54.7543C137.102 54.8679 137.668 54.6408 138.067 54.0731L139.539 54.3009C139.246 54.8766 138.806 55.3194 138.218 55.629C137.64 55.9319 136.964 56.0235 136.19 55.9037C135.559 55.8062 135.014 55.5789 134.554 55.2217C134.104 54.8578 133.775 54.3982 133.566 53.8429C133.367 53.2809 133.32 52.6606 133.425 51.9821C133.53 51.3036 133.757 50.73 134.108 50.2611C134.468 49.7854 134.916 49.4462 135.454 49.2434C136.001 49.0418 136.597 48.991 137.243 49.091C137.866 49.1872 138.4 49.4087 138.845 49.7554C139.29 50.1021 139.61 50.5439 139.804 51.0808C140.001 51.6097 140.049 52.1934 139.95 52.832ZM138.592 52.1806C138.662 51.6765 138.545 51.2456 138.241 50.888C137.936 50.5303 137.525 50.3114 137.006 50.2311C136.535 50.1583 136.108 50.2476 135.726 50.4991C135.345 50.7426 135.083 51.1148 134.94 51.6158L138.592 52.1806ZM149.782 51.0301C150.301 51.1103 150.747 51.2897 151.121 51.5682C151.502 51.8479 151.776 52.2172 151.942 52.676C152.116 53.1361 152.157 53.6655 152.064 54.2642L151.463 58.1555L150.11 57.9462L150.68 54.2584C150.771 53.6678 150.693 53.1939 150.446 52.837C150.2 52.472 149.822 52.25 149.311 52.171C148.8 52.092 148.368 52.1887 148.016 52.461C147.672 52.7267 147.455 53.1548 147.363 53.7455L146.793 57.4333L145.44 57.224L146.01 53.5363C146.102 52.9456 146.024 52.4718 145.777 52.1148C145.531 51.7498 145.152 51.5278 144.641 51.4488C144.131 51.3698 143.699 51.4665 143.346 51.7389C143.003 52.0045 142.785 52.4326 142.694 53.0233L142.123 56.7111L140.759 56.5L141.779 49.9027L143.144 50.1138L143.027 50.8681C143.293 50.6313 143.609 50.4636 143.975 50.365C144.342 50.2665 144.721 50.2474 145.112 50.3079C145.639 50.3894 146.093 50.574 146.473 50.8617C146.854 51.1494 147.123 51.522 147.281 51.9796C147.542 51.6114 147.902 51.3442 148.361 51.1782C148.821 51.0041 149.295 50.9548 149.782 51.0301ZM159.781 55.8989C159.743 56.1464 159.692 56.3674 159.63 56.562L154.589 55.7825C154.547 56.3154 154.677 56.7687 154.979 57.1424C155.281 57.516 155.687 57.7423 156.198 57.8213C156.933 57.9348 157.499 57.7078 157.897 57.1401L159.37 57.3678C159.077 57.9436 158.636 58.3863 158.049 58.696C157.471 58.9989 156.795 59.0905 156.021 58.9707C155.39 58.8732 154.845 58.6458 154.385 58.2887C153.935 57.9248 153.605 57.4652 153.397 56.9099C153.198 56.3478 153.151 55.7276 153.256 55.0491C153.361 54.3706 153.588 53.7969 153.939 53.328C154.298 52.8524 154.747 52.5132 155.285 52.3103C155.831 52.1087 156.428 52.0579 157.074 52.1579C157.697 52.2542 158.231 52.4757 158.675 52.8224C159.12 53.1691 159.44 53.6109 159.635 54.1478C159.831 54.6766 159.88 55.2604 159.781 55.8989ZM158.423 55.2475C158.493 54.7434 158.376 54.3126 158.071 53.9549C157.767 53.5973 157.355 53.3783 156.837 53.2981C156.366 53.2253 155.939 53.3146 155.557 53.5661C155.176 53.8095 154.914 54.1818 154.771 54.6828L158.423 55.2475ZM164.955 53.3767C165.474 53.457 165.92 53.6363 166.294 53.9148C166.675 54.1945 166.949 54.5638 167.115 55.0227C167.281 55.4815 167.318 56.0103 167.226 56.6089L166.624 60.5002L165.271 60.291L165.841 56.6032C165.932 56.0125 165.855 55.5387 165.607 55.1817C165.361 54.8168 164.983 54.5948 164.472 54.5158C163.961 54.4368 163.53 54.5335 163.177 54.8058C162.833 55.0715 162.616 55.4996 162.525 56.0903L161.954 59.7781L160.589 59.567L161.61 52.9697L162.975 53.1808L162.858 53.9351C163.123 53.6983 163.439 53.5306 163.806 53.432C164.181 53.3347 164.564 53.3162 164.955 53.3767ZM170.805 55.532L170.241 59.1839C170.202 59.4313 170.23 59.6196 170.325 59.7486C170.429 59.8709 170.62 59.9536 170.9 59.9969L171.738 60.1265L171.562 61.2639L170.484 61.0973C169.869 61.0022 169.421 60.7857 169.138 60.4477C168.855 60.1098 168.764 59.6175 168.864 58.9709L169.428 55.3191L168.65 55.1987L168.822 54.0852L169.601 54.2056L169.854 52.5652L171.231 52.7782L170.978 54.4185L172.582 54.6667L172.41 55.7802L170.805 55.532Z" fill="#667085"/>
<path d="M56.8663 75.4352L57.1719 73.4596L64.3447 65.9626L67.2721 66.4154L66.0055 74.6051L67.586 74.8495L67.2471 77.0406L65.6667 76.7962L65.2722 79.3465L62.7579 78.9576L63.1523 76.4073L56.8663 75.4352ZM64.5027 68.7455L59.971 73.6718L63.6528 74.2412L64.5027 68.7455ZM78.9427 70.2799L73.1237 69.38L72.6487 72.4511C72.9483 72.1787 73.3464 71.9828 73.8429 71.8635C74.3414 71.7321 74.854 71.7072 75.3808 71.7887C76.3387 71.9368 77.0905 72.2677 77.6364 72.7812C78.1822 73.2947 78.5419 73.902 78.7154 74.6031C78.8908 75.2922 78.9211 76.008 78.8063 76.7503C78.5933 78.1273 78.0269 79.1737 77.1071 79.8896C76.1992 80.6074 75.0209 80.8542 73.5721 80.6301C72.2071 80.419 71.1704 79.9093 70.4617 79.1009C69.7531 78.2925 69.4301 77.3292 69.4927 76.211L71.9352 76.5888C71.9689 77.0844 72.1491 77.5045 72.4759 77.8493C72.8146 78.1959 73.2772 78.4146 73.8639 78.5053C74.5704 78.6146 75.1374 78.4755 75.5651 78.088C75.9929 77.7006 76.2632 77.1416 76.3761 76.4113C76.491 75.6689 76.3924 75.0775 76.0805 74.6369C75.7824 74.1863 75.2801 73.9063 74.5737 73.7971C74.0708 73.7193 73.6323 73.7802 73.2582 73.9798C72.8841 74.1794 72.5927 74.4776 72.3843 74.8744L69.9776 74.5022L71.1665 66.8154L79.2843 68.0709L78.9427 70.2799ZM81.3931 81.9685C80.9381 81.8981 80.5823 81.7021 80.3255 81.3804C80.0826 81.0486 79.9936 80.6732 80.0584 80.2541C80.1232 79.835 80.3206 79.51 80.6505 79.2791C80.9943 79.038 81.3937 78.9527 81.8487 79.023C82.2917 79.0915 82.6346 79.2917 82.8776 79.6235C83.1223 79.9433 83.2123 80.3128 83.1475 80.7318C83.0827 81.1509 82.8844 81.4819 82.5526 81.7248C82.2226 81.9558 81.8361 82.037 81.3931 81.9685ZM85.9062 79.6322C87.2037 78.8521 88.2428 78.1975 89.0235 77.6685C89.8059 77.1275 90.4784 76.5449 91.0407 75.9208C91.6031 75.2968 91.9362 74.6495 92.0399 73.979C92.1343 73.3683 92.0647 72.8672 91.831 72.4755C91.5974 72.0838 91.1812 71.8417 90.5826 71.7491C89.9839 71.6565 89.4914 71.7888 89.1052 72.1459C88.7208 72.491 88.4689 73.0099 88.3496 73.7025L85.907 73.3247C86.1771 71.8953 86.7707 70.8715 87.6877 70.2532C88.6167 69.6368 89.7038 69.4249 90.949 69.6175C92.314 69.8286 93.3051 70.3558 93.9226 71.1991C94.5418 72.0304 94.7598 73.0388 94.5765 74.2242C94.432 75.1581 94.0426 76.0112 93.4083 76.7835C92.7739 77.5558 92.0844 78.2093 91.3397 78.7439C90.5969 79.2665 89.6361 79.8903 88.4574 80.6152L93.7556 81.4346L93.4333 83.5179L84.5612 82.1458L84.85 80.278L85.9062 79.6322ZM102.354 85.0814L98.6556 78.7904L97.7917 84.3759L95.2773 83.987L97.2161 71.451L99.7305 71.8399L98.8611 77.4613L104.292 72.5454L107.328 73.0148L101.194 78.429L105.532 85.573L102.354 85.0814Z" fill="black"/>
<path d="M117.861 83.8632L115.598 83.5132L115.239 85.836L113.658 85.5916L114.018 83.2687L111.755 82.9188L111.981 81.458L114.243 81.808L114.603 79.4852L116.183 79.7296L115.824 82.0524L118.087 82.4024L117.861 83.8632ZM119.837 80.4295L120.075 78.8849L122.961 79.3312L121.611 88.0597L119.887 87.7931L120.998 80.6091L119.837 80.4295ZM124.086 86.5055C124.951 85.9855 125.644 85.5491 126.165 85.1964C126.686 84.8357 127.135 84.4474 127.509 84.0313C127.884 83.6153 128.106 83.1837 128.176 82.7367C128.239 82.3296 128.192 81.9955 128.036 81.7344C127.881 81.4733 127.603 81.3119 127.204 81.2502C126.805 81.1885 126.477 81.2766 126.219 81.5147C125.963 81.7448 125.795 82.0907 125.715 82.5524L124.087 82.3006C124.267 81.3476 124.663 80.6651 125.274 80.2529C125.893 79.842 126.618 79.7007 127.448 79.8291C128.358 79.9698 129.019 80.3213 129.431 80.8835C129.844 81.4377 129.989 82.11 129.867 82.9002C129.77 83.5228 129.511 84.0916 129.088 84.6064C128.665 85.1213 128.205 85.557 127.709 85.9134C127.214 86.2618 126.573 86.6776 125.787 87.1609L129.319 87.7072L129.105 89.0961L123.19 88.1813L123.382 86.9361L124.086 86.5055ZM130.969 82.7642C131.063 82.1576 131.312 81.7098 131.716 81.4209C132.129 81.1332 132.614 81.0326 133.173 81.119C133.732 81.2054 134.16 81.4474 134.458 81.8449C134.764 82.2437 134.871 82.7464 134.777 83.3531C134.682 83.9677 134.428 84.4189 134.016 84.7065C133.611 84.9955 133.13 85.0967 132.571 85.0103C132.012 84.9239 131.58 84.6813 131.274 84.2825C130.976 83.8849 130.874 83.3789 130.969 82.7642ZM138.934 82.1571L132.932 89.8106L131.304 89.5588L137.293 81.9034L138.934 82.1571ZM133.005 82.1229C132.566 82.055 132.299 82.3323 132.202 82.955C132.105 83.5855 132.276 83.9348 132.715 84.0027C132.93 84.036 133.11 83.9861 133.253 83.853C133.397 83.7118 133.494 83.4816 133.543 83.1623C133.64 82.5397 133.46 82.1933 133.005 82.1229ZM135.487 88.3545C135.582 87.7398 135.831 87.2921 136.234 87.0111C136.646 86.7235 137.132 86.6228 137.69 86.7092C138.249 86.7956 138.674 87.037 138.964 87.4333C139.263 87.8229 139.365 88.325 139.27 88.9396C139.175 89.5543 138.925 90.006 138.521 90.2949C138.125 90.5851 137.647 90.687 137.089 90.6005C136.522 90.5129 136.089 90.2703 135.791 89.8727C135.493 89.4752 135.392 88.9691 135.487 88.3545ZM137.523 87.7131C137.068 87.6428 136.792 87.9189 136.696 88.5415C136.598 89.1721 136.777 89.5226 137.232 89.5929C137.679 89.6621 137.951 89.3813 138.049 88.7507C138.145 88.1281 137.97 87.7823 137.523 87.7131Z" fill="#58B917"/>
<path d="M287.408 76.3375C287.321 75.9807 287.096 75.6731 286.782 75.4821C286.628 75.3863 286.457 75.3216 286.278 75.2917L279.418 74.2308C279.054 74.1745 278.683 74.2651 278.386 74.4826C278.089 74.7001 277.89 75.0267 277.834 75.3905C277.778 75.7544 277.868 76.1257 278.086 76.4228C278.303 76.7199 278.63 76.9184 278.994 76.9747L282.547 77.5242L273.692 84.0072L269.878 78.7818C269.771 78.6335 269.635 78.5079 269.478 78.4124C269.322 78.3169 269.148 78.2533 268.967 78.2253C268.786 78.1973 268.601 78.2054 268.423 78.2492C268.245 78.293 268.078 78.3716 267.93 78.4805L258.426 85.439C258.277 85.5467 258.152 85.6826 258.056 85.839C257.961 85.9954 257.897 86.1692 257.869 86.3503C257.841 86.5314 257.849 86.7163 257.893 86.8943C257.937 87.0722 258.015 87.2397 258.124 87.3872C258.232 87.5355 258.368 87.661 258.524 87.7565C258.681 87.852 258.855 87.9156 259.036 87.9436C259.217 87.9716 259.402 87.9635 259.58 87.9197C259.758 87.8759 259.925 87.7973 260.072 87.6885L268.455 81.5396L272.268 86.7651C272.376 86.9134 272.512 87.0389 272.668 87.1344C272.824 87.23 272.998 87.2935 273.179 87.3216C273.36 87.3496 273.545 87.3414 273.723 87.2976C273.901 87.2539 274.069 87.1753 274.216 87.0664L284.182 79.7578L283.633 83.3111C283.577 83.675 283.667 84.0463 283.885 84.3434C284.102 84.6405 284.429 84.839 284.793 84.8952C285.156 84.9515 285.528 84.8609 285.825 84.6434C286.122 84.4259 286.32 84.0993 286.377 83.7355L287.438 76.8758C287.463 76.6962 287.453 76.5133 287.408 76.3375Z" fill="url(#paint0_linear_1515_10184)"/>
</g>
<g filter="url(#filter1_d_1515_10184)">
<rect x="35.5938" y="108.295" width="262" height="82.4046" rx="12.1156" transform="rotate(8.79156 35.5938 108.295)" fill="white" shape-rendering="crispEdges"/>
<path d="M49.95 129.462L49.1296 134.767C49.0321 135.397 49.1223 135.897 49.4002 136.267C49.686 136.638 50.1243 136.87 50.715 136.961C51.3137 137.054 51.8013 136.966 52.178 136.697C52.5626 136.429 52.8037 135.98 52.9012 135.35L53.7215 130.046L55.0865 130.257L54.2699 135.537C54.1649 136.215 53.9284 136.767 53.5602 137.193C53.192 137.618 52.7426 137.908 52.2119 138.063C51.6812 138.218 51.1165 138.249 50.5178 138.156C49.9192 138.064 49.3903 137.864 48.9312 137.556C48.4801 137.249 48.1473 136.838 47.9328 136.322C47.7182 135.807 47.6634 135.21 47.7684 134.531L48.585 129.251L49.95 129.462ZM59.9422 132.663C60.4611 132.743 60.9074 132.922 61.2811 133.201C61.6629 133.481 61.9368 133.85 62.1028 134.309C62.2689 134.768 62.3056 135.296 62.213 135.895L61.6112 139.786L60.2582 139.577L60.8286 135.889C60.9199 135.299 60.842 134.825 60.5948 134.468C60.3489 134.103 59.9705 133.881 59.4596 133.802C58.9487 133.723 58.517 133.82 58.1643 134.092C57.8208 134.358 57.6033 134.786 57.512 135.376L56.9417 139.064L55.5767 138.853L56.597 132.256L57.962 132.467L57.8453 133.221C58.1108 132.984 58.4269 132.817 58.7936 132.718C59.1682 132.621 59.5511 132.602 59.9422 132.663ZM65.2022 132.692C64.9548 132.653 64.7602 132.538 64.6185 132.344C64.4768 132.15 64.4251 131.93 64.4634 131.682C64.5016 131.435 64.6176 131.24 64.8111 131.099C65.0047 130.957 65.2252 130.905 65.4726 130.944C65.7121 130.981 65.9027 131.096 66.0444 131.289C66.1861 131.483 66.2378 131.704 66.1995 131.951C66.1612 132.198 66.0453 132.393 65.8518 132.535C65.6582 132.676 65.4417 132.729 65.2022 132.692ZM65.7376 133.669L64.7173 140.267L63.3523 140.056L64.3726 133.458L65.7376 133.669ZM66.5691 137.145C66.6716 136.482 66.898 135.917 67.2484 135.448C67.6068 134.98 68.0431 134.643 68.5572 134.437C69.0806 134.223 69.6336 134.162 70.2163 134.252C70.7272 134.331 71.1621 134.504 71.5212 134.772C71.8882 135.042 72.1566 135.341 72.3264 135.669L72.4746 134.711L73.8515 134.924L72.346 144.659L70.9691 144.446L71.6024 140.351C71.3412 140.613 70.991 140.816 70.5518 140.961C70.1126 141.105 69.6336 141.137 69.1148 141.057C68.5481 140.97 68.0514 140.746 67.6249 140.385C67.2076 140.018 66.8994 139.554 66.7003 138.992C66.5104 138.423 66.4667 137.807 66.5691 137.145ZM71.9654 138.004C72.0357 137.549 72.001 137.139 71.8613 136.774C71.7296 136.411 71.5256 136.118 71.2495 135.895C70.9733 135.672 70.6596 135.534 70.3084 135.48C69.9572 135.425 69.6163 135.463 69.2858 135.591C68.9566 135.712 68.6703 135.925 68.4268 136.231C68.1926 136.53 68.0404 136.907 67.97 137.362C67.8996 137.817 67.9297 138.23 68.0602 138.602C68.1987 138.974 68.4054 139.276 68.6803 139.507C68.9645 139.73 69.2782 139.869 69.6214 139.922C69.9726 139.976 70.3135 139.939 70.6439 139.81C70.9744 139.682 71.2574 139.464 71.4928 139.157C71.7375 138.843 71.895 138.459 71.9654 138.004ZM81.619 136.126L80.5987 142.723L79.2337 142.512L79.3541 141.734C79.0966 141.972 78.7799 142.143 78.404 142.249C78.0373 142.347 77.6584 142.366 77.2673 142.306C76.7484 142.225 76.2981 142.046 75.9164 141.766C75.5426 141.487 75.2687 141.118 75.0947 140.658C74.9286 140.199 74.8919 139.67 74.9845 139.072L75.5845 135.192L76.9374 135.402L76.3689 139.077C76.2776 139.668 76.3549 140.146 76.6009 140.511C76.8481 140.868 77.2271 141.086 77.7379 141.165C78.2488 141.244 78.676 141.151 79.0195 140.885C79.3722 140.613 79.5942 140.181 79.6855 139.59L80.254 135.915L81.619 136.126ZM88.9813 140.476C88.943 140.724 88.8925 140.945 88.8297 141.139L83.7889 140.36C83.7474 140.893 83.8775 141.346 84.1793 141.72C84.4812 142.093 84.8875 142.32 85.3984 142.399C86.1327 142.512 86.6991 142.285 87.0975 141.717L88.5702 141.945C88.2768 142.521 87.8365 142.964 87.2492 143.273C86.6711 143.576 85.9949 143.668 85.2206 143.548C84.59 143.451 84.0449 143.223 83.5852 142.866C83.1348 142.502 82.8054 142.043 82.597 141.487C82.3979 140.925 82.3508 140.305 82.4557 139.626C82.5606 138.948 82.7883 138.374 83.1387 137.905C83.4983 137.43 83.9472 137.091 84.4853 136.888C85.0314 136.686 85.6277 136.635 86.2743 136.735C86.8969 136.832 87.4306 137.053 87.8756 137.4C88.3205 137.746 88.6404 138.188 88.8353 138.725C89.0314 139.254 89.08 139.838 88.9813 140.476ZM87.6231 139.825C87.6929 139.321 87.5756 138.89 87.2713 138.532C86.967 138.175 86.5555 137.956 86.0366 137.875C85.5657 137.803 85.1391 137.892 84.757 138.143C84.376 138.387 84.1141 138.759 83.9713 139.26L87.6231 139.825ZM101.359 137.413L96.9466 145.251L95.3661 145.007L93.5161 136.2L94.9768 136.426L96.373 143.728L99.9218 137.191L101.359 137.413ZM103.063 138.547C102.816 138.509 102.621 138.393 102.479 138.199C102.338 138.006 102.286 137.785 102.324 137.538C102.362 137.29 102.478 137.096 102.672 136.954C102.865 136.812 103.086 136.761 103.333 136.799C103.573 136.836 103.763 136.951 103.905 137.145C104.047 137.338 104.099 137.559 104.06 137.806C104.022 138.054 103.906 138.248 103.713 138.39C103.519 138.532 103.302 138.584 103.063 138.547ZM103.598 139.525L102.578 146.122L101.213 145.911L102.233 139.314L103.598 139.525ZM110.952 143.874C110.913 144.122 110.863 144.343 110.8 144.537L105.759 143.758C105.718 144.291 105.848 144.744 106.15 145.118C106.452 145.491 106.858 145.717 107.369 145.797C108.103 145.91 108.67 145.683 109.068 145.115L110.541 145.343C110.247 145.919 109.807 146.362 109.22 146.671C108.642 146.974 107.965 147.066 107.191 146.946C106.56 146.848 106.015 146.621 105.556 146.264C105.105 145.9 104.776 145.44 104.567 144.885C104.368 144.323 104.321 143.703 104.426 143.024C104.531 142.346 104.759 141.772 105.109 141.303C105.469 140.828 105.918 140.488 106.456 140.286C107.002 140.084 107.598 140.033 108.245 140.133C108.867 140.229 109.401 140.451 109.846 140.798C110.291 141.144 110.611 141.586 110.806 142.123C111.002 142.652 111.05 143.236 110.952 143.874ZM109.594 143.223C109.663 142.719 109.546 142.288 109.242 141.93C108.938 141.573 108.526 141.354 108.007 141.273C107.536 141.2 107.11 141.29 106.727 141.541C106.346 141.785 106.085 142.157 105.942 142.658L109.594 143.223ZM121.64 142.315L118.573 148.596L117.136 148.374L116.56 143.295L114.478 147.963L113.041 147.74L112.002 140.825L113.391 141.039L113.947 146.556L116.169 141.469L117.593 141.689L118.118 147.177L120.299 142.108L121.64 142.315ZM124.018 149.548C123.499 149.468 123.046 149.304 122.66 149.056C122.282 148.802 121.999 148.496 121.808 148.14C121.62 147.776 121.548 147.393 121.594 146.991L123.007 147.21C122.987 147.493 123.083 147.749 123.293 147.977C123.512 148.199 123.805 148.338 124.172 148.395C124.555 148.454 124.862 148.428 125.091 148.317C125.33 148.198 125.468 148.024 125.503 147.792C125.542 147.545 125.45 147.342 125.229 147.186C125.016 147.03 124.666 146.841 124.177 146.618C123.703 146.406 123.32 146.212 123.029 146.036C122.737 145.86 122.496 145.623 122.305 145.324C122.123 145.026 122.065 144.661 122.131 144.23C122.186 143.879 122.339 143.576 122.591 143.32C122.844 143.057 123.175 142.871 123.584 142.763C124.001 142.656 124.461 142.641 124.964 142.719C125.714 142.835 126.287 143.12 126.683 143.573C127.088 144.02 127.256 144.573 127.187 145.233L125.822 145.022C125.843 144.722 125.76 144.468 125.572 144.26C125.383 144.051 125.105 143.918 124.738 143.861C124.379 143.805 124.093 143.831 123.881 143.937C123.668 144.043 123.545 144.208 123.51 144.431C123.483 144.607 123.524 144.764 123.633 144.904C123.742 145.043 123.883 145.163 124.056 145.263C124.229 145.356 124.488 145.481 124.831 145.641C125.29 145.842 125.661 146.035 125.943 146.217C126.235 146.393 126.472 146.626 126.656 146.916C126.84 147.206 126.904 147.563 126.846 147.987C126.788 148.363 126.633 148.682 126.379 148.945C126.126 149.208 125.795 149.394 125.386 149.502C124.985 149.612 124.529 149.627 124.018 149.548Z" fill="#667085"/>
<path d="M43.5112 160.474L43.8695 158.158L48.1979 158.827L46.173 171.92L43.5868 171.52L45.2533 160.744L43.5112 160.474ZM59.1461 162.745L53.3271 161.845L52.8521 164.917C53.1517 164.644 53.5498 164.448 54.0463 164.329C54.5448 164.198 55.0574 164.173 55.5842 164.254C56.5421 164.402 57.2939 164.733 57.8398 165.247C58.3856 165.76 58.7453 166.367 58.9188 167.068C59.0942 167.758 59.1245 168.473 59.0097 169.216C58.7967 170.593 58.2303 171.639 57.3105 172.355C56.4026 173.073 55.2243 173.32 53.7755 173.096C52.4105 172.884 51.3737 172.375 50.6651 171.566C49.9565 170.758 49.6335 169.795 49.6961 168.676L52.1386 169.054C52.1723 169.55 52.3525 169.97 52.6792 170.315C53.0179 170.661 53.4806 170.88 54.0673 170.971C54.7738 171.08 55.3408 170.941 55.7685 170.553C56.1962 170.166 56.4666 169.607 56.5795 168.877C56.6943 168.134 56.5958 167.543 56.2839 167.102C55.9858 166.652 55.4835 166.372 54.7771 166.262C54.2742 166.185 53.8357 166.246 53.4616 166.445C53.0874 166.645 52.7961 166.943 52.5876 167.34L50.181 166.968L51.3698 159.281L59.4877 160.536L59.1461 162.745ZM61.5965 174.434C61.1415 174.363 60.7857 174.167 60.5289 173.846C60.286 173.514 60.197 173.139 60.2618 172.719C60.3266 172.3 60.524 171.975 60.8539 171.744C61.1977 171.503 61.5971 171.418 62.0521 171.488C62.4951 171.557 62.838 171.757 63.0809 172.089C63.3257 172.409 63.4157 172.778 63.3509 173.197C63.2861 173.616 63.0878 173.947 62.756 174.19C62.426 174.421 62.0395 174.502 61.5965 174.434ZM68.1437 168.219C67.0427 167.412 66.5931 166.355 66.7949 165.05C66.8949 164.403 67.1473 163.842 67.5521 163.365C67.9706 162.878 68.5333 162.53 69.2399 162.32C69.9604 162.101 70.7996 162.065 71.7575 162.213C72.7153 162.361 73.4985 162.648 74.1071 163.073C74.7294 163.488 75.1606 163.99 75.4005 164.579C75.6543 165.157 75.7312 165.77 75.6312 166.417C75.5294 167.075 75.2779 167.631 74.8769 168.084C74.4777 168.525 73.9874 168.841 73.406 169.033C74.0201 169.422 74.4701 169.921 74.7561 170.529C75.0421 171.137 75.1267 171.819 75.0101 172.573C74.8842 173.387 74.5645 174.067 74.051 174.613C73.5513 175.149 72.9172 175.523 72.1488 175.735C71.3805 175.947 70.5473 175.984 69.6493 175.845C68.7513 175.706 67.9681 175.419 67.2997 174.985C66.6432 174.552 66.1518 174.004 65.8253 173.341C65.5127 172.667 65.4193 171.923 65.5452 171.109C65.6619 170.355 65.9484 169.731 66.4047 169.238C66.8629 168.732 67.4426 168.393 68.1437 168.219ZM73.1331 166.398C73.2238 165.811 73.1146 165.329 72.8054 164.95C72.5082 164.573 72.0542 164.337 71.4436 164.243C70.8449 164.15 70.341 164.238 69.9318 164.505C69.5346 164.775 69.2897 165.209 69.1971 165.808C69.1138 166.347 69.2267 166.805 69.5359 167.184C69.8571 167.565 70.305 167.8 70.8798 167.889C71.4545 167.977 71.9524 167.889 72.3736 167.623C72.7966 167.345 73.0498 166.937 73.1331 166.398ZM70.5964 169.72C69.914 169.615 69.3304 169.702 68.8456 169.983C68.3728 170.265 68.0865 170.73 67.9865 171.376C67.8939 171.975 68.0215 172.497 68.3693 172.944C68.731 173.38 69.265 173.652 69.9715 173.761C70.6779 173.871 71.2643 173.765 71.7306 173.445C72.197 173.125 72.4755 172.671 72.5662 172.085C72.6644 171.45 72.5308 170.927 72.1654 170.515C71.8019 170.091 71.2789 169.826 70.5964 169.72ZM83.7846 177.737L80.0867 171.446L79.2228 177.031L76.7084 176.642L78.6472 164.106L81.1616 164.495L80.2922 170.117L85.7234 165.201L88.7587 165.67L82.6251 171.084L86.9635 178.228L83.7846 177.737Z" fill="black"/>
<path d="M99.2921 176.518L97.0292 176.168L96.6699 178.491L95.0895 178.247L95.4487 175.924L93.1857 175.574L93.4117 174.113L95.6746 174.463L96.0338 172.14L97.6143 172.385L97.2551 174.708L99.518 175.058L99.2921 176.518ZM102.536 175.904C101.802 175.366 101.502 174.662 101.636 173.792C101.703 173.361 101.871 172.986 102.141 172.668C102.42 172.344 102.795 172.111 103.266 171.972C103.747 171.825 104.306 171.802 104.945 171.9C105.583 171.999 106.106 172.19 106.511 172.474C106.926 172.75 107.214 173.085 107.374 173.477C107.543 173.863 107.594 174.272 107.527 174.703C107.459 175.142 107.292 175.512 107.024 175.814C106.758 176.108 106.431 176.319 106.044 176.447C106.453 176.706 106.753 177.039 106.944 177.444C107.135 177.85 107.191 178.304 107.113 178.807C107.029 179.35 106.816 179.803 106.474 180.167C106.141 180.524 105.718 180.773 105.206 180.915C104.694 181.056 104.138 181.081 103.539 180.988C102.941 180.895 102.419 180.704 101.973 180.415C101.535 180.126 101.208 179.761 100.99 179.319C100.782 178.87 100.719 178.374 100.803 177.831C100.881 177.328 101.072 176.912 101.376 176.583C101.682 176.246 102.068 176.02 102.536 175.904ZM105.862 174.69C105.922 174.299 105.85 173.977 105.643 173.725C105.445 173.473 105.143 173.316 104.736 173.253C104.337 173.192 104.001 173.25 103.728 173.428C103.463 173.608 103.3 173.898 103.238 174.297C103.182 174.656 103.258 174.962 103.464 175.214C103.678 175.468 103.977 175.625 104.36 175.684C104.743 175.743 105.075 175.684 105.356 175.507C105.638 175.322 105.806 175.049 105.862 174.69ZM104.171 176.905C103.716 176.835 103.327 176.893 103.004 177.08C102.688 177.268 102.498 177.578 102.431 178.009C102.369 178.408 102.454 178.756 102.686 179.054C102.927 179.345 103.283 179.526 103.754 179.599C104.225 179.672 104.616 179.602 104.927 179.388C105.238 179.175 105.424 178.872 105.484 178.481C105.549 178.058 105.46 177.709 105.217 177.435C104.974 177.152 104.626 176.976 104.171 176.905ZM108.881 174.875C108.975 174.269 109.224 173.821 109.628 173.532C110.04 173.244 110.526 173.144 111.085 173.23C111.643 173.316 112.072 173.558 112.37 173.956C112.676 174.355 112.782 174.857 112.688 175.464C112.593 176.079 112.34 176.53 111.927 176.817C111.523 177.106 111.041 177.208 110.483 177.121C109.924 177.035 109.492 176.792 109.185 176.393C108.887 175.996 108.786 175.49 108.881 174.875ZM116.845 174.268L110.844 181.922L109.215 181.67L115.205 174.014L116.845 174.268ZM110.917 174.234C110.478 174.166 110.21 174.443 110.114 175.066C110.017 175.696 110.187 176.046 110.626 176.114C110.842 176.147 111.021 176.097 111.164 175.964C111.309 175.823 111.406 175.593 111.455 175.273C111.551 174.651 111.372 174.304 110.917 174.234ZM113.398 180.465C113.493 179.851 113.742 179.403 114.145 179.122C114.558 178.834 115.043 178.734 115.602 178.82C116.161 178.907 116.585 179.148 116.875 179.544C117.175 179.934 117.277 180.436 117.182 181.051C117.087 181.665 116.837 182.117 116.433 182.406C116.036 182.696 115.559 182.798 115 182.711C114.433 182.624 114.001 182.381 113.703 181.984C113.405 181.586 113.303 181.08 113.398 180.465ZM115.434 179.824C114.979 179.754 114.704 180.03 114.608 180.652C114.51 181.283 114.689 181.634 115.144 181.704C115.591 181.773 115.863 181.492 115.961 180.862C116.057 180.239 115.881 179.893 115.434 179.824Z" fill="#58B917"/>
<g clip-path="url(#clip0_1515_10184)">
<path d="M272.693 183.276L272.032 187.552C271.944 188.119 271.635 188.628 271.172 188.967C270.709 189.306 270.13 189.447 269.563 189.36L265.287 188.698M269.586 160.903L273.862 161.565C274.429 161.652 274.938 161.962 275.277 162.425C275.616 162.888 275.757 163.466 275.669 164.033L275.008 168.31M247.213 164.011L247.874 159.735C247.962 159.168 248.271 158.659 248.734 158.32C249.197 157.981 249.776 157.84 250.343 157.927L254.619 158.589M250.321 186.384L246.044 185.722C245.477 185.635 244.968 185.325 244.629 184.862C244.29 184.399 244.149 183.821 244.237 183.254L244.898 178.978M260.119 172.575C261.253 172.75 262.41 172.468 263.336 171.79C264.262 171.112 264.881 170.094 265.056 168.96C265.231 167.826 264.949 166.668 264.271 165.742C263.593 164.816 262.575 164.198 261.441 164.022C260.307 163.847 259.15 164.129 258.224 164.807C257.298 165.485 256.679 166.503 256.504 167.637C256.328 168.771 256.611 169.928 257.289 170.854C257.966 171.78 258.984 172.399 260.119 172.575ZM266.762 183.453C266.475 181.646 265.623 179.976 264.326 178.684C263.03 177.392 261.356 176.545 259.548 176.266C257.739 175.986 255.888 176.288 254.262 177.127C252.636 177.967 251.318 179.302 250.499 180.938L266.762 183.453Z" stroke="url(#paint1_linear_1515_10184)" stroke-width="2.42312" stroke-linecap="round" stroke-linejoin="round"/>
</g>
</g>
<defs>
<filter id="filter0_d_1515_10184" x="13.4277" y="-1" width="319.518" height="169.481" filterUnits="userSpaceOnUse" color-interpolation-filters="sRGB">
<feFlood flood-opacity="0" result="BackgroundImageFix"/>
<feColorMatrix in="SourceAlpha" type="matrix" values="0 0 0 0 0 0 0 0 0 0 0 0 0 0 0 0 0 0 127 0" result="hardAlpha"/>
<feOffset dy="8"/>
<feGaussianBlur stdDeviation="12"/>
<feComposite in2="hardAlpha" operator="out"/>
<feColorMatrix type="matrix" values="0 0 0 0 0.0627451 0 0 0 0 0.0941176 0 0 0 0 0.156863 0 0 0 0.08 0"/>
<feBlend mode="normal" in2="BackgroundImageFix" result="effect1_dropShadow_1515_10184"/>
<feBlend mode="normal" in="SourceGraphic" in2="effect1_dropShadow_1515_10184" result="shape"/>
</filter>
<filter id="filter1_d_1515_10184" x="-1.00195" y="92.2954" width="319.518" height="169.48" filterUnits="userSpaceOnUse" color-interpolation-filters="sRGB">
<feFlood flood-opacity="0" result="BackgroundImageFix"/>
<feColorMatrix in="SourceAlpha" type="matrix" values="0 0 0 0 0 0 0 0 0 0 0 0 0 0 0 0 0 0 127 0" result="hardAlpha"/>
<feOffset dy="8"/>
<feGaussianBlur stdDeviation="12"/>
<feComposite in2="hardAlpha" operator="out"/>
<feColorMatrix type="matrix" values="0 0 0 0 0.0627451 0 0 0 0 0.0941176 0 0 0 0 0.156863 0 0 0 0.08 0"/>
<feBlend mode="normal" in2="BackgroundImageFix" result="effect1_dropShadow_1515_10184"/>
<feBlend mode="normal" in="SourceGraphic" in2="effect1_dropShadow_1515_10184" result="shape"/>
</filter>
<linearGradient id="paint0_linear_1515_10184" x1="260.818" y1="71.3541" x2="288.29" y2="77.5916" gradientUnits="userSpaceOnUse">
<stop stop-color="#6A67AF"/>
<stop offset="1" stop-color="#6A67AF"/>
</linearGradient>
<linearGradient id="paint1_linear_1515_10184" x1="248.828" y1="157.693" x2="276.857" y2="163.24" gradientUnits="userSpaceOnUse">
<stop stop-color="#6A67AF"/>
<stop offset="1" stop-color="#6A67AF"/>
</linearGradient>
<clipPath id="clip0_1515_10184">
<rect width="30.289" height="30.289" fill="white" transform="translate(247.301 156.362) rotate(8.79156)"/>
</clipPath>
</defs>
</svg>
