<svg width="319" height="335" viewBox="0 0 319 335" fill="none" xmlns="http://www.w3.org/2000/svg">
<g filter="url(#filter0_d_1603_20850)">
<rect x="20" y="60.2355" width="232" height="252" rx="24" transform="rotate(-12 20 60.2355)" fill="white" shape-rendering="crispEdges"/>
<path d="M45.0899 95.7961L42.6705 84.4141L46.9388 83.5068C47.8132 83.3209 48.5815 83.328 49.2436 83.5281C49.9094 83.7273 50.4549 84.08 50.88 84.586C51.308 85.0875 51.5988 85.6995 51.7524 86.422C51.9075 87.1519 51.8916 87.833 51.7045 88.4652C51.5175 89.0975 51.1585 89.6404 50.6276 90.094C50.0959 90.544 49.391 90.8622 48.5129 91.0489L45.684 91.6502L45.3237 89.9551L47.8747 89.4129C48.386 89.3042 48.7858 89.1263 49.074 88.8791C49.3623 88.632 49.5511 88.3363 49.6406 87.9919C49.7338 87.6469 49.7374 87.2724 49.6516 86.8685C49.5657 86.4647 49.4105 86.1259 49.1858 85.8522C48.9648 85.5778 48.6713 85.3904 48.3053 85.2901C47.9423 85.1852 47.5032 85.1875 46.9882 85.297L45.0986 85.6987L47.1517 95.3579L45.0899 95.7961ZM58.7652 93.0636C57.9093 93.2455 57.1323 93.2248 56.4343 93.0014C55.7391 92.7736 55.1551 92.3672 54.6823 91.7822C54.2086 91.1936 53.8769 90.4528 53.6871 89.5599C53.5005 88.6818 53.5034 87.8757 53.6959 87.1416C53.8913 86.403 54.2516 85.7843 54.7767 85.2854C55.3011 84.7828 55.9709 84.4449 56.786 84.2716C57.3121 84.1598 57.8267 84.1395 58.3298 84.2107C58.8358 84.2774 59.3059 84.4485 59.7401 84.7241C60.178 84.9989 60.5586 85.3866 60.8819 85.8872C61.2043 86.384 61.4451 87.0066 61.6042 87.7551L61.7353 88.372L54.7382 89.8593L54.45 88.5032L59.5186 87.4258C59.433 87.0413 59.2767 86.7163 59.0499 86.4508C58.8223 86.1817 58.5437 85.9911 58.2139 85.8792C57.8879 85.7665 57.5323 85.7511 57.1469 85.833C56.7357 85.9204 56.3957 86.0972 56.127 86.3634C55.8575 86.626 55.6699 86.9369 55.5643 87.2963C55.4616 87.6511 55.449 88.0198 55.5264 88.4022L55.778 89.586C55.8835 90.0825 56.0649 90.4892 56.322 90.8063C56.5784 91.1197 56.8897 91.3363 57.2559 91.4559C57.6213 91.5719 58.0226 91.5834 58.4598 91.4905C58.7525 91.4282 59.0088 91.3312 59.2286 91.1993C59.4476 91.0636 59.6269 90.8958 59.7663 90.6958C59.9058 90.4957 59.9944 90.2658 60.0322 90.0061L61.9555 89.818C61.9425 90.3397 61.8086 90.8212 61.5539 91.2626C61.3022 91.6995 60.9404 92.0746 60.4687 92.3878C59.9962 92.6974 59.4284 92.9226 58.7652 93.0636ZM64.2276 91.7283L62.4131 83.1917L64.3639 82.7771L64.6663 84.1998L64.7552 84.1809C64.8061 83.6551 64.9921 83.2186 65.3134 82.8715C65.6375 82.5199 66.0441 82.2921 66.5332 82.1882C66.6443 82.1646 66.7696 82.1437 66.9091 82.1257C67.0514 82.1032 67.1709 82.0913 67.2675 82.0902L67.6609 83.9409C67.5693 83.9294 67.4286 83.9322 67.2386 83.9493C67.0515 83.962 66.8728 83.9864 66.7024 84.0226C66.3356 84.1006 66.0227 84.2504 65.7639 84.4719C65.508 84.6889 65.3262 84.9541 65.2185 85.2674C65.1109 85.5808 65.0956 85.919 65.1728 86.2821L66.2395 91.3006L64.2276 91.7283ZM75.8449 82.6951L74.0534 83.285C73.9621 83.1107 73.8343 82.9559 73.67 82.8204C73.5094 82.6842 73.311 82.5889 73.0748 82.5345C72.8387 82.4802 72.565 82.4861 72.2538 82.5522C71.8351 82.6412 71.5024 82.8068 71.2557 83.049C71.0127 83.2904 70.9238 83.5552 70.9889 83.8434C71.0379 84.0924 71.1716 84.2751 71.39 84.3913C71.612 84.5068 71.9504 84.5684 72.4052 84.5763L73.9274 84.5781C74.7722 84.5805 75.4311 84.729 75.9041 85.0234C76.3809 85.317 76.6861 85.7692 76.8198 86.3797C76.9303 86.9177 76.8736 87.4255 76.6498 87.9029C76.4289 88.3758 76.0687 88.7854 75.5691 89.1317C75.0696 89.478 74.4642 89.7267 73.7528 89.8779C72.7079 90.1 71.8204 90.0602 71.0902 89.7584C70.3592 89.453 69.8491 88.9205 69.5599 88.161L71.4816 87.555C71.6524 87.9215 71.9032 88.1722 72.2339 88.3071C72.5647 88.442 72.9616 88.4603 73.4247 88.3618C73.9027 88.2603 74.2653 88.0806 74.5126 87.8228C74.7635 87.5642 74.8583 87.2904 74.7969 87.0014C74.7449 86.7568 74.6075 86.575 74.3847 86.4558C74.1655 86.3359 73.8505 86.2751 73.4397 86.2733L71.9186 86.2772C71.0636 86.2808 70.3967 86.1224 69.9182 85.802C69.4388 85.4779 69.1348 85.0043 69.0062 84.381C68.8907 83.8557 68.9364 83.3696 69.1435 82.9229C69.3535 82.4716 69.6955 82.0853 70.1693 81.7638C70.646 81.4379 71.2253 81.2025 71.907 81.0576C72.9074 80.8449 73.74 80.8906 74.4049 81.1946C75.0734 81.4979 75.5534 81.998 75.8449 82.6951ZM82.7812 87.9589C81.9476 88.1361 81.1861 88.1062 80.4968 87.8694C79.8075 87.6325 79.2241 87.2201 78.7468 86.6323C78.2731 86.0437 77.9426 85.3085 77.7552 84.4266C77.5677 83.5448 77.5703 82.7369 77.7627 82.0028C77.9589 81.2679 78.3237 80.6521 78.8571 80.1553C79.3905 79.6586 80.074 79.3216 80.9076 79.1444C81.7413 78.9672 82.5028 78.997 83.1921 79.2339C83.8814 79.4708 84.4632 79.8854 84.9377 80.4777C85.4158 81.0692 85.7486 81.8059 85.936 82.6877C86.1235 83.5696 86.1187 84.3761 85.9217 85.1072C85.7284 85.8376 85.3651 86.4512 84.8317 86.9479C84.2984 87.4447 83.6148 87.7817 82.7812 87.9589ZM82.4497 86.3448C82.9018 86.2487 83.2533 86.0442 83.5043 85.7314C83.7546 85.4149 83.909 85.0297 83.9674 84.5758C84.0295 84.1211 84.0054 83.6344 83.8952 83.1157C83.7841 82.5933 83.6078 82.1371 83.3661 81.747C83.1273 81.3524 82.8292 81.0614 82.4719 80.874C82.1145 80.6867 81.7098 80.641 81.2578 80.7371C80.7946 80.8355 80.4361 81.0434 80.1821 81.3607C79.9319 81.6773 79.7761 82.0647 79.7147 82.5231C79.6563 82.977 79.6826 83.4651 79.7936 83.9875C79.9039 84.5063 80.078 84.9611 80.316 85.3519C80.5577 85.742 80.8572 86.0308 81.2146 86.2181C81.5749 86.401 81.9866 86.4432 82.4497 86.3448ZM89.4925 81.1302L90.5557 86.1321L88.5438 86.5597L86.7293 78.0232L88.6522 77.6144L88.9606 79.065L89.0606 79.0437C89.1554 78.524 89.3877 78.0777 89.7577 77.7047C90.1313 77.331 90.6368 77.0764 91.2741 76.941C91.8632 76.8157 92.4031 76.8326 92.8939 76.9917C93.3883 77.1499 93.8068 77.4424 94.1492 77.8692C94.4953 78.2951 94.739 78.8494 94.8802 79.5319L96.0355 84.9673L94.0236 85.3949L92.9345 80.2708C92.8132 79.7002 92.5701 79.2852 92.2052 79.0259C91.8439 78.7658 91.404 78.6908 90.8853 78.8011C90.5333 78.8759 90.2367 79.0203 89.9956 79.2341C89.7574 79.4435 89.5913 79.7093 89.4971 80.0314C89.4066 80.3526 89.4051 80.7189 89.4925 81.1302ZM100.574 84.1827C100.033 84.2977 99.5252 84.3049 99.0507 84.2044C98.5792 84.0994 98.1769 83.8829 97.8438 83.5548C97.5145 83.2259 97.2903 82.7818 97.1714 82.2223C97.069 81.7406 97.0733 81.3234 97.1842 80.9707C97.2951 80.6179 97.4842 80.3144 97.7516 80.0601C98.019 79.8058 98.3351 79.5895 98.6999 79.4112C99.0677 79.2285 99.4543 79.0708 99.8599 78.9381C100.349 78.78 100.745 78.6474 101.047 78.5405C101.349 78.4299 101.561 78.3152 101.683 78.1963C101.808 78.073 101.85 77.915 101.809 77.7223L101.802 77.6889C101.713 77.2703 101.52 76.9725 101.223 76.7955C100.926 76.6186 100.544 76.5797 100.077 76.6789C99.5839 76.7837 99.2159 76.9742 98.9726 77.2505C98.7329 77.5261 98.5942 77.8208 98.5564 78.1348L96.6212 78.2673C96.6592 77.7171 96.8115 77.2316 97.0784 76.8109C97.3444 76.3864 97.7054 76.0348 98.1611 75.7559C98.6161 75.4733 99.1418 75.2686 99.7384 75.1418C100.15 75.0544 100.569 75.0155 100.997 75.0252C101.425 75.0349 101.832 75.1151 102.216 75.2658C102.6 75.4127 102.934 75.6535 103.218 75.9881C103.505 76.3219 103.71 76.7722 103.83 77.3391L105.044 83.0524L103.11 83.4635L102.861 82.2908L102.794 82.305C102.723 82.5681 102.598 82.827 102.419 83.0818C102.244 83.332 102.003 83.5556 101.696 83.7524C101.393 83.9448 101.018 84.0882 100.574 84.1827ZM100.782 82.5933C101.186 82.5075 101.519 82.3534 101.782 82.1311C102.043 81.9051 102.226 81.6417 102.328 81.3411C102.435 81.0397 102.454 80.7315 102.387 80.4166L102.173 79.4106C102.121 79.4759 102.024 79.5469 101.882 79.6237C101.743 79.6996 101.585 79.774 101.406 79.8467C101.228 79.9194 101.051 79.988 100.875 80.0526C100.699 80.1171 100.546 80.1728 100.417 80.2197C100.125 80.3242 99.871 80.448 99.6536 80.591C99.4361 80.7341 99.2766 80.9035 99.1749 81.0994C99.0725 81.2915 99.0488 81.5173 99.104 81.7767C99.1827 82.1472 99.3774 82.3982 99.688 82.5296C99.9987 82.6611 100.363 82.6823 100.782 82.5933ZM106.66 70.8127L109.079 82.1948L107.067 82.6224L104.648 71.2403L106.66 70.8127ZM115.119 80.911L112.7 69.5289L117.057 68.6027C117.88 68.4279 118.591 68.4123 119.19 68.5559C119.793 68.695 120.277 68.9581 120.642 69.3452C121.011 69.7315 121.255 70.2063 121.375 70.7694C121.473 71.2326 121.468 71.6479 121.361 72.0155C121.252 72.3793 121.069 72.6951 120.813 72.9626C120.556 73.2302 120.252 73.4478 119.9 73.6155L119.924 73.7266C120.332 73.663 120.746 73.7049 121.164 73.8521C121.586 73.9949 121.958 74.2448 122.282 74.602C122.606 74.9592 122.829 75.4267 122.952 76.0047C123.077 76.5938 123.047 77.154 122.862 77.6852C122.676 78.2127 122.324 78.6727 121.808 79.0652C121.291 79.4578 120.597 79.7466 119.726 79.9316L115.119 80.911ZM116.815 78.7498L119.032 78.2785C119.781 78.1194 120.29 77.8622 120.559 77.5068C120.831 77.1469 120.919 76.7409 120.823 76.2889C120.751 75.9518 120.603 75.6657 120.379 75.4306C120.154 75.1919 119.871 75.0274 119.53 74.9371C119.189 74.8432 118.805 74.8415 118.379 74.9321L116.106 75.4152L116.815 78.7498ZM115.791 73.9313L117.83 73.4978C118.186 73.4222 118.493 73.2892 118.75 73.0989C119.007 72.9049 119.192 72.6701 119.304 72.3946C119.418 72.1147 119.44 71.8079 119.369 71.4745C119.276 71.0336 119.043 70.7036 118.671 70.4844C118.303 70.2645 117.815 70.2191 117.207 70.3483L115.123 70.7913L115.791 73.9313ZM125.316 78.7435L123.502 70.207L125.452 69.7923L125.755 71.2151L125.844 71.1962C125.894 70.6703 126.081 70.2339 126.402 69.8868C126.726 69.5352 127.132 69.3074 127.622 69.2034C127.733 69.1798 127.858 69.159 127.997 69.141C128.14 69.1185 128.259 69.1066 128.356 69.1055L128.749 70.9562C128.658 70.9446 128.517 70.9474 128.327 70.9646C128.14 70.9772 127.961 71.0017 127.791 71.0379C127.424 71.1159 127.111 71.2656 126.852 71.4872C126.596 71.7042 126.415 71.9694 126.307 72.2827C126.199 72.596 126.184 72.9342 126.261 73.2973L127.328 78.3159L125.316 78.7435ZM133.861 77.1072C133.32 77.2222 132.813 77.2294 132.338 77.1289C131.867 77.0239 131.464 76.8074 131.131 76.4793C130.802 76.1504 130.578 75.7063 130.459 75.1468C130.357 74.6651 130.361 74.2479 130.472 73.8952C130.583 73.5425 130.772 73.2389 131.039 72.9846C131.307 72.7303 131.623 72.514 131.988 72.3357C132.355 72.153 132.742 71.9953 133.147 71.8627C133.637 71.7045 134.032 71.5719 134.335 71.465C134.637 71.3544 134.849 71.2397 134.971 71.1208C135.095 70.9975 135.137 70.8395 135.096 70.6468L135.089 70.6135C135 70.1948 134.807 69.897 134.51 69.72C134.213 69.5431 133.831 69.5042 133.364 69.6034C132.872 69.7082 132.503 69.8987 132.26 70.175C132.021 70.4506 131.882 70.7453 131.844 71.0593L129.909 71.1918C129.947 70.6416 130.099 70.1561 130.366 69.7354C130.632 69.3109 130.993 68.9593 131.449 68.6804C131.904 68.3978 132.429 68.1931 133.026 68.0663C133.437 67.9789 133.857 67.94 134.285 67.9497C134.713 67.9595 135.119 68.0396 135.504 68.1903C135.887 68.3372 136.221 68.578 136.505 68.9126C136.793 69.2464 136.997 69.6967 137.118 70.2636L138.332 75.9769L136.398 76.388L136.149 75.2153L136.082 75.2295C136.01 75.4926 135.885 75.7515 135.707 76.0063C135.532 76.2565 135.291 76.4801 134.984 76.6769C134.68 76.8693 134.306 77.0127 133.861 77.1072ZM134.07 75.5178C134.473 75.432 134.807 75.2779 135.069 75.0556C135.331 74.8296 135.513 74.5662 135.616 74.2656C135.722 73.9642 135.742 73.656 135.675 73.3411L135.461 72.3351C135.409 72.4004 135.312 72.4714 135.169 72.5482C135.031 72.6241 134.872 72.6985 134.694 72.7712C134.516 72.8439 134.339 72.9125 134.163 72.9771C133.987 73.0416 133.834 73.0973 133.704 73.1442C133.413 73.2487 133.159 73.3725 132.941 73.5155C132.724 73.6586 132.564 73.828 132.463 74.0239C132.36 74.216 132.336 74.4418 132.392 74.7012C132.47 75.0717 132.665 75.3227 132.976 75.4541C133.286 75.5856 133.651 75.6068 134.07 75.5178ZM141.304 70.1174L142.367 75.1193L140.355 75.5469L138.541 67.0103L140.463 66.6016L140.772 68.0521L140.872 68.0309C140.967 67.5112 141.199 67.0649 141.569 66.6919C141.943 66.3182 142.448 66.0636 143.085 65.9281C143.674 65.8029 144.214 65.8198 144.705 65.9788C145.2 66.1371 145.618 66.4296 145.96 66.8563C146.307 67.2823 146.55 67.8366 146.691 68.5191L147.847 73.9545L145.835 74.3821L144.746 69.258C144.624 68.6874 144.381 68.2724 144.016 68.0131C143.655 67.7529 143.215 67.678 142.697 67.7883C142.345 67.8631 142.048 68.0074 141.807 68.2213C141.569 68.4307 141.403 68.6965 141.308 69.0185C141.218 69.3398 141.216 69.7061 141.304 70.1174ZM153.092 72.9965C152.421 73.139 151.784 73.0943 151.181 72.8623C150.578 72.6304 150.053 72.2192 149.606 71.6288C149.159 71.0383 148.836 70.2744 148.637 69.337C148.435 68.3885 148.421 67.5551 148.593 66.8369C148.769 66.1141 149.088 65.5293 149.551 65.0825C150.013 64.6319 150.571 64.3369 151.227 64.1975C151.727 64.0912 152.157 64.089 152.515 64.1909C152.873 64.2891 153.172 64.4367 153.411 64.6337C153.65 64.8269 153.843 65.0163 153.991 65.2017L154.074 65.184L153.169 60.9268L155.187 60.498L157.606 71.8801L155.627 72.3006L155.342 70.9557L155.219 70.9817C155.16 71.2112 155.056 71.4636 154.91 71.7387C154.762 72.0102 154.545 72.2617 154.257 72.4932C153.969 72.7248 153.581 72.8925 153.092 72.9965ZM153.302 71.2265C153.728 71.136 154.067 70.9439 154.318 70.6504C154.569 70.3532 154.728 69.9806 154.795 69.5325C154.863 69.0845 154.838 68.5844 154.72 68.0324C154.603 67.4803 154.423 67.017 154.181 66.6425C153.942 66.2673 153.649 65.9985 153.301 65.8363C152.956 65.6733 152.567 65.6379 152.134 65.73C151.686 65.8253 151.336 66.0215 151.086 66.3188C150.835 66.616 150.678 66.9864 150.613 67.4299C150.549 67.8735 150.573 68.3602 150.685 68.89C150.799 69.4235 150.976 69.8835 151.217 70.2699C151.461 70.6518 151.758 70.9312 152.11 71.1083C152.464 71.2808 152.861 71.3202 153.302 71.2265ZM168.152 61.0124C167.997 60.5381 167.698 60.2066 167.255 60.0181C166.816 59.8287 166.291 59.799 165.68 59.9289C165.25 60.0203 164.895 60.1635 164.615 60.3585C164.335 60.5536 164.137 60.7796 164.022 61.0365C163.906 61.2935 163.876 61.565 163.933 61.8511C163.984 62.0882 164.081 62.2824 164.226 62.4337C164.374 62.5843 164.555 62.7006 164.77 62.7827C164.984 62.8611 165.215 62.9166 165.462 62.9493C165.709 62.982 165.955 63.0013 166.2 63.0073L167.324 63.0472C167.775 63.0559 168.217 63.1033 168.65 63.1895C169.086 63.2749 169.489 63.4138 169.859 63.6062C170.233 63.7978 170.552 64.0573 170.815 64.3848C171.078 64.7122 171.262 65.1223 171.367 65.6151C171.509 66.282 171.463 66.9055 171.23 67.4855C170.996 68.0619 170.587 68.5612 170.003 68.9836C169.422 69.4014 168.676 69.7072 167.765 69.9009C166.879 70.0891 166.081 70.1155 165.371 69.9799C164.664 69.8435 164.071 69.5513 163.593 69.1031C163.118 68.6542 162.785 68.0549 162.595 67.3054L164.623 66.8742C164.737 67.2643 164.93 67.5681 165.2 67.7855C165.471 68.0029 165.793 68.1398 166.165 68.1962C166.541 68.2519 166.944 68.234 167.373 68.1427C167.822 68.0474 168.2 67.8972 168.509 67.6922C168.821 67.4826 169.047 67.2369 169.189 66.9552C169.33 66.6697 169.367 66.3635 169.301 66.0367C169.235 65.7411 169.096 65.515 168.884 65.3586C168.672 65.1984 168.399 65.0862 168.063 65.0219C167.731 64.9531 167.35 64.9101 166.921 64.893L165.555 64.8348C164.566 64.7932 163.748 64.5858 163.099 64.2125C162.454 63.8347 162.044 63.2382 161.871 62.4231C161.728 61.7525 161.785 61.1266 162.041 60.5456C162.301 59.9637 162.716 59.4669 163.287 59.0551C163.857 58.6396 164.54 58.3472 165.337 58.1779C166.144 58.0062 166.882 57.9966 167.549 58.149C168.22 58.297 168.782 58.5822 169.236 59.0046C169.689 59.4234 169.989 59.9521 170.136 60.5907L168.152 61.0124ZM177.555 67.8142C176.702 67.9953 175.931 67.9637 175.24 67.7195C174.553 67.4744 173.974 67.0572 173.504 66.4677C173.037 65.8738 172.712 65.1452 172.528 64.2819C172.344 63.415 172.348 62.6144 172.541 61.8803C172.732 61.1425 173.093 60.5238 173.622 60.0241C174.153 59.52 174.836 59.1793 175.67 59.0021C176.363 58.8548 177.003 58.8523 177.591 58.9945C178.182 59.1323 178.686 59.3989 179.103 59.7943C179.519 60.186 179.815 60.6846 179.99 61.2902L178.067 61.699C177.902 61.3042 177.644 61.0009 177.293 60.7889C176.945 60.5725 176.528 60.5158 176.043 60.619C175.631 60.7064 175.294 60.8944 175.03 61.1828C174.765 61.4676 174.589 61.8341 174.502 62.2824C174.419 62.7299 174.439 63.2408 174.561 63.8151C174.685 64.3968 174.876 64.8788 175.136 65.2613C175.394 65.64 175.701 65.9097 176.057 66.0704C176.415 66.2265 176.804 66.2601 177.223 66.1711C177.519 66.1081 177.772 65.9962 177.982 65.8355C178.195 65.6702 178.358 65.4632 178.472 65.2144C178.585 64.9657 178.639 64.6812 178.633 64.3611L180.556 63.9524C180.636 64.5665 180.572 65.1397 180.364 65.6719C180.155 66.2004 179.813 66.6525 179.339 67.0282C178.865 67.4002 178.27 67.6622 177.555 67.8142ZM186.587 65.8942C185.753 66.0714 184.992 66.0416 184.303 65.8047C183.613 65.5679 183.03 65.1555 182.553 64.5677C182.079 63.979 181.749 63.2438 181.561 62.362C181.374 61.4802 181.376 60.6722 181.569 59.9382C181.765 59.2033 182.13 58.5875 182.663 58.0907C183.196 57.594 183.88 57.257 184.714 57.0798C185.547 56.9026 186.309 56.9324 186.998 57.1693C187.687 57.4061 188.269 57.8207 188.744 58.4131C189.222 59.0046 189.555 59.7413 189.742 60.6231C189.929 61.5049 189.925 62.3114 189.728 63.0426C189.534 63.773 189.171 64.3866 188.638 64.8833C188.104 65.3801 187.421 65.717 186.587 65.8942ZM186.256 64.2801C186.708 64.1841 187.059 63.9796 187.31 63.6668C187.561 63.3503 187.715 62.9651 187.773 62.5112C187.835 62.0565 187.811 61.5698 187.701 61.0511C187.59 60.5287 187.414 60.0724 187.172 59.6823C186.933 59.2877 186.635 58.9968 186.278 58.8094C185.92 58.622 185.516 58.5764 185.064 58.6725C184.601 58.7709 184.242 58.9788 183.988 59.2961C183.738 59.6126 183.582 60.0001 183.521 60.4585C183.462 60.9123 183.489 61.4005 183.6 61.9229C183.71 62.4416 183.884 62.8964 184.122 63.2873C184.364 63.6774 184.663 63.9661 185.021 64.1535C185.381 64.3364 185.793 64.3786 186.256 64.2801ZM192.35 64.4951L190.535 55.9585L192.486 55.5439L192.788 56.9666L192.877 56.9477C192.928 56.4219 193.114 55.9854 193.435 55.6383C193.76 55.2867 194.166 55.059 194.655 54.955C194.766 54.9314 194.892 54.9105 195.031 54.8925C195.173 54.87 195.293 54.8582 195.39 54.857L195.783 56.7077C195.691 56.6962 195.551 56.699 195.361 56.7161C195.174 56.7288 194.995 56.7532 194.824 56.7895C194.458 56.8674 194.145 57.0172 193.886 57.2387C193.63 57.4557 193.448 57.7209 193.341 58.0343C193.233 58.3476 193.218 58.6858 193.295 59.0489L194.362 64.0675L192.35 64.4951ZM202.018 62.6143C201.162 62.7962 200.385 62.7755 199.687 62.5521C198.992 62.3242 198.408 61.9178 197.935 61.3329C197.461 60.7443 197.13 60.0035 196.94 59.1106C196.753 58.2325 196.756 57.4264 196.949 56.6923C197.144 55.9537 197.504 55.335 198.03 54.8361C198.554 54.3335 199.224 53.9956 200.039 53.8223C200.565 53.7105 201.08 53.6902 201.583 53.7614C202.089 53.8281 202.559 53.9992 202.993 54.2748C203.431 54.5496 203.811 54.9373 204.135 55.4379C204.457 55.9347 204.698 56.5573 204.857 57.3058L204.988 57.9227L197.991 59.4099L197.703 58.0539L202.771 56.9765C202.686 56.592 202.53 56.267 202.303 56.0015C202.075 55.7323 201.796 55.5418 201.467 55.4299C201.141 55.3172 200.785 55.3018 200.4 55.3837C199.988 55.4711 199.648 55.6479 199.38 55.9141C199.11 56.1767 198.923 56.4876 198.817 56.847C198.714 57.2018 198.702 57.5705 198.779 57.9529L199.031 59.1367C199.136 59.6331 199.318 60.0399 199.575 60.357C199.831 60.6704 200.142 60.8869 200.509 61.0066C200.874 61.1226 201.275 61.1341 201.713 61.0411C202.005 60.9789 202.262 60.8819 202.481 60.7499C202.7 60.6143 202.88 60.4465 203.019 60.2465C203.159 60.0464 203.247 59.8165 203.285 59.5568L205.208 59.3687C205.195 59.8904 205.061 60.3719 204.807 60.8133C204.555 61.2502 204.193 61.6253 203.721 61.9385C203.249 62.2481 202.681 62.4733 202.018 62.6143Z" fill="#111827"/>
<path d="M179.206 110.457C169.958 108.491 160.412 108.366 151.116 110.089C141.819 111.812 132.952 115.35 125.023 120.499C117.093 125.649 110.255 132.31 104.899 140.102C99.544 147.895 95.7758 156.665 93.8099 165.914C91.8441 175.162 91.7191 184.708 93.4422 194.004C95.1653 203.301 98.7026 212.168 103.852 220.098C109.002 228.027 115.663 234.865 123.455 240.221C131.248 245.576 140.018 249.344 149.267 251.31C158.515 253.276 168.061 253.401 177.358 251.678C186.654 249.955 195.521 246.417 203.451 241.268C211.38 236.118 218.218 229.457 223.574 221.665C228.929 213.872 232.697 205.102 234.663 195.853C236.629 186.605 236.754 177.059 235.031 167.763C233.308 158.466 229.77 149.599 224.621 141.669C219.471 133.74 212.81 126.902 205.018 121.546C197.225 116.191 188.455 112.423 179.206 110.457L179.206 110.457Z" stroke="#EAECF0" stroke-width="16" stroke-linecap="round" stroke-linejoin="round"/>
<g filter="url(#filter1_i_1603_20850)">
<path d="M179.206 110.457C165.277 107.496 150.783 108.732 137.556 114.009C124.33 119.286 112.965 128.366 104.899 140.102C96.8337 151.838 92.4291 165.702 92.2427 179.941C92.0563 194.18 96.0965 208.155 103.852 220.098C111.608 232.04 122.731 241.415 135.815 247.036C148.899 252.658 163.356 254.273 177.358 251.678C191.359 249.083 204.277 242.394 214.477 232.457C224.678 222.521 231.702 209.782 234.663 195.853" stroke="#6A67AF" stroke-width="16" stroke-linecap="round" stroke-linejoin="round"/>
</g>
<path d="M131.333 169.103C131.527 170.014 131.527 170.834 131.333 171.56C131.138 172.284 130.788 172.884 130.282 173.361C129.779 173.834 129.159 174.148 128.422 174.305C127.683 174.462 126.986 174.427 126.331 174.201C125.678 173.971 125.115 173.563 124.642 172.978C124.169 172.393 123.836 171.646 123.643 170.738C123.449 169.826 123.45 169.009 123.644 168.285C123.838 167.558 124.187 166.958 124.691 166.485C125.196 166.009 125.819 165.692 126.558 165.535C127.294 165.378 127.989 165.415 128.642 165.645C129.297 165.872 129.861 166.278 130.334 166.863C130.807 167.445 131.14 168.192 131.333 169.103ZM130.058 169.374C129.91 168.679 129.673 168.118 129.347 167.691C129.023 167.26 128.641 166.964 128.2 166.802C127.761 166.637 127.297 166.606 126.808 166.71C126.316 166.815 125.903 167.032 125.57 167.361C125.235 167.688 125.006 168.114 124.883 168.64C124.762 169.162 124.775 169.771 124.923 170.466C125.07 171.16 125.306 171.723 125.63 172.154C125.956 172.581 126.338 172.877 126.777 173.043C127.215 173.205 127.68 173.234 128.172 173.129C128.661 173.026 129.073 172.81 129.407 172.484C129.744 172.154 129.973 171.727 130.094 171.205C130.218 170.679 130.205 170.069 130.058 169.374ZM137.862 165.485L136.902 172.381L135.568 172.664L131.881 166.756L133.219 166.472L135.888 171.054L135.954 171.04L136.524 165.769L137.862 165.485ZM142.964 171.227C142.333 171.361 141.761 171.342 141.248 171.169C140.737 170.993 140.306 170.685 139.954 170.246C139.604 169.804 139.359 169.25 139.218 168.586C139.078 167.93 139.078 167.326 139.216 166.774C139.357 166.221 139.618 165.758 140.001 165.383C140.386 165.008 140.875 164.757 141.47 164.631C141.831 164.554 142.194 164.539 142.559 164.587C142.923 164.634 143.267 164.757 143.591 164.955C143.915 165.154 144.198 165.441 144.441 165.816C144.682 166.189 144.865 166.665 144.988 167.246L145.082 167.688L139.993 168.77L139.795 167.836L143.663 167.014C143.593 166.686 143.465 166.41 143.277 166.185C143.09 165.958 142.859 165.796 142.586 165.7C142.316 165.604 142.02 165.59 141.697 165.658C141.347 165.733 141.06 165.884 140.835 166.112C140.613 166.336 140.46 166.601 140.377 166.906C140.296 167.208 140.289 167.519 140.357 167.838L140.512 168.568C140.603 168.996 140.755 169.344 140.969 169.612C141.186 169.88 141.447 170.064 141.753 170.164C142.059 170.262 142.393 170.272 142.757 170.195C142.994 170.145 143.202 170.066 143.382 169.958C143.562 169.847 143.708 169.708 143.821 169.542C143.934 169.376 144.006 169.184 144.039 168.968L145.264 168.93C145.243 169.298 145.138 169.638 144.949 169.951C144.762 170.261 144.501 170.527 144.165 170.75C143.831 170.969 143.431 171.128 142.964 171.227ZM147.066 170.22L145.705 163.818L146.91 163.562L147.126 164.579L147.193 164.564C147.236 164.195 147.384 163.88 147.637 163.621C147.891 163.357 148.206 163.186 148.582 163.106C148.659 163.089 148.752 163.073 148.858 163.056C148.968 163.038 149.054 163.027 149.117 163.023L149.371 164.215C149.318 164.212 149.225 164.215 149.094 164.226C148.962 164.233 148.832 164.251 148.704 164.278C148.41 164.341 148.16 164.459 147.956 164.633C147.755 164.804 147.61 165.013 147.524 165.261C147.436 165.506 147.422 165.767 147.481 166.045L148.312 169.955L147.066 170.22ZM153.407 169.02C153.001 169.107 152.618 169.11 152.258 169.029C151.898 168.946 151.591 168.78 151.338 168.532C151.088 168.283 150.918 167.949 150.829 167.53C150.752 167.168 150.758 166.856 150.848 166.593C150.937 166.33 151.085 166.106 151.292 165.919C151.5 165.733 151.742 165.574 152.019 165.442C152.296 165.311 152.582 165.195 152.877 165.094C153.251 164.968 153.555 164.866 153.788 164.788C154.02 164.706 154.184 164.621 154.278 164.531C154.372 164.441 154.403 164.321 154.371 164.171L154.365 164.142C154.288 163.778 154.125 163.518 153.877 163.362C153.631 163.205 153.307 163.169 152.904 163.255C152.485 163.344 152.174 163.507 151.972 163.745C151.772 163.979 151.65 164.218 151.606 164.463L150.378 164.445C150.434 164.026 150.57 163.669 150.786 163.374C151.004 163.075 151.277 162.834 151.604 162.651C151.931 162.465 152.287 162.331 152.673 162.249C152.929 162.195 153.206 162.168 153.506 162.168C153.807 162.165 154.1 162.216 154.383 162.322C154.67 162.426 154.925 162.609 155.149 162.869C155.372 163.126 155.533 163.489 155.632 163.956L156.536 168.207L155.319 168.466L155.133 167.591L155.083 167.601C155.037 167.779 154.949 167.964 154.821 168.153C154.693 168.343 154.514 168.516 154.283 168.673C154.052 168.83 153.76 168.945 153.407 169.02ZM153.465 167.962C153.81 167.889 154.09 167.759 154.305 167.57C154.524 167.382 154.673 167.164 154.755 166.917C154.838 166.667 154.853 166.416 154.799 166.163L154.624 165.338C154.589 165.391 154.511 165.451 154.392 165.517C154.274 165.58 154.138 165.643 153.983 165.705C153.827 165.764 153.675 165.821 153.527 165.876C153.378 165.928 153.254 165.971 153.154 166.007C152.919 166.089 152.709 166.187 152.524 166.302C152.342 166.416 152.206 166.554 152.115 166.716C152.027 166.874 152.006 167.064 152.054 167.287C152.119 167.595 152.283 167.804 152.544 167.914C152.805 168.021 153.112 168.037 153.465 167.962ZM157.628 159.053L159.442 167.589L158.196 167.854L156.382 159.318L157.628 159.053ZM160.551 158.432L162.365 166.968L161.119 167.233L159.305 158.696L160.551 158.432ZM170.567 158.646C170.438 158.261 170.19 157.995 169.821 157.846C169.452 157.695 169.023 157.672 168.534 157.776C168.184 157.85 167.893 157.97 167.661 158.136C167.429 158.298 167.262 158.491 167.161 158.713C167.062 158.931 167.038 159.161 167.09 159.403C167.133 159.606 167.217 159.771 167.343 159.898C167.472 160.025 167.624 160.121 167.801 160.188C167.98 160.252 168.167 160.298 168.362 160.326C168.556 160.352 168.741 160.368 168.917 160.374L169.796 160.413C170.083 160.422 170.381 160.453 170.692 160.506C171.002 160.559 171.3 160.653 171.584 160.787C171.868 160.921 172.114 161.11 172.323 161.353C172.534 161.596 172.68 161.909 172.762 162.292C172.865 162.776 172.831 163.232 172.66 163.66C172.493 164.088 172.196 164.46 171.77 164.777C171.346 165.094 170.801 165.323 170.134 165.465C169.495 165.601 168.92 165.617 168.41 165.513C167.9 165.41 167.474 165.2 167.131 164.883C166.787 164.564 166.547 164.151 166.409 163.643L167.702 163.368C167.792 163.671 167.947 163.907 168.166 164.075C168.387 164.24 168.645 164.344 168.942 164.385C169.24 164.423 169.555 164.407 169.885 164.337C170.249 164.26 170.561 164.134 170.82 163.96C171.082 163.782 171.273 163.573 171.393 163.333C171.512 163.089 171.543 162.829 171.484 162.551C171.43 162.298 171.314 162.106 171.135 161.976C170.959 161.845 170.737 161.753 170.471 161.699C170.206 161.645 169.913 161.61 169.59 161.594L168.523 161.534C167.8 161.493 167.2 161.334 166.723 161.058C166.248 160.781 165.948 160.345 165.822 159.751C165.717 159.259 165.759 158.801 165.948 158.378C166.137 157.954 166.438 157.593 166.85 157.293C167.262 156.99 167.755 156.778 168.327 156.657C168.905 156.534 169.436 156.527 169.921 156.636C170.409 156.744 170.819 156.949 171.15 157.25C171.481 157.549 171.7 157.926 171.809 158.382L170.567 158.646ZM177.427 163.902C176.807 164.033 176.244 164.007 175.737 163.821C175.232 163.632 174.807 163.314 174.462 162.868C174.118 162.421 173.877 161.877 173.741 161.235C173.602 160.585 173.603 159.985 173.741 159.435C173.88 158.883 174.141 158.42 174.526 158.044C174.911 157.669 175.405 157.418 176.008 157.289C176.494 157.186 176.947 157.184 177.366 157.284C177.785 157.381 178.145 157.566 178.447 157.838C178.752 158.111 178.972 158.457 179.108 158.879L177.895 159.136C177.765 158.85 177.557 158.624 177.272 158.458C176.989 158.292 176.65 158.251 176.252 158.335C175.905 158.409 175.62 158.566 175.398 158.805C175.178 159.04 175.031 159.341 174.958 159.708C174.885 160.072 174.896 160.482 174.993 160.938C175.092 161.405 175.249 161.793 175.463 162.102C175.676 162.411 175.932 162.631 176.23 162.762C176.531 162.893 176.858 162.92 177.211 162.845C177.447 162.795 177.652 162.707 177.825 162.58C178.001 162.449 178.137 162.288 178.232 162.097C178.331 161.904 178.382 161.687 178.386 161.446L179.599 161.188C179.642 161.611 179.586 162.009 179.43 162.382C179.274 162.755 179.027 163.075 178.689 163.342C178.353 163.608 177.932 163.794 177.427 163.902ZM184.087 162.486C183.486 162.614 182.933 162.588 182.427 162.408C181.922 162.228 181.492 161.916 181.14 161.474C180.787 161.032 180.541 160.481 180.4 159.819C180.259 159.155 180.259 158.548 180.401 157.998C180.543 157.448 180.808 156.988 181.197 156.618C181.586 156.248 182.08 155.999 182.68 155.871C183.281 155.744 183.834 155.77 184.34 155.95C184.845 156.13 185.275 156.442 185.628 156.887C185.981 157.332 186.228 157.886 186.369 158.551C186.51 159.212 186.509 159.816 186.367 160.363C186.225 160.911 185.959 161.369 185.57 161.739C185.181 162.11 184.687 162.359 184.087 162.486ZM183.868 161.439C184.257 161.356 184.558 161.185 184.77 160.925C184.982 160.665 185.113 160.351 185.162 159.983C185.215 159.615 185.197 159.225 185.11 158.814C185.023 158.405 184.881 158.044 184.683 157.728C184.487 157.41 184.24 157.173 183.94 157.019C183.64 156.865 183.295 156.83 182.906 156.912C182.514 156.996 182.211 157.169 181.997 157.432C181.786 157.695 181.654 158.012 181.602 158.383C181.553 158.751 181.571 159.139 181.658 159.548C181.746 159.959 181.887 160.322 182.082 160.638C182.279 160.953 182.528 161.187 182.827 161.338C183.13 161.489 183.476 161.522 183.868 161.439ZM188.435 161.427L187.074 155.024L188.278 154.768L188.495 155.785L188.561 155.771C188.605 155.402 188.753 155.087 189.005 154.827C189.26 154.564 189.575 154.393 189.95 154.313C190.028 154.296 190.12 154.28 190.227 154.263C190.337 154.245 190.423 154.234 190.486 154.229L190.739 155.422C190.686 155.418 190.594 155.422 190.463 155.432C190.331 155.44 190.201 155.458 190.073 155.485C189.779 155.547 189.529 155.666 189.325 155.84C189.123 156.011 188.979 156.22 188.892 156.468C188.805 156.713 188.791 156.974 188.85 157.252L189.681 161.162L188.435 161.427ZM195.497 160.061C194.866 160.195 194.294 160.176 193.781 160.003C193.271 159.827 192.839 159.519 192.487 159.08C192.138 158.637 191.892 158.084 191.751 157.42C191.612 156.764 191.611 156.16 191.749 155.608C191.89 155.055 192.152 154.591 192.534 154.217C192.919 153.842 193.409 153.591 194.003 153.464C194.365 153.388 194.728 153.373 195.092 153.42C195.456 153.468 195.801 153.591 196.124 153.789C196.448 153.987 196.731 154.274 196.974 154.65C197.216 155.022 197.398 155.499 197.522 156.08L197.616 156.522L192.526 157.603L192.328 156.67L196.196 155.848C196.126 155.52 195.998 155.243 195.811 155.019C195.623 154.792 195.393 154.63 195.12 154.534C194.849 154.438 194.553 154.424 194.231 154.492C193.881 154.567 193.593 154.718 193.369 154.946C193.146 155.17 192.993 155.435 192.91 155.74C192.829 156.042 192.822 156.353 192.89 156.672L193.045 157.402C193.136 157.83 193.289 158.178 193.503 158.446C193.719 158.713 193.981 158.898 194.287 158.998C194.592 159.096 194.927 159.106 195.291 159.029C195.527 158.978 195.735 158.899 195.916 158.791C196.095 158.68 196.242 158.542 196.354 158.376C196.467 158.209 196.54 158.018 196.572 157.802L197.797 157.764C197.776 158.131 197.672 158.472 197.483 158.785C197.296 159.095 197.034 159.361 196.698 159.583C196.364 159.802 195.964 159.962 195.497 160.061Z" fill="#475467"/>
<path d="M145.595 202.225L149.801 186.31L149.776 186.193L141.348 187.984L140.799 185.4L152.428 182.928L152.99 185.571L148.805 201.543L145.595 202.225ZM161.951 180.068L160.794 201.678L158.152 202.24L159.309 180.629L161.951 180.068ZM170.958 178.99L174.587 196.063L171.494 196.72L168.505 182.656L168.405 182.678L164.954 186.077L164.352 183.243L168.015 179.615L170.958 178.99ZM185.302 194.125C183.929 194.417 182.677 194.32 181.546 193.834C180.419 193.342 179.451 192.493 178.643 191.288C177.84 190.077 177.24 188.54 176.844 186.678C176.454 184.815 176.382 183.175 176.626 181.758C176.876 180.334 177.416 179.174 178.248 178.277C179.085 177.378 180.187 176.784 181.554 176.493C182.921 176.203 184.17 176.297 185.3 176.777C186.431 177.258 187.396 178.098 188.197 179.298C189.004 180.498 189.605 182.026 189.999 183.882C190.396 185.749 190.471 187.4 190.225 188.835C189.982 190.264 189.443 191.43 188.607 192.333C187.776 193.236 186.675 193.833 185.302 194.125ZM184.747 191.516C185.814 191.289 186.545 190.585 186.938 189.403C187.336 188.215 187.317 186.595 186.882 184.545C186.593 183.189 186.209 182.079 185.73 181.217C185.25 180.355 184.703 179.745 184.086 179.388C183.469 179.026 182.808 178.919 182.102 179.069C181.04 179.295 180.313 180.001 179.921 181.188C179.527 182.37 179.544 183.978 179.971 186.014C180.255 187.376 180.634 188.492 181.109 189.361C181.59 190.229 182.139 190.844 182.756 191.207C183.372 191.564 184.036 191.667 184.747 191.516Z" fill="#101828"/>
</g>
<defs>
<filter id="filter0_d_1603_20850" x="-4" y="-4" width="327.324" height="342.729" filterUnits="userSpaceOnUse" color-interpolation-filters="sRGB">
<feFlood flood-opacity="0" result="BackgroundImageFix"/>
<feColorMatrix in="SourceAlpha" type="matrix" values="0 0 0 0 0 0 0 0 0 0 0 0 0 0 0 0 0 0 127 0" result="hardAlpha"/>
<feOffset dy="8"/>
<feGaussianBlur stdDeviation="12"/>
<feComposite in2="hardAlpha" operator="out"/>
<feColorMatrix type="matrix" values="0 0 0 0 0.0627451 0 0 0 0 0.0941176 0 0 0 0 0.156863 0 0 0 0.08 0"/>
<feBlend mode="normal" in2="BackgroundImageFix" result="effect1_dropShadow_1603_20850"/>
<feBlend mode="normal" in="SourceGraphic" in2="effect1_dropShadow_1603_20850" result="shape"/>
</filter>
<filter id="filter1_i_1603_20850" x="84.2363" y="100.883" width="158.428" height="164" filterUnits="userSpaceOnUse" color-interpolation-filters="sRGB">
<feFlood flood-opacity="0" result="BackgroundImageFix"/>
<feBlend mode="normal" in="SourceGraphic" in2="BackgroundImageFix" result="shape"/>
<feColorMatrix in="SourceAlpha" type="matrix" values="0 0 0 0 0 0 0 0 0 0 0 0 0 0 0 0 0 0 127 0" result="hardAlpha"/>
<feOffset dy="4"/>
<feGaussianBlur stdDeviation="4"/>
<feComposite in2="hardAlpha" operator="arithmetic" k2="-1" k3="1"/>
<feColorMatrix type="matrix" values="0 0 0 0 0.839216 0 0 0 0 0.733333 0 0 0 0 0.984314 0 0 0 1 0"/>
<feBlend mode="normal" in2="shape" result="effect1_innerShadow_1603_20850"/>
</filter>
</defs>
</svg>
